<?xml version="1.0" encoding="UTF-8" standalone="no"?>
<svg version="1.1" xmlns="http://www.w3.org/2000/svg" x="0" y="0" width="300" height="300"><path stroke="Black" stroke-width="0.5757224189496134" fill="None" d="M142.2375 115.9125 C 131.90625 120.84375, 129.9 120.225, 117.43125 114.50625"></path><path stroke="Black" stroke-width="0.5757224189496134" fill="None" d="M121.275 120.07499999999999 C 118.6125 116.51249999999999, 116.4 114.82499999999999, 112.5 112.5"></path><path stroke="Black" stroke-width="0.5757224189496134" fill="None" d="M131.25 121.875 C 127.9125 120.63749999999999, 125.25 120.30000000000001, 121.275 120.07499999999999"></path><path stroke="Black" stroke-width="0.5757224189496134" fill="None" d="M131.25 131.25 C 131.25 127.125, 131.25 124.6875, 131.25 121.875"></path><path stroke="Black" stroke-width="0.5757224189496134" fill="None" d="M140.625 131.25 C 136.875 131.25, 134.625 131.25, 131.25 131.25"></path><path stroke="Black" stroke-width="0.5757224189496134" fill="None" d="M140.625 131.25 C 141.8625 127.9125, 142.2 125.25, 142.425 121.275"></path><path stroke="Black" stroke-width="0.5757224189496134" fill="None" d="M142.425 121.275 C 136.875 123.5625, 135.9375 123.5625, 131.25 121.875"></path><path stroke="Black" stroke-width="0.5757224189496134" fill="None" d="M142.425 121.275 C 145.9875 118.61250000000001, 147.675 116.4, 150 112.5"></path><path stroke="Black" stroke-width="0.5757224189496134" fill="None" d="M150 112.5 C 146.8875 111.7125, 144.9375 111.44999999999999, 141.825 111.9"></path><path stroke="Black" stroke-width="0.5757224189496134" fill="None" d="M141.825 111.9 C 136.5375 112.1625, 137.025 116.775, 131.25 117.11250000000001"></path><path stroke="Black" stroke-width="0.5757224189496134" fill="None" d="M131.25 117.11250000000001 C 130.3125 117.1875, 128.4375 117.1875, 126.5625 117.1875"></path><path stroke="Black" stroke-width="0.5757224189496134" fill="None" d="M126.5625 117.1875 C 124.275 116.13749999999999, 122.775 114.975, 120.675 113.1"></path><path stroke="Black" stroke-width="0.5757224189496134" fill="None" d="M120.675 113.1 C 117.5625 113.55000000000001, 115.6125 113.2875, 112.5 112.5"></path><path stroke="Black" stroke-width="0.5757224189496134" fill="None" d="M141.825 111.9 C 139.725 110.025, 138.225 108.86250000000001, 135.9375 107.8125"></path><path stroke="Black" stroke-width="0.5757224189496134" fill="None" d="M135.9375 107.8125 C 133.59375 110.15625, 132.65625 111.09375, 131.25 112.5"></path><path stroke="Black" stroke-width="0.5757224189496134" fill="None" d="M131.25 112.5 C 131.25 114, 131.25 115.875, 131.25 117.11250000000001"></path><path stroke="Black" stroke-width="0.5757224189496134" fill="None" d="M138.65625 112.03125 C 137.8875 110.4375, 136.875 109.65, 135.09375 109.14375000000001"></path><path stroke="Black" stroke-width="0.5757224189496134" fill="None" d="M136.21875 113.53125 C 135.7875 111.7125, 135.225 110.9625, 133.81875 110.34375"></path><path stroke="Black" stroke-width="0.5757224189496134" fill="None" d="M134.1375 115.3125 C 134.325 113.17500000000001, 133.9875 112.6875, 132.6375 111.525"></path><path stroke="Black" stroke-width="0.5757224189496134" fill="None" d="M130.63125 114.95625000000001 C 130.03125 115.03125, 129.46875 115.03125, 129.20625 114.91874999999999"></path><path stroke="Black" stroke-width="0.5757224189496134" fill="None" d="M130.63125 116.08125000000001 C 129.5625 116.4375, 129 116.4375, 128.11875 115.93125"></path><path stroke="Black" stroke-width="0.5757224189496134" fill="None" d="M138.88125 129.99375 C 140.25 126.9375, 140.0625 124.875, 139.3875 123.0375"></path><path stroke="Black" stroke-width="0.5757224189496134" fill="None" d="M137.04375 129.99375 C 138 126.75, 138 125.625, 137.53125 123.46875"></path><path stroke="Black" stroke-width="0.5757224189496134" fill="None" d="M134.68125 129.99375 C 135.9375 126.9375, 135.9375 125.4375, 135.39375 123.35624999999999"></path><path stroke="Black" stroke-width="0.5757224189496134" fill="None" d="M132.84375 130.48125 C 133.875 126.375, 133.875 124.875, 133.5375 122.9625"></path><path stroke="Black" stroke-width="0.5757224189496134" fill="None" d="M142.59375 117.91874999999999 C 142.5375 117.15, 142.5375 116.775, 142.5375 116.2875"></path><path stroke="Black" stroke-width="0.5757224189496134" fill="None" d="M142.59375 117.91874999999999 C 143.775 117.15, 144.7125 116.2125, 145.6125 114.9"></path><path stroke="Black" stroke-width="0.5757224189496134" fill="None" d="M145.6125 114.9 C 144.88125 114.43125, 143.625 115.42500000000001, 142.5375 116.2875"></path><path stroke="Black" stroke-width="0.5757224189496134" fill="None" d="M142.275 115.35 C 142.125 114.75, 141.9375 114, 141.84375 113.64375000000001"></path><path stroke="Black" stroke-width="0.5757224189496134" fill="None" d="M142.275 115.35 C 144.09375 114.28125, 144.375 114, 144.99375 113.30625"></path><path stroke="Black" stroke-width="0.5757224189496134" fill="None" d="M144.99375 113.30625 C 143.53125 113.34375, 142.65 113.4, 141.84375 113.64375000000001"></path><path stroke="Black" stroke-width="0.5757224189496134" fill="None" d="M115.9125 120.26249999999999 C 120.84375 130.59375, 120.225 132.6, 114.50625 145.06875"></path><path stroke="Black" stroke-width="0.5757224189496134" fill="None" d="M120.075 141.225 C 116.5125 143.8875, 114.825 146.1, 112.5 150"></path><path stroke="Black" stroke-width="0.5757224189496134" fill="None" d="M121.875 131.25 C 120.6375 134.5875, 120.3 137.25, 120.075 141.225"></path><path stroke="Black" stroke-width="0.5757224189496134" fill="None" d="M131.25 131.25 C 127.125 131.25, 124.6875 131.25, 121.875 131.25"></path><path stroke="Black" stroke-width="0.5757224189496134" fill="None" d="M131.25 121.875 C 131.25 125.625, 131.25 127.875, 131.25 131.25"></path><path stroke="Black" stroke-width="0.5757224189496134" fill="None" d="M131.25 121.875 C 127.9125 120.63749999999999, 125.25 120.30000000000001, 121.275 120.07499999999999"></path><path stroke="Black" stroke-width="0.5757224189496134" fill="None" d="M121.275 120.07499999999999 C 123.5625 125.625, 123.5625 126.5625, 121.875 131.25"></path><path stroke="Black" stroke-width="0.5757224189496134" fill="None" d="M121.275 120.07499999999999 C 118.6125 116.51249999999999, 116.4 114.82499999999999, 112.5 112.5"></path><path stroke="Black" stroke-width="0.5757224189496134" fill="None" d="M112.5 112.5 C 111.7125 115.61250000000001, 111.45 117.5625, 111.9 120.67500000000001"></path><path stroke="Black" stroke-width="0.5757224189496134" fill="None" d="M111.9 120.67500000000001 C 112.1625 125.9625, 116.775 125.475, 117.1125 131.25"></path><path stroke="Black" stroke-width="0.5757224189496134" fill="None" d="M117.1125 131.25 C 117.1875 132.1875, 117.1875 134.0625, 117.1875 135.9375"></path><path stroke="Black" stroke-width="0.5757224189496134" fill="None" d="M117.1875 135.9375 C 116.1375 138.225, 114.975 139.725, 113.1 141.825"></path><path stroke="Black" stroke-width="0.5757224189496134" fill="None" d="M113.1 141.825 C 113.55 144.9375, 113.2875 146.8875, 112.5 150"></path><path stroke="Black" stroke-width="0.5757224189496134" fill="None" d="M111.9 120.67500000000001 C 110.025 122.775, 108.8625 124.275, 107.8125 126.5625"></path><path stroke="Black" stroke-width="0.5757224189496134" fill="None" d="M107.8125 126.5625 C 110.15625 128.90625, 111.09375 129.84375, 112.5 131.25"></path><path stroke="Black" stroke-width="0.5757224189496134" fill="None" d="M112.5 131.25 C 114 131.25, 115.875 131.25, 117.1125 131.25"></path><path stroke="Black" stroke-width="0.5757224189496134" fill="None" d="M112.03125 123.84375 C 110.4375 124.61250000000001, 109.65 125.625, 109.14375 127.40625"></path><path stroke="Black" stroke-width="0.5757224189496134" fill="None" d="M113.53125 126.28125 C 111.7125 126.7125, 110.9625 127.275, 110.34375 128.68125"></path><path stroke="Black" stroke-width="0.5757224189496134" fill="None" d="M115.3125 128.3625 C 113.175 128.175, 112.6875 128.5125, 111.525 129.8625"></path><path stroke="Black" stroke-width="0.5757224189496134" fill="None" d="M114.95625 131.86875 C 115.03125 132.46875, 115.03125 133.03125, 114.91875 133.29375"></path><path stroke="Black" stroke-width="0.5757224189496134" fill="None" d="M116.08125 131.86875 C 116.4375 132.9375, 116.4375 133.5, 115.93125 134.38125"></path><path stroke="Black" stroke-width="0.5757224189496134" fill="None" d="M129.99375 123.61875 C 126.9375 122.25, 124.875 122.4375, 123.0375 123.11250000000001"></path><path stroke="Black" stroke-width="0.5757224189496134" fill="None" d="M129.99375 125.45625000000001 C 126.75 124.5, 125.625 124.5, 123.46875 124.96875"></path><path stroke="Black" stroke-width="0.5757224189496134" fill="None" d="M129.99375 127.81875 C 126.9375 126.5625, 125.4375 126.5625, 123.35625 127.10624999999999"></path><path stroke="Black" stroke-width="0.5757224189496134" fill="None" d="M130.48125 129.65625 C 126.375 128.625, 124.875 128.625, 122.9625 128.9625"></path><path stroke="Black" stroke-width="0.5757224189496134" fill="None" d="M117.91875 119.90625 C 117.15 119.9625, 116.775 119.9625, 116.2875 119.9625"></path><path stroke="Black" stroke-width="0.5757224189496134" fill="None" d="M117.91875 119.90625 C 117.15 118.725, 116.2125 117.7875, 114.9 116.88749999999999"></path><path stroke="Black" stroke-width="0.5757224189496134" fill="None" d="M114.9 116.88749999999999 C 114.43125 117.61875, 115.425 118.875, 116.2875 119.9625"></path><path stroke="Black" stroke-width="0.5757224189496134" fill="None" d="M115.35 120.225 C 114.75 120.375, 114 120.5625, 113.64375 120.65625"></path><path stroke="Black" stroke-width="0.5757224189496134" fill="None" d="M115.35 120.225 C 114.28125 118.40625, 114 118.125, 113.30625 117.50625"></path><path stroke="Black" stroke-width="0.5757224189496134" fill="None" d="M113.30625 117.50625 C 113.34375 118.96875, 113.4 119.85, 113.64375 120.65625"></path><path stroke="Black" stroke-width="0.5757224189496134" fill="None" d="M120.2625 146.5875 C 130.59375 141.65625, 132.6 142.275, 145.06875 147.99375"></path><path stroke="Black" stroke-width="0.5757224189496134" fill="None" d="M141.225 142.425 C 143.8875 145.9875, 146.1 147.675, 150 150"></path><path stroke="Black" stroke-width="0.5757224189496134" fill="None" d="M131.25 140.625 C 134.5875 141.8625, 137.25 142.2, 141.225 142.425"></path><path stroke="Black" stroke-width="0.5757224189496134" fill="None" d="M131.25 131.25 C 131.25 135.375, 131.25 137.8125, 131.25 140.625"></path><path stroke="Black" stroke-width="0.5757224189496134" fill="None" d="M121.875 131.25 C 125.625 131.25, 127.875 131.25, 131.25 131.25"></path><path stroke="Black" stroke-width="0.5757224189496134" fill="None" d="M121.875 131.25 C 120.6375 134.5875, 120.3 137.25, 120.075 141.225"></path><path stroke="Black" stroke-width="0.5757224189496134" fill="None" d="M120.075 141.225 C 125.625 138.9375, 126.5625 138.9375, 131.25 140.625"></path><path stroke="Black" stroke-width="0.5757224189496134" fill="None" d="M120.075 141.225 C 116.5125 143.8875, 114.825 146.1, 112.5 150"></path><path stroke="Black" stroke-width="0.5757224189496134" fill="None" d="M112.5 150 C 115.6125 150.7875, 117.5625 151.05, 120.675 150.6"></path><path stroke="Black" stroke-width="0.5757224189496134" fill="None" d="M120.675 150.6 C 125.9625 150.3375, 125.475 145.725, 131.25 145.3875"></path><path stroke="Black" stroke-width="0.5757224189496134" fill="None" d="M131.25 145.3875 C 132.1875 145.3125, 134.0625 145.3125, 135.9375 145.3125"></path><path stroke="Black" stroke-width="0.5757224189496134" fill="None" d="M135.9375 145.3125 C 138.225 146.3625, 139.725 147.525, 141.825 149.4"></path><path stroke="Black" stroke-width="0.5757224189496134" fill="None" d="M141.825 149.4 C 144.9375 148.95, 146.8875 149.2125, 150 150"></path><path stroke="Black" stroke-width="0.5757224189496134" fill="None" d="M120.675 150.6 C 122.775 152.475, 124.275 153.6375, 126.5625 154.6875"></path><path stroke="Black" stroke-width="0.5757224189496134" fill="None" d="M126.5625 154.6875 C 128.90625 152.34375, 129.84375 151.40625, 131.25 150"></path><path stroke="Black" stroke-width="0.5757224189496134" fill="None" d="M131.25 150 C 131.25 148.5, 131.25 146.625, 131.25 145.3875"></path><path stroke="Black" stroke-width="0.5757224189496134" fill="None" d="M123.84375 150.46875 C 124.6125 152.0625, 125.625 152.85, 127.40625 153.35625"></path><path stroke="Black" stroke-width="0.5757224189496134" fill="None" d="M126.28125 148.96875 C 126.7125 150.7875, 127.275 151.5375, 128.68125 152.15625"></path><path stroke="Black" stroke-width="0.5757224189496134" fill="None" d="M128.3625 147.1875 C 128.175 149.325, 128.5125 149.8125, 129.8625 150.975"></path><path stroke="Black" stroke-width="0.5757224189496134" fill="None" d="M131.86875 147.54375 C 132.46875 147.46875, 133.03125 147.46875, 133.29375 147.58125"></path><path stroke="Black" stroke-width="0.5757224189496134" fill="None" d="M131.86875 146.41875 C 132.9375 146.0625, 133.5 146.0625, 134.38125 146.56875"></path><path stroke="Black" stroke-width="0.5757224189496134" fill="None" d="M123.61875 132.50625 C 122.25 135.5625, 122.4375 137.625, 123.1125 139.4625"></path><path stroke="Black" stroke-width="0.5757224189496134" fill="None" d="M125.45625 132.50625 C 124.5 135.75, 124.5 136.875, 124.96875 139.03125"></path><path stroke="Black" stroke-width="0.5757224189496134" fill="None" d="M127.81875 132.50625 C 126.5625 135.5625, 126.5625 137.0625, 127.10625 139.14375"></path><path stroke="Black" stroke-width="0.5757224189496134" fill="None" d="M129.65625 132.01875 C 128.625 136.125, 128.625 137.625, 128.9625 139.5375"></path><path stroke="Black" stroke-width="0.5757224189496134" fill="None" d="M119.90625 144.58125 C 119.9625 145.35, 119.9625 145.725, 119.9625 146.2125"></path><path stroke="Black" stroke-width="0.5757224189496134" fill="None" d="M119.90625 144.58125 C 118.725 145.35, 117.7875 146.2875, 116.8875 147.6"></path><path stroke="Black" stroke-width="0.5757224189496134" fill="None" d="M116.8875 147.6 C 117.61875 148.06875, 118.875 147.075, 119.9625 146.2125"></path><path stroke="Black" stroke-width="0.5757224189496134" fill="None" d="M120.225 147.15 C 120.375 147.75, 120.5625 148.5, 120.65625 148.85625"></path><path stroke="Black" stroke-width="0.5757224189496134" fill="None" d="M120.225 147.15 C 118.40625 148.21875, 118.125 148.5, 117.50625 149.19375"></path><path stroke="Black" stroke-width="0.5757224189496134" fill="None" d="M117.50625 149.19375 C 118.96875 149.15625, 119.85 149.1, 120.65625 148.85625"></path><path stroke="Black" stroke-width="0.5757224189496134" fill="None" d="M146.5875 142.2375 C 141.65625 131.90625, 142.275 129.9, 147.99375 117.43125"></path><path stroke="Black" stroke-width="0.5757224189496134" fill="None" d="M142.425 121.275 C 145.9875 118.61250000000001, 147.675 116.4, 150 112.5"></path><path stroke="Black" stroke-width="0.5757224189496134" fill="None" d="M140.625 131.25 C 141.8625 127.9125, 142.2 125.25, 142.425 121.275"></path><path stroke="Black" stroke-width="0.5757224189496134" fill="None" d="M131.25 131.25 C 135.375 131.25, 137.8125 131.25, 140.625 131.25"></path><path stroke="Black" stroke-width="0.5757224189496134" fill="None" d="M131.25 140.625 C 131.25 136.875, 131.25 134.625, 131.25 131.25"></path><path stroke="Black" stroke-width="0.5757224189496134" fill="None" d="M131.25 140.625 C 134.5875 141.8625, 137.25 142.2, 141.225 142.425"></path><path stroke="Black" stroke-width="0.5757224189496134" fill="None" d="M141.225 142.425 C 138.9375 136.875, 138.9375 135.9375, 140.625 131.25"></path><path stroke="Black" stroke-width="0.5757224189496134" fill="None" d="M141.225 142.425 C 143.8875 145.9875, 146.1 147.675, 150 150"></path><path stroke="Black" stroke-width="0.5757224189496134" fill="None" d="M150 150 C 150.7875 146.8875, 151.05 144.9375, 150.6 141.825"></path><path stroke="Black" stroke-width="0.5757224189496134" fill="None" d="M150.6 141.825 C 150.3375 136.5375, 145.725 137.025, 145.3875 131.25"></path><path stroke="Black" stroke-width="0.5757224189496134" fill="None" d="M145.3875 131.25 C 145.3125 130.3125, 145.3125 128.4375, 145.3125 126.5625"></path><path stroke="Black" stroke-width="0.5757224189496134" fill="None" d="M145.3125 126.5625 C 146.3625 124.275, 147.525 122.775, 149.4 120.67500000000001"></path><path stroke="Black" stroke-width="0.5757224189496134" fill="None" d="M149.4 120.67500000000001 C 148.95 117.5625, 149.2125 115.61250000000001, 150 112.5"></path><path stroke="Black" stroke-width="0.5757224189496134" fill="None" d="M150.6 141.825 C 152.475 139.725, 153.6375 138.225, 154.6875 135.9375"></path><path stroke="Black" stroke-width="0.5757224189496134" fill="None" d="M154.6875 135.9375 C 152.34375 133.59375, 151.40625 132.65625, 150 131.25"></path><path stroke="Black" stroke-width="0.5757224189496134" fill="None" d="M150 131.25 C 148.5 131.25, 146.625 131.25, 145.3875 131.25"></path><path stroke="Black" stroke-width="0.5757224189496134" fill="None" d="M150.46875 138.65625 C 152.0625 137.8875, 152.85 136.875, 153.35625 135.09375"></path><path stroke="Black" stroke-width="0.5757224189496134" fill="None" d="M148.96875 136.21875 C 150.7875 135.7875, 151.5375 135.225, 152.15625 133.81875"></path><path stroke="Black" stroke-width="0.5757224189496134" fill="None" d="M147.1875 134.1375 C 149.325 134.325, 149.8125 133.9875, 150.975 132.6375"></path><path stroke="Black" stroke-width="0.5757224189496134" fill="None" d="M147.54375 130.63125 C 147.46875 130.03125, 147.46875 129.46875, 147.58125 129.20625"></path><path stroke="Black" stroke-width="0.5757224189496134" fill="None" d="M146.41875 130.63125 C 146.0625 129.5625, 146.0625 129, 146.56875 128.11875"></path><path stroke="Black" stroke-width="0.5757224189496134" fill="None" d="M132.50625 138.88125 C 135.5625 140.25, 137.625 140.0625, 139.4625 139.3875"></path><path stroke="Black" stroke-width="0.5757224189496134" fill="None" d="M132.50625 137.04375 C 135.75 138, 136.875 138, 139.03125 137.53125"></path><path stroke="Black" stroke-width="0.5757224189496134" fill="None" d="M132.50625 134.68125 C 135.5625 135.9375, 137.0625 135.9375, 139.14375 135.39375"></path><path stroke="Black" stroke-width="0.5757224189496134" fill="None" d="M132.01875 132.84375 C 136.125 133.875, 137.625 133.875, 139.5375 133.5375"></path><path stroke="Black" stroke-width="0.5757224189496134" fill="None" d="M144.58125 142.59375 C 145.35 142.5375, 145.725 142.5375, 146.2125 142.5375"></path><path stroke="Black" stroke-width="0.5757224189496134" fill="None" d="M144.58125 142.59375 C 145.35 143.775, 146.2875 144.7125, 147.6 145.6125"></path><path stroke="Black" stroke-width="0.5757224189496134" fill="None" d="M147.6 145.6125 C 148.06875 144.88125, 147.075 143.625, 146.2125 142.5375"></path><path stroke="Black" stroke-width="0.5757224189496134" fill="None" d="M147.15 142.275 C 147.75 142.125, 148.5 141.9375, 148.85625 141.84375"></path><path stroke="Black" stroke-width="0.5757224189496134" fill="None" d="M147.15 142.275 C 148.21875 144.09375, 148.5 144.375, 149.19375 144.99375"></path><path stroke="Black" stroke-width="0.5757224189496134" fill="None" d="M149.19375 144.99375 C 149.15625 143.53125, 149.1 142.65, 148.85625 141.84375"></path><path stroke="Black" stroke-width="0.6846531968814576" fill="None" d="M161.175 145.65 C 176.4375 140.25, 177.825 137.625, 184.575 119.4375"></path><path stroke="Black" stroke-width="0.6846531968814576" fill="None" d="M186.3 128.85 C 185.4 122.625, 185.925 118.725, 187.5 112.5"></path><path stroke="Black" stroke-width="0.6846531968814576" fill="None" d="M178.125 140.625 C 180.225 136.05, 182.55 133.05, 186.3 128.85"></path><path stroke="Black" stroke-width="0.6846531968814576" fill="None" d="M187.5 150 C 183.375 145.875, 180.9375 143.4375, 178.125 140.625"></path><path stroke="Black" stroke-width="0.6846531968814576" fill="None" d="M178.125 159.375 C 181.875 155.625, 184.125 153.375, 187.5 150"></path><path stroke="Black" stroke-width="0.6846531968814576" fill="None" d="M178.125 159.375 C 173.55 157.275, 170.55 154.95, 166.35 151.2"></path><path stroke="Black" stroke-width="0.6846531968814576" fill="None" d="M166.35 151.2 C 174.1875 147.9375, 175.125 147, 178.125 140.625"></path><path stroke="Black" stroke-width="0.6846531968814576" fill="None" d="M166.35 151.2 C 160.125 152.1, 156.225 151.575, 150 150"></path><path stroke="Black" stroke-width="0.6846531968814576" fill="None" d="M150 150 C 152.325 146.1, 154.0125 143.8875, 157.575 141.225"></path><path stroke="Black" stroke-width="0.6846531968814576" fill="None" d="M157.575 141.225 C 163.125 136.2, 167.25 141.3, 173.3625 135.8625"></path><path stroke="Black" stroke-width="0.6846531968814576" fill="None" d="M173.3625 135.8625 C 174.375 135, 176.25 133.125, 178.125 131.25"></path><path stroke="Black" stroke-width="0.6846531968814576" fill="None" d="M178.125 131.25 C 179.3625 127.9125, 179.7 125.25, 179.925 121.275"></path><path stroke="Black" stroke-width="0.6846531968814576" fill="None" d="M179.925 121.275 C 183.4875 118.61250000000001, 185.175 116.4, 187.5 112.5"></path><path stroke="Black" stroke-width="0.6846531968814576" fill="None" d="M157.575 141.225 C 157.8 137.25, 158.1375 134.5875, 159.375 131.25"></path><path stroke="Black" stroke-width="0.6846531968814576" fill="None" d="M159.375 131.25 C 164.0625 131.25, 165.9375 131.25, 168.75 131.25"></path><path stroke="Black" stroke-width="0.6846531968814576" fill="None" d="M168.75 131.25 C 170.25 132.75, 172.125 134.625, 173.3625 135.8625"></path><path stroke="Black" stroke-width="0.6846531968814576" fill="None" d="M160.875 138.1875 C 160.05 135.825, 160.275 134.025, 161.55 131.7375"></path><path stroke="Black" stroke-width="0.6846531968814576" fill="None" d="M164.8125 137.25 C 163.425 135, 163.2375 133.6875, 164.025 131.6625"></path><path stroke="Black" stroke-width="0.6846531968814576" fill="None" d="M168.675 136.95 C 166.35 135, 166.2 134.175, 166.3875 131.6625"></path><path stroke="Black" stroke-width="0.6846531968814576" fill="None" d="M171.825 133.0875 C 172.5 132.5625, 173.0625 132, 173.2125 131.625"></path><path stroke="Black" stroke-width="0.6846531968814576" fill="None" d="M172.95 134.2125 C 174.375 133.5, 174.9375 132.9375, 175.3125 131.55"></path><path stroke="Black" stroke-width="0.6846531968814576" fill="None" d="M178.6125 156.375 C 174.1875 154.6875, 172.3125 152.4375, 171.15 149.925"></path><path stroke="Black" stroke-width="0.6846531968814576" fill="None" d="M180.45 154.5375 C 176.25 152.25, 175.125 151.125, 173.4375 148.5"></path><path stroke="Black" stroke-width="0.6846531968814576" fill="None" d="M182.8125 152.175 C 178.5 150.375, 177 148.875, 175.4625 146.25"></path><path stroke="Black" stroke-width="0.6846531968814576" fill="None" d="M185.1375 150.825 C 180 147.75, 178.5 146.25, 176.925 144"></path><path stroke="Black" stroke-width="0.6846531968814576" fill="None" d="M162.825 148.0125 C 162.1125 147.1875, 161.7375 146.8125, 161.25 146.325"></path><path stroke="Black" stroke-width="0.6846531968814576" fill="None" d="M162.825 148.0125 C 160.875 148.425, 159 148.425, 156.7875 148.0125"></path><path stroke="Black" stroke-width="0.6846531968814576" fill="None" d="M156.7875 148.0125 C 157.05 146.8125, 159.3 146.55, 161.25 146.325"></path><path stroke="Black" stroke-width="0.6846531968814576" fill="None" d="M160.575 145.125 C 160.125 144.375, 159.5625 143.4375, 159.3 142.9875"></path><path stroke="Black" stroke-width="0.6846531968814576" fill="None" d="M160.575 145.125 C 157.6875 145.875, 157.125 145.875, 155.8125 145.8"></path><path stroke="Black" stroke-width="0.6846531968814576" fill="None" d="M155.8125 145.8 C 157.3125 144.375, 158.25 143.55, 159.3 142.9875"></path><path stroke="Black" stroke-width="0.5757224189496134" fill="None" d="M153.4125 120.26249999999999 C 158.34375 130.59375, 157.725 132.6, 152.00625 145.06875"></path><path stroke="Black" stroke-width="0.5757224189496134" fill="None" d="M157.575 141.225 C 154.0125 143.8875, 152.325 146.1, 150 150"></path><path stroke="Black" stroke-width="0.5757224189496134" fill="None" d="M159.375 131.25 C 158.1375 134.5875, 157.8 137.25, 157.575 141.225"></path><path stroke="Black" stroke-width="0.5757224189496134" fill="None" d="M168.75 131.25 C 164.625 131.25, 162.1875 131.25, 159.375 131.25"></path><path stroke="Black" stroke-width="0.5757224189496134" fill="None" d="M168.75 121.875 C 168.75 125.625, 168.75 127.875, 168.75 131.25"></path><path stroke="Black" stroke-width="0.5757224189496134" fill="None" d="M168.75 121.875 C 165.4125 120.63749999999999, 162.75 120.30000000000001, 158.775 120.07499999999999"></path><path stroke="Black" stroke-width="0.5757224189496134" fill="None" d="M158.775 120.07499999999999 C 161.0625 125.625, 161.0625 126.5625, 159.375 131.25"></path><path stroke="Black" stroke-width="0.5757224189496134" fill="None" d="M158.775 120.07499999999999 C 156.1125 116.51249999999999, 153.9 114.82499999999999, 150 112.5"></path><path stroke="Black" stroke-width="0.5757224189496134" fill="None" d="M150 112.5 C 149.2125 115.61250000000001, 148.95 117.5625, 149.4 120.67500000000001"></path><path stroke="Black" stroke-width="0.5757224189496134" fill="None" d="M149.4 120.67500000000001 C 149.6625 125.9625, 154.275 125.475, 154.6125 131.25"></path><path stroke="Black" stroke-width="0.5757224189496134" fill="None" d="M154.6125 131.25 C 154.6875 132.1875, 154.6875 134.0625, 154.6875 135.9375"></path><path stroke="Black" stroke-width="0.5757224189496134" fill="None" d="M154.6875 135.9375 C 153.6375 138.225, 152.475 139.725, 150.6 141.825"></path><path stroke="Black" stroke-width="0.5757224189496134" fill="None" d="M150.6 141.825 C 151.05 144.9375, 150.7875 146.8875, 150 150"></path><path stroke="Black" stroke-width="0.5757224189496134" fill="None" d="M149.4 120.67500000000001 C 147.525 122.775, 146.3625 124.275, 145.3125 126.5625"></path><path stroke="Black" stroke-width="0.5757224189496134" fill="None" d="M145.3125 126.5625 C 147.65625 128.90625, 148.59375 129.84375, 150 131.25"></path><path stroke="Black" stroke-width="0.5757224189496134" fill="None" d="M150 131.25 C 151.5 131.25, 153.375 131.25, 154.6125 131.25"></path><path stroke="Black" stroke-width="0.5757224189496134" fill="None" d="M149.53125 123.84375 C 147.9375 124.61250000000001, 147.15 125.625, 146.64375 127.40625"></path><path stroke="Black" stroke-width="0.5757224189496134" fill="None" d="M151.03125 126.28125 C 149.2125 126.7125, 148.4625 127.275, 147.84375 128.68125"></path><path stroke="Black" stroke-width="0.5757224189496134" fill="None" d="M152.8125 128.3625 C 150.675 128.175, 150.1875 128.5125, 149.025 129.8625"></path><path stroke="Black" stroke-width="0.5757224189496134" fill="None" d="M152.45625 131.86875 C 152.53125 132.46875, 152.53125 133.03125, 152.41875 133.29375"></path><path stroke="Black" stroke-width="0.5757224189496134" fill="None" d="M153.58125 131.86875 C 153.9375 132.9375, 153.9375 133.5, 153.43125 134.38125"></path><path stroke="Black" stroke-width="0.5757224189496134" fill="None" d="M167.49375 123.61875 C 164.4375 122.25, 162.375 122.4375, 160.5375 123.11250000000001"></path><path stroke="Black" stroke-width="0.5757224189496134" fill="None" d="M167.49375 125.45625000000001 C 164.25 124.5, 163.125 124.5, 160.96875 124.96875"></path><path stroke="Black" stroke-width="0.5757224189496134" fill="None" d="M167.49375 127.81875 C 164.4375 126.5625, 162.9375 126.5625, 160.85625 127.10624999999999"></path><path stroke="Black" stroke-width="0.5757224189496134" fill="None" d="M167.98125 129.65625 C 163.875 128.625, 162.375 128.625, 160.4625 128.9625"></path><path stroke="Black" stroke-width="0.5757224189496134" fill="None" d="M155.41875 119.90625 C 154.65 119.9625, 154.275 119.9625, 153.7875 119.9625"></path><path stroke="Black" stroke-width="0.5757224189496134" fill="None" d="M155.41875 119.90625 C 154.65 118.725, 153.7125 117.7875, 152.4 116.88749999999999"></path><path stroke="Black" stroke-width="0.5757224189496134" fill="None" d="M152.4 116.88749999999999 C 151.93125 117.61875, 152.925 118.875, 153.7875 119.9625"></path><path stroke="Black" stroke-width="0.5757224189496134" fill="None" d="M152.85 120.225 C 152.25 120.375, 151.5 120.5625, 151.14375 120.65625"></path><path stroke="Black" stroke-width="0.5757224189496134" fill="None" d="M152.85 120.225 C 151.78125 118.40625, 151.5 118.125, 150.80625 117.50625"></path><path stroke="Black" stroke-width="0.5757224189496134" fill="None" d="M150.80625 117.50625 C 150.84375 118.96875, 150.9 119.85, 151.14375 120.65625"></path><path stroke="Black" stroke-width="0.5757224189496134" fill="None" d="M179.7375 115.9125 C 169.40625 120.84375, 167.4 120.225, 154.93125 114.50625"></path><path stroke="Black" stroke-width="0.5757224189496134" fill="None" d="M158.775 120.07499999999999 C 156.1125 116.51249999999999, 153.9 114.82499999999999, 150 112.5"></path><path stroke="Black" stroke-width="0.5757224189496134" fill="None" d="M168.75 121.875 C 165.4125 120.63749999999999, 162.75 120.30000000000001, 158.775 120.07499999999999"></path><path stroke="Black" stroke-width="0.5757224189496134" fill="None" d="M168.75 131.25 C 168.75 127.125, 168.75 124.6875, 168.75 121.875"></path><path stroke="Black" stroke-width="0.5757224189496134" fill="None" d="M178.125 131.25 C 174.375 131.25, 172.125 131.25, 168.75 131.25"></path><path stroke="Black" stroke-width="0.5757224189496134" fill="None" d="M178.125 131.25 C 179.3625 127.9125, 179.7 125.25, 179.925 121.275"></path><path stroke="Black" stroke-width="0.5757224189496134" fill="None" d="M179.925 121.275 C 174.375 123.5625, 173.4375 123.5625, 168.75 121.875"></path><path stroke="Black" stroke-width="0.5757224189496134" fill="None" d="M179.925 121.275 C 183.4875 118.61250000000001, 185.175 116.4, 187.5 112.5"></path><path stroke="Black" stroke-width="0.5757224189496134" fill="None" d="M187.5 112.5 C 184.3875 111.7125, 182.4375 111.44999999999999, 179.325 111.9"></path><path stroke="Black" stroke-width="0.5757224189496134" fill="None" d="M179.325 111.9 C 174.0375 112.1625, 174.525 116.775, 168.75 117.11250000000001"></path><path stroke="Black" stroke-width="0.5757224189496134" fill="None" d="M168.75 117.11250000000001 C 167.8125 117.1875, 165.9375 117.1875, 164.0625 117.1875"></path><path stroke="Black" stroke-width="0.5757224189496134" fill="None" d="M164.0625 117.1875 C 161.775 116.13749999999999, 160.275 114.975, 158.175 113.1"></path><path stroke="Black" stroke-width="0.5757224189496134" fill="None" d="M158.175 113.1 C 155.0625 113.55000000000001, 153.1125 113.2875, 150 112.5"></path><path stroke="Black" stroke-width="0.5757224189496134" fill="None" d="M179.325 111.9 C 177.225 110.025, 175.725 108.86250000000001, 173.4375 107.8125"></path><path stroke="Black" stroke-width="0.5757224189496134" fill="None" d="M173.4375 107.8125 C 171.09375 110.15625, 170.15625 111.09375, 168.75 112.5"></path><path stroke="Black" stroke-width="0.5757224189496134" fill="None" d="M168.75 112.5 C 168.75 114, 168.75 115.875, 168.75 117.11250000000001"></path><path stroke="Black" stroke-width="0.5757224189496134" fill="None" d="M176.15625 112.03125 C 175.3875 110.4375, 174.375 109.65, 172.59375 109.14375000000001"></path><path stroke="Black" stroke-width="0.5757224189496134" fill="None" d="M173.71875 113.53125 C 173.2875 111.7125, 172.725 110.9625, 171.31875 110.34375"></path><path stroke="Black" stroke-width="0.5757224189496134" fill="None" d="M171.6375 115.3125 C 171.825 113.17500000000001, 171.4875 112.6875, 170.1375 111.525"></path><path stroke="Black" stroke-width="0.5757224189496134" fill="None" d="M168.13125 114.95625000000001 C 167.53125 115.03125, 166.96875 115.03125, 166.70625 114.91874999999999"></path><path stroke="Black" stroke-width="0.5757224189496134" fill="None" d="M168.13125 116.08125000000001 C 167.0625 116.4375, 166.5 116.4375, 165.61875 115.93125"></path><path stroke="Black" stroke-width="0.5757224189496134" fill="None" d="M176.38125 129.99375 C 177.75 126.9375, 177.5625 124.875, 176.8875 123.0375"></path><path stroke="Black" stroke-width="0.5757224189496134" fill="None" d="M174.54375 129.99375 C 175.5 126.75, 175.5 125.625, 175.03125 123.46875"></path><path stroke="Black" stroke-width="0.5757224189496134" fill="None" d="M172.18125 129.99375 C 173.4375 126.9375, 173.4375 125.4375, 172.89375 123.35624999999999"></path><path stroke="Black" stroke-width="0.5757224189496134" fill="None" d="M170.34375 130.48125 C 171.375 126.375, 171.375 124.875, 171.0375 122.9625"></path><path stroke="Black" stroke-width="0.5757224189496134" fill="None" d="M180.09375 117.91874999999999 C 180.0375 117.15, 180.0375 116.775, 180.0375 116.2875"></path><path stroke="Black" stroke-width="0.5757224189496134" fill="None" d="M180.09375 117.91874999999999 C 181.275 117.15, 182.2125 116.2125, 183.1125 114.9"></path><path stroke="Black" stroke-width="0.5757224189496134" fill="None" d="M183.1125 114.9 C 182.38125 114.43125, 181.125 115.42500000000001, 180.0375 116.2875"></path><path stroke="Black" stroke-width="0.5757224189496134" fill="None" d="M179.775 115.35 C 179.625 114.75, 179.4375 114, 179.34375 113.64375000000001"></path><path stroke="Black" stroke-width="0.5757224189496134" fill="None" d="M179.775 115.35 C 181.59375 114.28125, 181.875 114, 182.49375 113.30625"></path><path stroke="Black" stroke-width="0.5757224189496134" fill="None" d="M182.49375 113.30625 C 181.03125 113.34375, 180.15 113.4, 179.34375 113.64375000000001"></path><path stroke="Black" stroke-width="0.6846531968814576" fill="None" d="M191.85 123.67500000000001 C 197.25 138.9375, 199.875 140.325, 218.0625 147.075"></path><path stroke="Black" stroke-width="0.6846531968814576" fill="None" d="M208.65 148.8 C 214.875 147.9, 218.775 148.425, 225 150"></path><path stroke="Black" stroke-width="0.6846531968814576" fill="None" d="M196.875 140.625 C 201.45 142.725, 204.45 145.05, 208.65 148.8"></path><path stroke="Black" stroke-width="0.6846531968814576" fill="None" d="M187.5 150 C 191.625 145.875, 194.0625 143.4375, 196.875 140.625"></path><path stroke="Black" stroke-width="0.6846531968814576" fill="None" d="M178.125 140.625 C 181.875 144.375, 184.125 146.625, 187.5 150"></path><path stroke="Black" stroke-width="0.6846531968814576" fill="None" d="M178.125 140.625 C 180.225 136.05, 182.55 133.05, 186.3 128.85"></path><path stroke="Black" stroke-width="0.6846531968814576" fill="None" d="M186.3 128.85 C 189.5625 136.6875, 190.5 137.625, 196.875 140.625"></path><path stroke="Black" stroke-width="0.6846531968814576" fill="None" d="M186.3 128.85 C 185.4 122.625, 185.925 118.725, 187.5 112.5"></path><path stroke="Black" stroke-width="0.6846531968814576" fill="None" d="M187.5 112.5 C 191.4 114.82499999999999, 193.6125 116.51249999999999, 196.275 120.07499999999999"></path><path stroke="Black" stroke-width="0.6846531968814576" fill="None" d="M196.275 120.07499999999999 C 201.3 125.625, 196.2 129.75, 201.6375 135.8625"></path><path stroke="Black" stroke-width="0.6846531968814576" fill="None" d="M201.6375 135.8625 C 202.5 136.875, 204.375 138.75, 206.25 140.625"></path><path stroke="Black" stroke-width="0.6846531968814576" fill="None" d="M206.25 140.625 C 209.5875 141.8625, 212.25 142.2, 216.225 142.425"></path><path stroke="Black" stroke-width="0.6846531968814576" fill="None" d="M216.225 142.425 C 218.8875 145.9875, 221.1 147.675, 225 150"></path><path stroke="Black" stroke-width="0.6846531968814576" fill="None" d="M196.275 120.07499999999999 C 200.25 120.30000000000001, 202.9125 120.63749999999999, 206.25 121.875"></path><path stroke="Black" stroke-width="0.6846531968814576" fill="None" d="M206.25 121.875 C 206.25 126.5625, 206.25 128.4375, 206.25 131.25"></path><path stroke="Black" stroke-width="0.6846531968814576" fill="None" d="M206.25 131.25 C 204.75 132.75, 202.875 134.625, 201.6375 135.8625"></path><path stroke="Black" stroke-width="0.6846531968814576" fill="None" d="M199.3125 123.375 C 201.675 122.55000000000001, 203.475 122.775, 205.7625 124.05000000000001"></path><path stroke="Black" stroke-width="0.6846531968814576" fill="None" d="M200.25 127.3125 C 202.5 125.92500000000001, 203.8125 125.73750000000001, 205.8375 126.525"></path><path stroke="Black" stroke-width="0.6846531968814576" fill="None" d="M200.55 131.175 C 202.5 128.85, 203.325 128.7, 205.8375 128.8875"></path><path stroke="Black" stroke-width="0.6846531968814576" fill="None" d="M204.4125 134.325 C 204.9375 135, 205.5 135.5625, 205.875 135.7125"></path><path stroke="Black" stroke-width="0.6846531968814576" fill="None" d="M203.2875 135.45 C 204 136.875, 204.5625 137.4375, 205.95 137.8125"></path><path stroke="Black" stroke-width="0.6846531968814576" fill="None" d="M181.125 141.1125 C 182.8125 136.6875, 185.0625 134.8125, 187.575 133.65"></path><path stroke="Black" stroke-width="0.6846531968814576" fill="None" d="M182.9625 142.95 C 185.25 138.75, 186.375 137.625, 189 135.9375"></path><path stroke="Black" stroke-width="0.6846531968814576" fill="None" d="M185.325 145.3125 C 187.125 141, 188.625 139.5, 191.25 137.9625"></path><path stroke="Black" stroke-width="0.6846531968814576" fill="None" d="M186.675 147.6375 C 189.75 142.5, 191.25 141, 193.5 139.425"></path><path stroke="Black" stroke-width="0.6846531968814576" fill="None" d="M189.4875 125.32499999999999 C 190.3125 124.61250000000001, 190.6875 124.23750000000001, 191.175 123.75"></path><path stroke="Black" stroke-width="0.6846531968814576" fill="None" d="M189.4875 125.32499999999999 C 189.075 123.375, 189.075 121.5, 189.4875 119.2875"></path><path stroke="Black" stroke-width="0.6846531968814576" fill="None" d="M189.4875 119.2875 C 190.6875 119.55000000000001, 190.95 121.80000000000001, 191.175 123.75"></path><path stroke="Black" stroke-width="0.6846531968814576" fill="None" d="M192.375 123.07499999999999 C 193.125 122.625, 194.0625 122.0625, 194.5125 121.80000000000001"></path><path stroke="Black" stroke-width="0.6846531968814576" fill="None" d="M192.375 123.07499999999999 C 191.625 120.1875, 191.625 119.625, 191.7 118.3125"></path><path stroke="Black" stroke-width="0.6846531968814576" fill="None" d="M191.7 118.3125 C 193.125 119.8125, 193.95 120.75, 194.5125 121.80000000000001"></path><path stroke="Black" stroke-width="0.5757224189496134" fill="None" d="M217.2375 115.9125 C 206.90625 120.84375, 204.9 120.225, 192.43125 114.50625"></path><path stroke="Black" stroke-width="0.5757224189496134" fill="None" d="M196.275 120.07499999999999 C 193.6125 116.51249999999999, 191.4 114.82499999999999, 187.5 112.5"></path><path stroke="Black" stroke-width="0.5757224189496134" fill="None" d="M206.25 121.875 C 202.9125 120.63749999999999, 200.25 120.30000000000001, 196.275 120.07499999999999"></path><path stroke="Black" stroke-width="0.5757224189496134" fill="None" d="M206.25 131.25 C 206.25 127.125, 206.25 124.6875, 206.25 121.875"></path><path stroke="Black" stroke-width="0.5757224189496134" fill="None" d="M215.625 131.25 C 211.875 131.25, 209.625 131.25, 206.25 131.25"></path><path stroke="Black" stroke-width="0.5757224189496134" fill="None" d="M215.625 131.25 C 216.8625 127.9125, 217.2 125.25, 217.425 121.275"></path><path stroke="Black" stroke-width="0.5757224189496134" fill="None" d="M217.425 121.275 C 211.875 123.5625, 210.9375 123.5625, 206.25 121.875"></path><path stroke="Black" stroke-width="0.5757224189496134" fill="None" d="M217.425 121.275 C 220.9875 118.61250000000001, 222.675 116.4, 225 112.5"></path><path stroke="Black" stroke-width="0.5757224189496134" fill="None" d="M225 112.5 C 221.8875 111.7125, 219.9375 111.44999999999999, 216.825 111.9"></path><path stroke="Black" stroke-width="0.5757224189496134" fill="None" d="M216.825 111.9 C 211.5375 112.1625, 212.025 116.775, 206.25 117.11250000000001"></path><path stroke="Black" stroke-width="0.5757224189496134" fill="None" d="M206.25 117.11250000000001 C 205.3125 117.1875, 203.4375 117.1875, 201.5625 117.1875"></path><path stroke="Black" stroke-width="0.5757224189496134" fill="None" d="M201.5625 117.1875 C 199.275 116.13749999999999, 197.775 114.975, 195.675 113.1"></path><path stroke="Black" stroke-width="0.5757224189496134" fill="None" d="M195.675 113.1 C 192.5625 113.55000000000001, 190.6125 113.2875, 187.5 112.5"></path><path stroke="Black" stroke-width="0.5757224189496134" fill="None" d="M216.825 111.9 C 214.725 110.025, 213.225 108.86250000000001, 210.9375 107.8125"></path><path stroke="Black" stroke-width="0.5757224189496134" fill="None" d="M210.9375 107.8125 C 208.59375 110.15625, 207.65625 111.09375, 206.25 112.5"></path><path stroke="Black" stroke-width="0.5757224189496134" fill="None" d="M206.25 112.5 C 206.25 114, 206.25 115.875, 206.25 117.11250000000001"></path><path stroke="Black" stroke-width="0.5757224189496134" fill="None" d="M213.65625 112.03125 C 212.8875 110.4375, 211.875 109.65, 210.09375 109.14375000000001"></path><path stroke="Black" stroke-width="0.5757224189496134" fill="None" d="M211.21875 113.53125 C 210.7875 111.7125, 210.225 110.9625, 208.81875 110.34375"></path><path stroke="Black" stroke-width="0.5757224189496134" fill="None" d="M209.1375 115.3125 C 209.325 113.17500000000001, 208.9875 112.6875, 207.6375 111.525"></path><path stroke="Black" stroke-width="0.5757224189496134" fill="None" d="M205.63125 114.95625000000001 C 205.03125 115.03125, 204.46875 115.03125, 204.20625 114.91874999999999"></path><path stroke="Black" stroke-width="0.5757224189496134" fill="None" d="M205.63125 116.08125000000001 C 204.5625 116.4375, 204 116.4375, 203.11875 115.93125"></path><path stroke="Black" stroke-width="0.5757224189496134" fill="None" d="M213.88125 129.99375 C 215.25 126.9375, 215.0625 124.875, 214.3875 123.0375"></path><path stroke="Black" stroke-width="0.5757224189496134" fill="None" d="M212.04375 129.99375 C 213 126.75, 213 125.625, 212.53125 123.46875"></path><path stroke="Black" stroke-width="0.5757224189496134" fill="None" d="M209.68125 129.99375 C 210.9375 126.9375, 210.9375 125.4375, 210.39375 123.35624999999999"></path><path stroke="Black" stroke-width="0.5757224189496134" fill="None" d="M207.84375 130.48125 C 208.875 126.375, 208.875 124.875, 208.5375 122.9625"></path><path stroke="Black" stroke-width="0.5757224189496134" fill="None" d="M217.59375 117.91874999999999 C 217.5375 117.15, 217.5375 116.775, 217.5375 116.2875"></path><path stroke="Black" stroke-width="0.5757224189496134" fill="None" d="M217.59375 117.91874999999999 C 218.775 117.15, 219.7125 116.2125, 220.6125 114.9"></path><path stroke="Black" stroke-width="0.5757224189496134" fill="None" d="M220.6125 114.9 C 219.88125 114.43125, 218.625 115.42500000000001, 217.5375 116.2875"></path><path stroke="Black" stroke-width="0.5757224189496134" fill="None" d="M217.275 115.35 C 217.125 114.75, 216.9375 114, 216.84375 113.64375000000001"></path><path stroke="Black" stroke-width="0.5757224189496134" fill="None" d="M217.275 115.35 C 219.09375 114.28125, 219.375 114, 219.99375 113.30625"></path><path stroke="Black" stroke-width="0.5757224189496134" fill="None" d="M219.99375 113.30625 C 218.53125 113.34375, 217.65 113.4, 216.84375 113.64375000000001"></path><path stroke="Black" stroke-width="0.5757224189496134" fill="None" d="M221.5875 142.2375 C 216.65625 131.90625, 217.275 129.9, 222.99375 117.43125"></path><path stroke="Black" stroke-width="0.5757224189496134" fill="None" d="M217.425 121.275 C 220.9875 118.61250000000001, 222.675 116.4, 225 112.5"></path><path stroke="Black" stroke-width="0.5757224189496134" fill="None" d="M215.625 131.25 C 216.8625 127.9125, 217.2 125.25, 217.425 121.275"></path><path stroke="Black" stroke-width="0.5757224189496134" fill="None" d="M206.25 131.25 C 210.375 131.25, 212.8125 131.25, 215.625 131.25"></path><path stroke="Black" stroke-width="0.5757224189496134" fill="None" d="M206.25 140.625 C 206.25 136.875, 206.25 134.625, 206.25 131.25"></path><path stroke="Black" stroke-width="0.5757224189496134" fill="None" d="M206.25 140.625 C 209.5875 141.8625, 212.25 142.2, 216.225 142.425"></path><path stroke="Black" stroke-width="0.5757224189496134" fill="None" d="M216.225 142.425 C 213.9375 136.875, 213.9375 135.9375, 215.625 131.25"></path><path stroke="Black" stroke-width="0.5757224189496134" fill="None" d="M216.225 142.425 C 218.8875 145.9875, 221.1 147.675, 225 150"></path><path stroke="Black" stroke-width="0.5757224189496134" fill="None" d="M225 150 C 225.7875 146.8875, 226.05 144.9375, 225.6 141.825"></path><path stroke="Black" stroke-width="0.5757224189496134" fill="None" d="M225.6 141.825 C 225.3375 136.5375, 220.725 137.025, 220.3875 131.25"></path><path stroke="Black" stroke-width="0.5757224189496134" fill="None" d="M220.3875 131.25 C 220.3125 130.3125, 220.3125 128.4375, 220.3125 126.5625"></path><path stroke="Black" stroke-width="0.5757224189496134" fill="None" d="M220.3125 126.5625 C 221.3625 124.275, 222.525 122.775, 224.4 120.67500000000001"></path><path stroke="Black" stroke-width="0.5757224189496134" fill="None" d="M224.4 120.67500000000001 C 223.95 117.5625, 224.2125 115.61250000000001, 225 112.5"></path><path stroke="Black" stroke-width="0.5757224189496134" fill="None" d="M225.6 141.825 C 227.475 139.725, 228.6375 138.225, 229.6875 135.9375"></path><path stroke="Black" stroke-width="0.5757224189496134" fill="None" d="M229.6875 135.9375 C 227.34375 133.59375, 226.40625 132.65625, 225 131.25"></path><path stroke="Black" stroke-width="0.5757224189496134" fill="None" d="M225 131.25 C 223.5 131.25, 221.625 131.25, 220.3875 131.25"></path><path stroke="Black" stroke-width="0.5757224189496134" fill="None" d="M225.46875 138.65625 C 227.0625 137.8875, 227.85 136.875, 228.35625 135.09375"></path><path stroke="Black" stroke-width="0.5757224189496134" fill="None" d="M223.96875 136.21875 C 225.7875 135.7875, 226.5375 135.225, 227.15625 133.81875"></path><path stroke="Black" stroke-width="0.5757224189496134" fill="None" d="M222.1875 134.1375 C 224.325 134.325, 224.8125 133.9875, 225.975 132.6375"></path><path stroke="Black" stroke-width="0.5757224189496134" fill="None" d="M222.54375 130.63125 C 222.46875 130.03125, 222.46875 129.46875, 222.58125 129.20625"></path><path stroke="Black" stroke-width="0.5757224189496134" fill="None" d="M221.41875 130.63125 C 221.0625 129.5625, 221.0625 129, 221.56875 128.11875"></path><path stroke="Black" stroke-width="0.5757224189496134" fill="None" d="M207.50625 138.88125 C 210.5625 140.25, 212.625 140.0625, 214.4625 139.3875"></path><path stroke="Black" stroke-width="0.5757224189496134" fill="None" d="M207.50625 137.04375 C 210.75 138, 211.875 138, 214.03125 137.53125"></path><path stroke="Black" stroke-width="0.5757224189496134" fill="None" d="M207.50625 134.68125 C 210.5625 135.9375, 212.0625 135.9375, 214.14375 135.39375"></path><path stroke="Black" stroke-width="0.5757224189496134" fill="None" d="M207.01875 132.84375 C 211.125 133.875, 212.625 133.875, 214.5375 133.5375"></path><path stroke="Black" stroke-width="0.5757224189496134" fill="None" d="M219.58125 142.59375 C 220.35 142.5375, 220.725 142.5375, 221.2125 142.5375"></path><path stroke="Black" stroke-width="0.5757224189496134" fill="None" d="M219.58125 142.59375 C 220.35 143.775, 221.2875 144.7125, 222.6 145.6125"></path><path stroke="Black" stroke-width="0.5757224189496134" fill="None" d="M222.6 145.6125 C 223.06875 144.88125, 222.075 143.625, 221.2125 142.5375"></path><path stroke="Black" stroke-width="0.5757224189496134" fill="None" d="M222.15 142.275 C 222.75 142.125, 223.5 141.9375, 223.85625 141.84375"></path><path stroke="Black" stroke-width="0.5757224189496134" fill="None" d="M222.15 142.275 C 223.21875 144.09375, 223.5 144.375, 224.19375 144.99375"></path><path stroke="Black" stroke-width="0.5757224189496134" fill="None" d="M224.19375 144.99375 C 224.15625 143.53125, 224.1 142.65, 223.85625 141.84375"></path><path stroke="Black" stroke-width="0.6846531968814576" fill="None" d="M145.65 213.825 C 140.25 198.5625, 137.625 197.175, 119.4375 190.425"></path><path stroke="Black" stroke-width="0.6846531968814576" fill="None" d="M128.85 188.7 C 122.625 189.6, 118.725 189.075, 112.5 187.5"></path><path stroke="Black" stroke-width="0.6846531968814576" fill="None" d="M140.625 196.875 C 136.05 194.775, 133.05 192.45, 128.85 188.7"></path><path stroke="Black" stroke-width="0.6846531968814576" fill="None" d="M150 187.5 C 145.875 191.625, 143.4375 194.0625, 140.625 196.875"></path><path stroke="Black" stroke-width="0.6846531968814576" fill="None" d="M159.375 196.875 C 155.625 193.125, 153.375 190.875, 150 187.5"></path><path stroke="Black" stroke-width="0.6846531968814576" fill="None" d="M159.375 196.875 C 157.275 201.45, 154.95 204.45, 151.2 208.65"></path><path stroke="Black" stroke-width="0.6846531968814576" fill="None" d="M151.2 208.65 C 147.9375 200.8125, 147 199.875, 140.625 196.875"></path><path stroke="Black" stroke-width="0.6846531968814576" fill="None" d="M151.2 208.65 C 152.1 214.875, 151.575 218.775, 150 225"></path><path stroke="Black" stroke-width="0.6846531968814576" fill="None" d="M150 225 C 146.1 222.675, 143.8875 220.9875, 141.225 217.425"></path><path stroke="Black" stroke-width="0.6846531968814576" fill="None" d="M141.225 217.425 C 136.2 211.875, 141.3 207.75, 135.8625 201.6375"></path><path stroke="Black" stroke-width="0.6846531968814576" fill="None" d="M135.8625 201.6375 C 135 200.625, 133.125 198.75, 131.25 196.875"></path><path stroke="Black" stroke-width="0.6846531968814576" fill="None" d="M131.25 196.875 C 127.9125 195.6375, 125.25 195.3, 121.275 195.075"></path><path stroke="Black" stroke-width="0.6846531968814576" fill="None" d="M121.275 195.075 C 118.6125 191.5125, 116.4 189.825, 112.5 187.5"></path><path stroke="Black" stroke-width="0.6846531968814576" fill="None" d="M141.225 217.425 C 137.25 217.2, 134.5875 216.8625, 131.25 215.625"></path><path stroke="Black" stroke-width="0.6846531968814576" fill="None" d="M131.25 215.625 C 131.25 210.9375, 131.25 209.0625, 131.25 206.25"></path><path stroke="Black" stroke-width="0.6846531968814576" fill="None" d="M131.25 206.25 C 132.75 204.75, 134.625 202.875, 135.8625 201.6375"></path><path stroke="Black" stroke-width="0.6846531968814576" fill="None" d="M138.1875 214.125 C 135.825 214.95, 134.025 214.725, 131.7375 213.45"></path><path stroke="Black" stroke-width="0.6846531968814576" fill="None" d="M137.25 210.1875 C 135 211.575, 133.6875 211.7625, 131.6625 210.975"></path><path stroke="Black" stroke-width="0.6846531968814576" fill="None" d="M136.95 206.325 C 135 208.65, 134.175 208.8, 131.6625 208.6125"></path><path stroke="Black" stroke-width="0.6846531968814576" fill="None" d="M133.0875 203.175 C 132.5625 202.5, 132 201.9375, 131.625 201.7875"></path><path stroke="Black" stroke-width="0.6846531968814576" fill="None" d="M134.2125 202.05 C 133.5 200.625, 132.9375 200.0625, 131.55 199.6875"></path><path stroke="Black" stroke-width="0.6846531968814576" fill="None" d="M156.375 196.3875 C 154.6875 200.8125, 152.4375 202.6875, 149.925 203.85"></path><path stroke="Black" stroke-width="0.6846531968814576" fill="None" d="M154.5375 194.55 C 152.25 198.75, 151.125 199.875, 148.5 201.5625"></path><path stroke="Black" stroke-width="0.6846531968814576" fill="None" d="M152.175 192.1875 C 150.375 196.5, 148.875 198, 146.25 199.5375"></path><path stroke="Black" stroke-width="0.6846531968814576" fill="None" d="M150.825 189.8625 C 147.75 195, 146.25 196.5, 144 198.075"></path><path stroke="Black" stroke-width="0.6846531968814576" fill="None" d="M148.0125 212.175 C 147.1875 212.8875, 146.8125 213.2625, 146.325 213.75"></path><path stroke="Black" stroke-width="0.6846531968814576" fill="None" d="M148.0125 212.175 C 148.425 214.125, 148.425 216, 148.0125 218.2125"></path><path stroke="Black" stroke-width="0.6846531968814576" fill="None" d="M148.0125 218.2125 C 146.8125 217.95, 146.55 215.7, 146.325 213.75"></path><path stroke="Black" stroke-width="0.6846531968814576" fill="None" d="M145.125 214.425 C 144.375 214.875, 143.4375 215.4375, 142.9875 215.7"></path><path stroke="Black" stroke-width="0.6846531968814576" fill="None" d="M145.125 214.425 C 145.875 217.3125, 145.875 217.875, 145.8 219.1875"></path><path stroke="Black" stroke-width="0.6846531968814576" fill="None" d="M145.8 219.1875 C 144.375 217.6875, 143.55 216.75, 142.9875 215.7"></path><path stroke="Black" stroke-width="0.5757224189496134" fill="None" d="M120.2625 221.5875 C 130.59375 216.65625, 132.6 217.275, 145.06875 222.99375"></path><path stroke="Black" stroke-width="0.5757224189496134" fill="None" d="M141.225 217.425 C 143.8875 220.9875, 146.1 222.675, 150 225"></path><path stroke="Black" stroke-width="0.5757224189496134" fill="None" d="M131.25 215.625 C 134.5875 216.8625, 137.25 217.2, 141.225 217.425"></path><path stroke="Black" stroke-width="0.5757224189496134" fill="None" d="M131.25 206.25 C 131.25 210.375, 131.25 212.8125, 131.25 215.625"></path><path stroke="Black" stroke-width="0.5757224189496134" fill="None" d="M121.875 206.25 C 125.625 206.25, 127.875 206.25, 131.25 206.25"></path><path stroke="Black" stroke-width="0.5757224189496134" fill="None" d="M121.875 206.25 C 120.6375 209.5875, 120.3 212.25, 120.075 216.225"></path><path stroke="Black" stroke-width="0.5757224189496134" fill="None" d="M120.075 216.225 C 125.625 213.9375, 126.5625 213.9375, 131.25 215.625"></path><path stroke="Black" stroke-width="0.5757224189496134" fill="None" d="M120.075 216.225 C 116.5125 218.8875, 114.825 221.1, 112.5 225"></path><path stroke="Black" stroke-width="0.5757224189496134" fill="None" d="M112.5 225 C 115.6125 225.7875, 117.5625 226.05, 120.675 225.6"></path><path stroke="Black" stroke-width="0.5757224189496134" fill="None" d="M120.675 225.6 C 125.9625 225.3375, 125.475 220.725, 131.25 220.3875"></path><path stroke="Black" stroke-width="0.5757224189496134" fill="None" d="M131.25 220.3875 C 132.1875 220.3125, 134.0625 220.3125, 135.9375 220.3125"></path><path stroke="Black" stroke-width="0.5757224189496134" fill="None" d="M135.9375 220.3125 C 138.225 221.3625, 139.725 222.525, 141.825 224.4"></path><path stroke="Black" stroke-width="0.5757224189496134" fill="None" d="M141.825 224.4 C 144.9375 223.95, 146.8875 224.2125, 150 225"></path><path stroke="Black" stroke-width="0.5757224189496134" fill="None" d="M120.675 225.6 C 122.775 227.475, 124.275 228.6375, 126.5625 229.6875"></path><path stroke="Black" stroke-width="0.5757224189496134" fill="None" d="M126.5625 229.6875 C 128.90625 227.34375, 129.84375 226.40625, 131.25 225"></path><path stroke="Black" stroke-width="0.5757224189496134" fill="None" d="M131.25 225 C 131.25 223.5, 131.25 221.625, 131.25 220.3875"></path><path stroke="Black" stroke-width="0.5757224189496134" fill="None" d="M123.84375 225.46875 C 124.6125 227.0625, 125.625 227.85, 127.40625 228.35625"></path><path stroke="Black" stroke-width="0.5757224189496134" fill="None" d="M126.28125 223.96875 C 126.7125 225.7875, 127.275 226.5375, 128.68125 227.15625"></path><path stroke="Black" stroke-width="0.5757224189496134" fill="None" d="M128.3625 222.1875 C 128.175 224.325, 128.5125 224.8125, 129.8625 225.975"></path><path stroke="Black" stroke-width="0.5757224189496134" fill="None" d="M131.86875 222.54375 C 132.46875 222.46875, 133.03125 222.46875, 133.29375 222.58125"></path><path stroke="Black" stroke-width="0.5757224189496134" fill="None" d="M131.86875 221.41875 C 132.9375 221.0625, 133.5 221.0625, 134.38125 221.56875"></path><path stroke="Black" stroke-width="0.5757224189496134" fill="None" d="M123.61875 207.50625 C 122.25 210.5625, 122.4375 212.625, 123.1125 214.4625"></path><path stroke="Black" stroke-width="0.5757224189496134" fill="None" d="M125.45625 207.50625 C 124.5 210.75, 124.5 211.875, 124.96875 214.03125"></path><path stroke="Black" stroke-width="0.5757224189496134" fill="None" d="M127.81875 207.50625 C 126.5625 210.5625, 126.5625 212.0625, 127.10625 214.14375"></path><path stroke="Black" stroke-width="0.5757224189496134" fill="None" d="M129.65625 207.01875 C 128.625 211.125, 128.625 212.625, 128.9625 214.5375"></path><path stroke="Black" stroke-width="0.5757224189496134" fill="None" d="M119.90625 219.58125 C 119.9625 220.35, 119.9625 220.725, 119.9625 221.2125"></path><path stroke="Black" stroke-width="0.5757224189496134" fill="None" d="M119.90625 219.58125 C 118.725 220.35, 117.7875 221.2875, 116.8875 222.6"></path><path stroke="Black" stroke-width="0.5757224189496134" fill="None" d="M116.8875 222.6 C 117.61875 223.06875, 118.875 222.075, 119.9625 221.2125"></path><path stroke="Black" stroke-width="0.5757224189496134" fill="None" d="M120.225 222.15 C 120.375 222.75, 120.5625 223.5, 120.65625 223.85625"></path><path stroke="Black" stroke-width="0.5757224189496134" fill="None" d="M120.225 222.15 C 118.40625 223.21875, 118.125 223.5, 117.50625 224.19375"></path><path stroke="Black" stroke-width="0.5757224189496134" fill="None" d="M117.50625 224.19375 C 118.96875 224.15625, 119.85 224.1, 120.65625 223.85625"></path><path stroke="Black" stroke-width="0.5757224189496134" fill="None" d="M115.9125 195.2625 C 120.84375 205.59375, 120.225 207.6, 114.50625 220.06875"></path><path stroke="Black" stroke-width="0.5757224189496134" fill="None" d="M120.075 216.225 C 116.5125 218.8875, 114.825 221.1, 112.5 225"></path><path stroke="Black" stroke-width="0.5757224189496134" fill="None" d="M121.875 206.25 C 120.6375 209.5875, 120.3 212.25, 120.075 216.225"></path><path stroke="Black" stroke-width="0.5757224189496134" fill="None" d="M131.25 206.25 C 127.125 206.25, 124.6875 206.25, 121.875 206.25"></path><path stroke="Black" stroke-width="0.5757224189496134" fill="None" d="M131.25 196.875 C 131.25 200.625, 131.25 202.875, 131.25 206.25"></path><path stroke="Black" stroke-width="0.5757224189496134" fill="None" d="M131.25 196.875 C 127.9125 195.6375, 125.25 195.3, 121.275 195.075"></path><path stroke="Black" stroke-width="0.5757224189496134" fill="None" d="M121.275 195.075 C 123.5625 200.625, 123.5625 201.5625, 121.875 206.25"></path><path stroke="Black" stroke-width="0.5757224189496134" fill="None" d="M121.275 195.075 C 118.6125 191.5125, 116.4 189.825, 112.5 187.5"></path><path stroke="Black" stroke-width="0.5757224189496134" fill="None" d="M112.5 187.5 C 111.7125 190.6125, 111.45 192.5625, 111.9 195.675"></path><path stroke="Black" stroke-width="0.5757224189496134" fill="None" d="M111.9 195.675 C 112.1625 200.9625, 116.775 200.475, 117.1125 206.25"></path><path stroke="Black" stroke-width="0.5757224189496134" fill="None" d="M117.1125 206.25 C 117.1875 207.1875, 117.1875 209.0625, 117.1875 210.9375"></path><path stroke="Black" stroke-width="0.5757224189496134" fill="None" d="M117.1875 210.9375 C 116.1375 213.225, 114.975 214.725, 113.1 216.825"></path><path stroke="Black" stroke-width="0.5757224189496134" fill="None" d="M113.1 216.825 C 113.55 219.9375, 113.2875 221.8875, 112.5 225"></path><path stroke="Black" stroke-width="0.5757224189496134" fill="None" d="M111.9 195.675 C 110.025 197.775, 108.8625 199.275, 107.8125 201.5625"></path><path stroke="Black" stroke-width="0.5757224189496134" fill="None" d="M107.8125 201.5625 C 110.15625 203.90625, 111.09375 204.84375, 112.5 206.25"></path><path stroke="Black" stroke-width="0.5757224189496134" fill="None" d="M112.5 206.25 C 114 206.25, 115.875 206.25, 117.1125 206.25"></path><path stroke="Black" stroke-width="0.5757224189496134" fill="None" d="M112.03125 198.84375 C 110.4375 199.6125, 109.65 200.625, 109.14375 202.40625"></path><path stroke="Black" stroke-width="0.5757224189496134" fill="None" d="M113.53125 201.28125 C 111.7125 201.7125, 110.9625 202.275, 110.34375 203.68125"></path><path stroke="Black" stroke-width="0.5757224189496134" fill="None" d="M115.3125 203.3625 C 113.175 203.175, 112.6875 203.5125, 111.525 204.8625"></path><path stroke="Black" stroke-width="0.5757224189496134" fill="None" d="M114.95625 206.86875 C 115.03125 207.46875, 115.03125 208.03125, 114.91875 208.29375"></path><path stroke="Black" stroke-width="0.5757224189496134" fill="None" d="M116.08125 206.86875 C 116.4375 207.9375, 116.4375 208.5, 115.93125 209.38125"></path><path stroke="Black" stroke-width="0.5757224189496134" fill="None" d="M129.99375 198.61875 C 126.9375 197.25, 124.875 197.4375, 123.0375 198.1125"></path><path stroke="Black" stroke-width="0.5757224189496134" fill="None" d="M129.99375 200.45625 C 126.75 199.5, 125.625 199.5, 123.46875 199.96875"></path><path stroke="Black" stroke-width="0.5757224189496134" fill="None" d="M129.99375 202.81875 C 126.9375 201.5625, 125.4375 201.5625, 123.35625 202.10625"></path><path stroke="Black" stroke-width="0.5757224189496134" fill="None" d="M130.48125 204.65625 C 126.375 203.625, 124.875 203.625, 122.9625 203.9625"></path><path stroke="Black" stroke-width="0.5757224189496134" fill="None" d="M117.91875 194.90625 C 117.15 194.9625, 116.775 194.9625, 116.2875 194.9625"></path><path stroke="Black" stroke-width="0.5757224189496134" fill="None" d="M117.91875 194.90625 C 117.15 193.725, 116.2125 192.7875, 114.9 191.8875"></path><path stroke="Black" stroke-width="0.5757224189496134" fill="None" d="M114.9 191.8875 C 114.43125 192.61875, 115.425 193.875, 116.2875 194.9625"></path><path stroke="Black" stroke-width="0.5757224189496134" fill="None" d="M115.35 195.225 C 114.75 195.375, 114 195.5625, 113.64375 195.65625"></path><path stroke="Black" stroke-width="0.5757224189496134" fill="None" d="M115.35 195.225 C 114.28125 193.40625, 114 193.125, 113.30625 192.50625"></path><path stroke="Black" stroke-width="0.5757224189496134" fill="None" d="M113.30625 192.50625 C 113.34375 193.96875, 113.4 194.85, 113.64375 195.65625"></path><path stroke="Black" stroke-width="0.6846531968814576" fill="None" d="M123.675 183.15 C 138.9375 177.75, 140.325 175.125, 147.075 156.9375"></path><path stroke="Black" stroke-width="0.6846531968814576" fill="None" d="M148.8 166.35 C 147.9 160.125, 148.425 156.225, 150 150"></path><path stroke="Black" stroke-width="0.6846531968814576" fill="None" d="M140.625 178.125 C 142.725 173.55, 145.05 170.55, 148.8 166.35"></path><path stroke="Black" stroke-width="0.6846531968814576" fill="None" d="M150 187.5 C 145.875 183.375, 143.4375 180.9375, 140.625 178.125"></path><path stroke="Black" stroke-width="0.6846531968814576" fill="None" d="M140.625 196.875 C 144.375 193.125, 146.625 190.875, 150 187.5"></path><path stroke="Black" stroke-width="0.6846531968814576" fill="None" d="M140.625 196.875 C 136.05 194.775, 133.05 192.45, 128.85 188.7"></path><path stroke="Black" stroke-width="0.6846531968814576" fill="None" d="M128.85 188.7 C 136.6875 185.4375, 137.625 184.5, 140.625 178.125"></path><path stroke="Black" stroke-width="0.6846531968814576" fill="None" d="M128.85 188.7 C 122.625 189.6, 118.725 189.075, 112.5 187.5"></path><path stroke="Black" stroke-width="0.6846531968814576" fill="None" d="M112.5 187.5 C 114.825 183.6, 116.5125 181.3875, 120.075 178.725"></path><path stroke="Black" stroke-width="0.6846531968814576" fill="None" d="M120.075 178.725 C 125.625 173.7, 129.75 178.8, 135.8625 173.3625"></path><path stroke="Black" stroke-width="0.6846531968814576" fill="None" d="M135.8625 173.3625 C 136.875 172.5, 138.75 170.625, 140.625 168.75"></path><path stroke="Black" stroke-width="0.6846531968814576" fill="None" d="M140.625 168.75 C 141.8625 165.4125, 142.2 162.75, 142.425 158.775"></path><path stroke="Black" stroke-width="0.6846531968814576" fill="None" d="M142.425 158.775 C 145.9875 156.1125, 147.675 153.9, 150 150"></path><path stroke="Black" stroke-width="0.6846531968814576" fill="None" d="M120.075 178.725 C 120.3 174.75, 120.6375 172.0875, 121.875 168.75"></path><path stroke="Black" stroke-width="0.6846531968814576" fill="None" d="M121.875 168.75 C 126.5625 168.75, 128.4375 168.75, 131.25 168.75"></path><path stroke="Black" stroke-width="0.6846531968814576" fill="None" d="M131.25 168.75 C 132.75 170.25, 134.625 172.125, 135.8625 173.3625"></path><path stroke="Black" stroke-width="0.6846531968814576" fill="None" d="M123.375 175.6875 C 122.55 173.325, 122.775 171.525, 124.05 169.2375"></path><path stroke="Black" stroke-width="0.6846531968814576" fill="None" d="M127.3125 174.75 C 125.925 172.5, 125.7375 171.1875, 126.525 169.1625"></path><path stroke="Black" stroke-width="0.6846531968814576" fill="None" d="M131.175 174.45 C 128.85 172.5, 128.7 171.675, 128.8875 169.1625"></path><path stroke="Black" stroke-width="0.6846531968814576" fill="None" d="M134.325 170.5875 C 135 170.0625, 135.5625 169.5, 135.7125 169.125"></path><path stroke="Black" stroke-width="0.6846531968814576" fill="None" d="M135.45 171.7125 C 136.875 171, 137.4375 170.4375, 137.8125 169.05"></path><path stroke="Black" stroke-width="0.6846531968814576" fill="None" d="M141.1125 193.875 C 136.6875 192.1875, 134.8125 189.9375, 133.65 187.425"></path><path stroke="Black" stroke-width="0.6846531968814576" fill="None" d="M142.95 192.0375 C 138.75 189.75, 137.625 188.625, 135.9375 186"></path><path stroke="Black" stroke-width="0.6846531968814576" fill="None" d="M145.3125 189.675 C 141 187.875, 139.5 186.375, 137.9625 183.75"></path><path stroke="Black" stroke-width="0.6846531968814576" fill="None" d="M147.6375 188.325 C 142.5 185.25, 141 183.75, 139.425 181.5"></path><path stroke="Black" stroke-width="0.6846531968814576" fill="None" d="M125.325 185.5125 C 124.6125 184.6875, 124.2375 184.3125, 123.75 183.825"></path><path stroke="Black" stroke-width="0.6846531968814576" fill="None" d="M125.325 185.5125 C 123.375 185.925, 121.5 185.925, 119.2875 185.5125"></path><path stroke="Black" stroke-width="0.6846531968814576" fill="None" d="M119.2875 185.5125 C 119.55 184.3125, 121.8 184.05, 123.75 183.825"></path><path stroke="Black" stroke-width="0.6846531968814576" fill="None" d="M123.075 182.625 C 122.625 181.875, 122.0625 180.9375, 121.8 180.4875"></path><path stroke="Black" stroke-width="0.6846531968814576" fill="None" d="M123.075 182.625 C 120.1875 183.375, 119.625 183.375, 118.3125 183.3"></path><path stroke="Black" stroke-width="0.6846531968814576" fill="None" d="M118.3125 183.3 C 119.8125 181.875, 120.75 181.05, 121.8 180.4875"></path><path stroke="Black" stroke-width="0.5757224189496134" fill="None" d="M115.9125 157.7625 C 120.84375 168.09375, 120.225 170.1, 114.50625 182.56875"></path><path stroke="Black" stroke-width="0.5757224189496134" fill="None" d="M120.075 178.725 C 116.5125 181.3875, 114.825 183.6, 112.5 187.5"></path><path stroke="Black" stroke-width="0.5757224189496134" fill="None" d="M121.875 168.75 C 120.6375 172.0875, 120.3 174.75, 120.075 178.725"></path><path stroke="Black" stroke-width="0.5757224189496134" fill="None" d="M131.25 168.75 C 127.125 168.75, 124.6875 168.75, 121.875 168.75"></path><path stroke="Black" stroke-width="0.5757224189496134" fill="None" d="M131.25 159.375 C 131.25 163.125, 131.25 165.375, 131.25 168.75"></path><path stroke="Black" stroke-width="0.5757224189496134" fill="None" d="M131.25 159.375 C 127.9125 158.1375, 125.25 157.8, 121.275 157.575"></path><path stroke="Black" stroke-width="0.5757224189496134" fill="None" d="M121.275 157.575 C 123.5625 163.125, 123.5625 164.0625, 121.875 168.75"></path><path stroke="Black" stroke-width="0.5757224189496134" fill="None" d="M121.275 157.575 C 118.6125 154.0125, 116.4 152.325, 112.5 150"></path><path stroke="Black" stroke-width="0.5757224189496134" fill="None" d="M112.5 150 C 111.7125 153.1125, 111.45 155.0625, 111.9 158.175"></path><path stroke="Black" stroke-width="0.5757224189496134" fill="None" d="M111.9 158.175 C 112.1625 163.4625, 116.775 162.975, 117.1125 168.75"></path><path stroke="Black" stroke-width="0.5757224189496134" fill="None" d="M117.1125 168.75 C 117.1875 169.6875, 117.1875 171.5625, 117.1875 173.4375"></path><path stroke="Black" stroke-width="0.5757224189496134" fill="None" d="M117.1875 173.4375 C 116.1375 175.725, 114.975 177.225, 113.1 179.325"></path><path stroke="Black" stroke-width="0.5757224189496134" fill="None" d="M113.1 179.325 C 113.55 182.4375, 113.2875 184.3875, 112.5 187.5"></path><path stroke="Black" stroke-width="0.5757224189496134" fill="None" d="M111.9 158.175 C 110.025 160.275, 108.8625 161.775, 107.8125 164.0625"></path><path stroke="Black" stroke-width="0.5757224189496134" fill="None" d="M107.8125 164.0625 C 110.15625 166.40625, 111.09375 167.34375, 112.5 168.75"></path><path stroke="Black" stroke-width="0.5757224189496134" fill="None" d="M112.5 168.75 C 114 168.75, 115.875 168.75, 117.1125 168.75"></path><path stroke="Black" stroke-width="0.5757224189496134" fill="None" d="M112.03125 161.34375 C 110.4375 162.1125, 109.65 163.125, 109.14375 164.90625"></path><path stroke="Black" stroke-width="0.5757224189496134" fill="None" d="M113.53125 163.78125 C 111.7125 164.2125, 110.9625 164.775, 110.34375 166.18125"></path><path stroke="Black" stroke-width="0.5757224189496134" fill="None" d="M115.3125 165.8625 C 113.175 165.675, 112.6875 166.0125, 111.525 167.3625"></path><path stroke="Black" stroke-width="0.5757224189496134" fill="None" d="M114.95625 169.36875 C 115.03125 169.96875, 115.03125 170.53125, 114.91875 170.79375"></path><path stroke="Black" stroke-width="0.5757224189496134" fill="None" d="M116.08125 169.36875 C 116.4375 170.4375, 116.4375 171, 115.93125 171.88125"></path><path stroke="Black" stroke-width="0.5757224189496134" fill="None" d="M129.99375 161.11875 C 126.9375 159.75, 124.875 159.9375, 123.0375 160.6125"></path><path stroke="Black" stroke-width="0.5757224189496134" fill="None" d="M129.99375 162.95625 C 126.75 162, 125.625 162, 123.46875 162.46875"></path><path stroke="Black" stroke-width="0.5757224189496134" fill="None" d="M129.99375 165.31875 C 126.9375 164.0625, 125.4375 164.0625, 123.35625 164.60625"></path><path stroke="Black" stroke-width="0.5757224189496134" fill="None" d="M130.48125 167.15625 C 126.375 166.125, 124.875 166.125, 122.9625 166.4625"></path><path stroke="Black" stroke-width="0.5757224189496134" fill="None" d="M117.91875 157.40625 C 117.15 157.4625, 116.775 157.4625, 116.2875 157.4625"></path><path stroke="Black" stroke-width="0.5757224189496134" fill="None" d="M117.91875 157.40625 C 117.15 156.225, 116.2125 155.2875, 114.9 154.3875"></path><path stroke="Black" stroke-width="0.5757224189496134" fill="None" d="M114.9 154.3875 C 114.43125 155.11875, 115.425 156.375, 116.2875 157.4625"></path><path stroke="Black" stroke-width="0.5757224189496134" fill="None" d="M115.35 157.725 C 114.75 157.875, 114 158.0625, 113.64375 158.15625"></path><path stroke="Black" stroke-width="0.5757224189496134" fill="None" d="M115.35 157.725 C 114.28125 155.90625, 114 155.625, 113.30625 155.00625"></path><path stroke="Black" stroke-width="0.5757224189496134" fill="None" d="M113.30625 155.00625 C 113.34375 156.46875, 113.4 157.35, 113.64375 158.15625"></path><path stroke="Black" stroke-width="0.5757224189496134" fill="None" d="M142.2375 153.4125 C 131.90625 158.34375, 129.9 157.725, 117.43125 152.00625"></path><path stroke="Black" stroke-width="0.5757224189496134" fill="None" d="M121.275 157.575 C 118.6125 154.0125, 116.4 152.325, 112.5 150"></path><path stroke="Black" stroke-width="0.5757224189496134" fill="None" d="M131.25 159.375 C 127.9125 158.1375, 125.25 157.8, 121.275 157.575"></path><path stroke="Black" stroke-width="0.5757224189496134" fill="None" d="M131.25 168.75 C 131.25 164.625, 131.25 162.1875, 131.25 159.375"></path><path stroke="Black" stroke-width="0.5757224189496134" fill="None" d="M140.625 168.75 C 136.875 168.75, 134.625 168.75, 131.25 168.75"></path><path stroke="Black" stroke-width="0.5757224189496134" fill="None" d="M140.625 168.75 C 141.8625 165.4125, 142.2 162.75, 142.425 158.775"></path><path stroke="Black" stroke-width="0.5757224189496134" fill="None" d="M142.425 158.775 C 136.875 161.0625, 135.9375 161.0625, 131.25 159.375"></path><path stroke="Black" stroke-width="0.5757224189496134" fill="None" d="M142.425 158.775 C 145.9875 156.1125, 147.675 153.9, 150 150"></path><path stroke="Black" stroke-width="0.5757224189496134" fill="None" d="M150 150 C 146.8875 149.2125, 144.9375 148.95, 141.825 149.4"></path><path stroke="Black" stroke-width="0.5757224189496134" fill="None" d="M141.825 149.4 C 136.5375 149.6625, 137.025 154.275, 131.25 154.6125"></path><path stroke="Black" stroke-width="0.5757224189496134" fill="None" d="M131.25 154.6125 C 130.3125 154.6875, 128.4375 154.6875, 126.5625 154.6875"></path><path stroke="Black" stroke-width="0.5757224189496134" fill="None" d="M126.5625 154.6875 C 124.275 153.6375, 122.775 152.475, 120.675 150.6"></path><path stroke="Black" stroke-width="0.5757224189496134" fill="None" d="M120.675 150.6 C 117.5625 151.05, 115.6125 150.7875, 112.5 150"></path><path stroke="Black" stroke-width="0.5757224189496134" fill="None" d="M141.825 149.4 C 139.725 147.525, 138.225 146.3625, 135.9375 145.3125"></path><path stroke="Black" stroke-width="0.5757224189496134" fill="None" d="M135.9375 145.3125 C 133.59375 147.65625, 132.65625 148.59375, 131.25 150"></path><path stroke="Black" stroke-width="0.5757224189496134" fill="None" d="M131.25 150 C 131.25 151.5, 131.25 153.375, 131.25 154.6125"></path><path stroke="Black" stroke-width="0.5757224189496134" fill="None" d="M138.65625 149.53125 C 137.8875 147.9375, 136.875 147.15, 135.09375 146.64375"></path><path stroke="Black" stroke-width="0.5757224189496134" fill="None" d="M136.21875 151.03125 C 135.7875 149.2125, 135.225 148.4625, 133.81875 147.84375"></path><path stroke="Black" stroke-width="0.5757224189496134" fill="None" d="M134.1375 152.8125 C 134.325 150.675, 133.9875 150.1875, 132.6375 149.025"></path><path stroke="Black" stroke-width="0.5757224189496134" fill="None" d="M130.63125 152.45625 C 130.03125 152.53125, 129.46875 152.53125, 129.20625 152.41875"></path><path stroke="Black" stroke-width="0.5757224189496134" fill="None" d="M130.63125 153.58125 C 129.5625 153.9375, 129 153.9375, 128.11875 153.43125"></path><path stroke="Black" stroke-width="0.5757224189496134" fill="None" d="M138.88125 167.49375 C 140.25 164.4375, 140.0625 162.375, 139.3875 160.5375"></path><path stroke="Black" stroke-width="0.5757224189496134" fill="None" d="M137.04375 167.49375 C 138 164.25, 138 163.125, 137.53125 160.96875"></path><path stroke="Black" stroke-width="0.5757224189496134" fill="None" d="M134.68125 167.49375 C 135.9375 164.4375, 135.9375 162.9375, 135.39375 160.85625"></path><path stroke="Black" stroke-width="0.5757224189496134" fill="None" d="M132.84375 167.98125 C 133.875 163.875, 133.875 162.375, 133.5375 160.4625"></path><path stroke="Black" stroke-width="0.5757224189496134" fill="None" d="M142.59375 155.41875 C 142.5375 154.65, 142.5375 154.275, 142.5375 153.7875"></path><path stroke="Black" stroke-width="0.5757224189496134" fill="None" d="M142.59375 155.41875 C 143.775 154.65, 144.7125 153.7125, 145.6125 152.4"></path><path stroke="Black" stroke-width="0.5757224189496134" fill="None" d="M145.6125 152.4 C 144.88125 151.93125, 143.625 152.925, 142.5375 153.7875"></path><path stroke="Black" stroke-width="0.5757224189496134" fill="None" d="M142.275 152.85 C 142.125 152.25, 141.9375 151.5, 141.84375 151.14375"></path><path stroke="Black" stroke-width="0.5757224189496134" fill="None" d="M142.275 152.85 C 144.09375 151.78125, 144.375 151.5, 144.99375 150.80625"></path><path stroke="Black" stroke-width="0.5757224189496134" fill="None" d="M144.99375 150.80625 C 143.53125 150.84375, 142.65 150.9, 141.84375 151.14375"></path><path stroke="Black" stroke-width="0.8141944530407882" fill="None" d="M209.475 156.825 C 188.8125 166.6875, 184.8 165.45, 159.8625 154.0125"></path><path stroke="Black" stroke-width="0.8141944530407882" fill="None" d="M167.55 165.15 C 162.225 158.025, 157.8 154.65, 150 150"></path><path stroke="Black" stroke-width="0.8141944530407882" fill="None" d="M187.5 168.75 C 180.825 166.275, 175.5 165.6, 167.55 165.15"></path><path stroke="Black" stroke-width="0.8141944530407882" fill="None" d="M187.5 187.5 C 187.5 179.25, 187.5 174.375, 187.5 168.75"></path><path stroke="Black" stroke-width="0.8141944530407882" fill="None" d="M206.25 187.5 C 198.75 187.5, 194.25 187.5, 187.5 187.5"></path><path stroke="Black" stroke-width="0.8141944530407882" fill="None" d="M206.25 187.5 C 208.725 180.825, 209.4 175.5, 209.85 167.55"></path><path stroke="Black" stroke-width="0.8141944530407882" fill="None" d="M209.85 167.55 C 198.75 172.125, 196.875 172.125, 187.5 168.75"></path><path stroke="Black" stroke-width="0.8141944530407882" fill="None" d="M209.85 167.55 C 216.975 162.225, 220.35 157.8, 225 150"></path><path stroke="Black" stroke-width="0.8141944530407882" fill="None" d="M225 150 C 218.775 148.425, 214.875 147.9, 208.65 148.8"></path><path stroke="Black" stroke-width="0.8141944530407882" fill="None" d="M208.65 148.8 C 198.075 149.325, 199.05 158.55, 187.5 159.225"></path><path stroke="Black" stroke-width="0.8141944530407882" fill="None" d="M187.5 159.225 C 185.625 159.375, 181.875 159.375, 178.125 159.375"></path><path stroke="Black" stroke-width="0.8141944530407882" fill="None" d="M178.125 159.375 C 173.55 157.275, 170.55 154.95, 166.35 151.2"></path><path stroke="Black" stroke-width="0.8141944530407882" fill="None" d="M166.35 151.2 C 160.125 152.1, 156.225 151.575, 150 150"></path><path stroke="Black" stroke-width="0.8141944530407882" fill="None" d="M208.65 148.8 C 204.45 145.05, 201.45 142.725, 196.875 140.625"></path><path stroke="Black" stroke-width="0.8141944530407882" fill="None" d="M196.875 140.625 C 192.1875 145.3125, 190.3125 147.1875, 187.5 150"></path><path stroke="Black" stroke-width="0.8141944530407882" fill="None" d="M187.5 150 C 187.5 153, 187.5 156.75, 187.5 159.225"></path><path stroke="Black" stroke-width="0.8141944530407882" fill="None" d="M202.3125 149.0625 C 200.775 145.875, 198.75 144.3, 195.1875 143.2875"></path><path stroke="Black" stroke-width="0.8141944530407882" fill="None" d="M197.4375 152.0625 C 196.575 148.425, 195.45 146.925, 192.6375 145.6875"></path><path stroke="Black" stroke-width="0.8141944530407882" fill="None" d="M193.275 155.625 C 193.65 151.35, 192.975 150.375, 190.275 148.05"></path><path stroke="Black" stroke-width="0.8141944530407882" fill="None" d="M186.2625 154.9125 C 185.0625 155.0625, 183.9375 155.0625, 183.4125 154.8375"></path><path stroke="Black" stroke-width="0.8141944530407882" fill="None" d="M186.2625 157.1625 C 184.125 157.875, 183 157.875, 181.2375 156.8625"></path><path stroke="Black" stroke-width="0.8141944530407882" fill="None" d="M202.7625 184.9875 C 205.5 178.875, 205.125 174.75, 203.775 171.075"></path><path stroke="Black" stroke-width="0.8141944530407882" fill="None" d="M199.0875 184.9875 C 201 178.5, 201 176.25, 200.0625 171.9375"></path><path stroke="Black" stroke-width="0.8141944530407882" fill="None" d="M194.3625 184.9875 C 196.875 178.875, 196.875 175.875, 195.7875 171.7125"></path><path stroke="Black" stroke-width="0.8141944530407882" fill="None" d="M190.6875 185.9625 C 192.75 177.75, 192.75 174.75, 192.075 170.925"></path><path stroke="Black" stroke-width="0.8141944530407882" fill="None" d="M210.1875 160.8375 C 210.075 159.3, 210.075 158.55, 210.075 157.575"></path><path stroke="Black" stroke-width="0.8141944530407882" fill="None" d="M210.1875 160.8375 C 212.55 159.3, 214.425 157.425, 216.225 154.8"></path><path stroke="Black" stroke-width="0.8141944530407882" fill="None" d="M216.225 154.8 C 214.7625 153.8625, 212.25 155.85, 210.075 157.575"></path><path stroke="Black" stroke-width="0.8141944530407882" fill="None" d="M209.55 155.7 C 209.25 154.5, 208.875 153, 208.6875 152.2875"></path><path stroke="Black" stroke-width="0.8141944530407882" fill="None" d="M209.55 155.7 C 213.1875 153.5625, 213.75 153, 214.9875 151.6125"></path><path stroke="Black" stroke-width="0.8141944530407882" fill="None" d="M214.9875 151.6125 C 212.0625 151.6875, 210.3 151.8, 208.6875 152.2875"></path><path stroke="Black" stroke-width="0.8141944530407882" fill="None" d="M156.825 165.525 C 166.6875 186.1875, 165.45 190.2, 154.0125 215.1375"></path><path stroke="Black" stroke-width="0.8141944530407882" fill="None" d="M165.15 207.45 C 158.025 212.775, 154.65 217.2, 150 225"></path><path stroke="Black" stroke-width="0.8141944530407882" fill="None" d="M168.75 187.5 C 166.275 194.175, 165.6 199.5, 165.15 207.45"></path><path stroke="Black" stroke-width="0.8141944530407882" fill="None" d="M187.5 187.5 C 179.25 187.5, 174.375 187.5, 168.75 187.5"></path><path stroke="Black" stroke-width="0.8141944530407882" fill="None" d="M187.5 168.75 C 187.5 176.25, 187.5 180.75, 187.5 187.5"></path><path stroke="Black" stroke-width="0.8141944530407882" fill="None" d="M187.5 168.75 C 180.825 166.275, 175.5 165.6, 167.55 165.15"></path><path stroke="Black" stroke-width="0.8141944530407882" fill="None" d="M167.55 165.15 C 172.125 176.25, 172.125 178.125, 168.75 187.5"></path><path stroke="Black" stroke-width="0.8141944530407882" fill="None" d="M167.55 165.15 C 162.225 158.025, 157.8 154.65, 150 150"></path><path stroke="Black" stroke-width="0.8141944530407882" fill="None" d="M150 150 C 148.425 156.225, 147.9 160.125, 148.8 166.35"></path><path stroke="Black" stroke-width="0.8141944530407882" fill="None" d="M148.8 166.35 C 149.325 176.925, 158.55 175.95, 159.225 187.5"></path><path stroke="Black" stroke-width="0.8141944530407882" fill="None" d="M159.225 187.5 C 159.375 189.375, 159.375 193.125, 159.375 196.875"></path><path stroke="Black" stroke-width="0.8141944530407882" fill="None" d="M159.375 196.875 C 157.275 201.45, 154.95 204.45, 151.2 208.65"></path><path stroke="Black" stroke-width="0.8141944530407882" fill="None" d="M151.2 208.65 C 152.1 214.875, 151.575 218.775, 150 225"></path><path stroke="Black" stroke-width="0.8141944530407882" fill="None" d="M148.8 166.35 C 145.05 170.55, 142.725 173.55, 140.625 178.125"></path><path stroke="Black" stroke-width="0.8141944530407882" fill="None" d="M140.625 178.125 C 145.3125 182.8125, 147.1875 184.6875, 150 187.5"></path><path stroke="Black" stroke-width="0.8141944530407882" fill="None" d="M150 187.5 C 153 187.5, 156.75 187.5, 159.225 187.5"></path><path stroke="Black" stroke-width="0.8141944530407882" fill="None" d="M149.0625 172.6875 C 145.875 174.225, 144.3 176.25, 143.2875 179.8125"></path><path stroke="Black" stroke-width="0.8141944530407882" fill="None" d="M152.0625 177.5625 C 148.425 178.425, 146.925 179.55, 145.6875 182.3625"></path><path stroke="Black" stroke-width="0.8141944530407882" fill="None" d="M155.625 181.725 C 151.35 181.35, 150.375 182.025, 148.05 184.725"></path><path stroke="Black" stroke-width="0.8141944530407882" fill="None" d="M154.9125 188.7375 C 155.0625 189.9375, 155.0625 191.0625, 154.8375 191.5875"></path><path stroke="Black" stroke-width="0.8141944530407882" fill="None" d="M157.1625 188.7375 C 157.875 190.875, 157.875 192, 156.8625 193.7625"></path><path stroke="Black" stroke-width="0.8141944530407882" fill="None" d="M184.9875 172.2375 C 178.875 169.5, 174.75 169.875, 171.075 171.225"></path><path stroke="Black" stroke-width="0.8141944530407882" fill="None" d="M184.9875 175.9125 C 178.5 174, 176.25 174, 171.9375 174.9375"></path><path stroke="Black" stroke-width="0.8141944530407882" fill="None" d="M184.9875 180.6375 C 178.875 178.125, 175.875 178.125, 171.7125 179.2125"></path><path stroke="Black" stroke-width="0.8141944530407882" fill="None" d="M185.9625 184.3125 C 177.75 182.25, 174.75 182.25, 170.925 182.925"></path><path stroke="Black" stroke-width="0.8141944530407882" fill="None" d="M160.8375 164.8125 C 159.3 164.925, 158.55 164.925, 157.575 164.925"></path><path stroke="Black" stroke-width="0.8141944530407882" fill="None" d="M160.8375 164.8125 C 159.3 162.45, 157.425 160.575, 154.8 158.775"></path><path stroke="Black" stroke-width="0.8141944530407882" fill="None" d="M154.8 158.775 C 153.8625 160.2375, 155.85 162.75, 157.575 164.925"></path><path stroke="Black" stroke-width="0.8141944530407882" fill="None" d="M155.7 165.45 C 154.5 165.75, 153 166.125, 152.2875 166.3125"></path><path stroke="Black" stroke-width="0.8141944530407882" fill="None" d="M155.7 165.45 C 153.5625 161.8125, 153 161.25, 151.6125 160.0125"></path><path stroke="Black" stroke-width="0.8141944530407882" fill="None" d="M151.6125 160.0125 C 151.6875 162.9375, 151.8 164.7, 152.2875 166.3125"></path><path stroke="Black" stroke-width="0.8141944530407882" fill="None" d="M165.525 218.175 C 186.1875 208.3125, 190.2 209.55, 215.1375 220.9875"></path><path stroke="Black" stroke-width="0.8141944530407882" fill="None" d="M207.45 209.85 C 212.775 216.975, 217.2 220.35, 225 225"></path><path stroke="Black" stroke-width="0.8141944530407882" fill="None" d="M187.5 206.25 C 194.175 208.725, 199.5 209.4, 207.45 209.85"></path><path stroke="Black" stroke-width="0.8141944530407882" fill="None" d="M187.5 187.5 C 187.5 195.75, 187.5 200.625, 187.5 206.25"></path><path stroke="Black" stroke-width="0.8141944530407882" fill="None" d="M168.75 187.5 C 176.25 187.5, 180.75 187.5, 187.5 187.5"></path><path stroke="Black" stroke-width="0.8141944530407882" fill="None" d="M168.75 187.5 C 166.275 194.175, 165.6 199.5, 165.15 207.45"></path><path stroke="Black" stroke-width="0.8141944530407882" fill="None" d="M165.15 207.45 C 176.25 202.875, 178.125 202.875, 187.5 206.25"></path><path stroke="Black" stroke-width="0.8141944530407882" fill="None" d="M165.15 207.45 C 158.025 212.775, 154.65 217.2, 150 225"></path><path stroke="Black" stroke-width="0.8141944530407882" fill="None" d="M150 225 C 156.225 226.575, 160.125 227.1, 166.35 226.2"></path><path stroke="Black" stroke-width="0.8141944530407882" fill="None" d="M166.35 226.2 C 176.925 225.675, 175.95 216.45, 187.5 215.775"></path><path stroke="Black" stroke-width="0.8141944530407882" fill="None" d="M187.5 215.775 C 189.375 215.625, 193.125 215.625, 196.875 215.625"></path><path stroke="Black" stroke-width="0.8141944530407882" fill="None" d="M196.875 215.625 C 201.45 217.725, 204.45 220.05, 208.65 223.8"></path><path stroke="Black" stroke-width="0.8141944530407882" fill="None" d="M208.65 223.8 C 214.875 222.9, 218.775 223.425, 225 225"></path><path stroke="Black" stroke-width="0.8141944530407882" fill="None" d="M166.35 226.2 C 170.55 229.95, 173.55 232.275, 178.125 234.375"></path><path stroke="Black" stroke-width="0.8141944530407882" fill="None" d="M178.125 234.375 C 182.8125 229.6875, 184.6875 227.8125, 187.5 225"></path><path stroke="Black" stroke-width="0.8141944530407882" fill="None" d="M187.5 225 C 187.5 222, 187.5 218.25, 187.5 215.775"></path><path stroke="Black" stroke-width="0.8141944530407882" fill="None" d="M172.6875 225.9375 C 174.225 229.125, 176.25 230.7, 179.8125 231.7125"></path><path stroke="Black" stroke-width="0.8141944530407882" fill="None" d="M177.5625 222.9375 C 178.425 226.575, 179.55 228.075, 182.3625 229.3125"></path><path stroke="Black" stroke-width="0.8141944530407882" fill="None" d="M181.725 219.375 C 181.35 223.65, 182.025 224.625, 184.725 226.95"></path><path stroke="Black" stroke-width="0.8141944530407882" fill="None" d="M188.7375 220.0875 C 189.9375 219.9375, 191.0625 219.9375, 191.5875 220.1625"></path><path stroke="Black" stroke-width="0.8141944530407882" fill="None" d="M188.7375 217.8375 C 190.875 217.125, 192 217.125, 193.7625 218.1375"></path><path stroke="Black" stroke-width="0.8141944530407882" fill="None" d="M172.2375 190.0125 C 169.5 196.125, 169.875 200.25, 171.225 203.925"></path><path stroke="Black" stroke-width="0.8141944530407882" fill="None" d="M175.9125 190.0125 C 174 196.5, 174 198.75, 174.9375 203.0625"></path><path stroke="Black" stroke-width="0.8141944530407882" fill="None" d="M180.6375 190.0125 C 178.125 196.125, 178.125 199.125, 179.2125 203.2875"></path><path stroke="Black" stroke-width="0.8141944530407882" fill="None" d="M184.3125 189.0375 C 182.25 197.25, 182.25 200.25, 182.925 204.075"></path><path stroke="Black" stroke-width="0.8141944530407882" fill="None" d="M164.8125 214.1625 C 164.925 215.7, 164.925 216.45, 164.925 217.425"></path><path stroke="Black" stroke-width="0.8141944530407882" fill="None" d="M164.8125 214.1625 C 162.45 215.7, 160.575 217.575, 158.775 220.2"></path><path stroke="Black" stroke-width="0.8141944530407882" fill="None" d="M158.775 220.2 C 160.2375 221.1375, 162.75 219.15, 164.925 217.425"></path><path stroke="Black" stroke-width="0.8141944530407882" fill="None" d="M165.45 219.3 C 165.75 220.5, 166.125 222, 166.3125 222.7125"></path><path stroke="Black" stroke-width="0.8141944530407882" fill="None" d="M165.45 219.3 C 161.8125 221.4375, 161.25 222, 160.0125 223.3875"></path><path stroke="Black" stroke-width="0.8141944530407882" fill="None" d="M160.0125 223.3875 C 162.9375 223.3125, 164.7 223.2, 166.3125 222.7125"></path><path stroke="Black" stroke-width="0.8141944530407882" fill="None" d="M218.175 209.475 C 208.3125 188.8125, 209.55 184.8, 220.9875 159.8625"></path><path stroke="Black" stroke-width="0.8141944530407882" fill="None" d="M209.85 167.55 C 216.975 162.225, 220.35 157.8, 225 150"></path><path stroke="Black" stroke-width="0.8141944530407882" fill="None" d="M206.25 187.5 C 208.725 180.825, 209.4 175.5, 209.85 167.55"></path><path stroke="Black" stroke-width="0.8141944530407882" fill="None" d="M187.5 187.5 C 195.75 187.5, 200.625 187.5, 206.25 187.5"></path><path stroke="Black" stroke-width="0.8141944530407882" fill="None" d="M187.5 206.25 C 187.5 198.75, 187.5 194.25, 187.5 187.5"></path><path stroke="Black" stroke-width="0.8141944530407882" fill="None" d="M187.5 206.25 C 194.175 208.725, 199.5 209.4, 207.45 209.85"></path><path stroke="Black" stroke-width="0.8141944530407882" fill="None" d="M207.45 209.85 C 202.875 198.75, 202.875 196.875, 206.25 187.5"></path><path stroke="Black" stroke-width="0.8141944530407882" fill="None" d="M207.45 209.85 C 212.775 216.975, 217.2 220.35, 225 225"></path><path stroke="Black" stroke-width="0.8141944530407882" fill="None" d="M225 225 C 226.575 218.775, 227.1 214.875, 226.2 208.65"></path><path stroke="Black" stroke-width="0.8141944530407882" fill="None" d="M226.2 208.65 C 225.675 198.075, 216.45 199.05, 215.775 187.5"></path><path stroke="Black" stroke-width="0.8141944530407882" fill="None" d="M215.775 187.5 C 215.625 185.625, 215.625 181.875, 215.625 178.125"></path><path stroke="Black" stroke-width="0.8141944530407882" fill="None" d="M215.625 178.125 C 217.725 173.55, 220.05 170.55, 223.8 166.35"></path><path stroke="Black" stroke-width="0.8141944530407882" fill="None" d="M223.8 166.35 C 222.9 160.125, 223.425 156.225, 225 150"></path><path stroke="Black" stroke-width="0.8141944530407882" fill="None" d="M226.2 208.65 C 229.95 204.45, 232.275 201.45, 234.375 196.875"></path><path stroke="Black" stroke-width="0.8141944530407882" fill="None" d="M234.375 196.875 C 229.6875 192.1875, 227.8125 190.3125, 225 187.5"></path><path stroke="Black" stroke-width="0.8141944530407882" fill="None" d="M225 187.5 C 222 187.5, 218.25 187.5, 215.775 187.5"></path><path stroke="Black" stroke-width="0.8141944530407882" fill="None" d="M225.9375 202.3125 C 229.125 200.775, 230.7 198.75, 231.7125 195.1875"></path><path stroke="Black" stroke-width="0.8141944530407882" fill="None" d="M222.9375 197.4375 C 226.575 196.575, 228.075 195.45, 229.3125 192.6375"></path><path stroke="Black" stroke-width="0.8141944530407882" fill="None" d="M219.375 193.275 C 223.65 193.65, 224.625 192.975, 226.95 190.275"></path><path stroke="Black" stroke-width="0.8141944530407882" fill="None" d="M220.0875 186.2625 C 219.9375 185.0625, 219.9375 183.9375, 220.1625 183.4125"></path><path stroke="Black" stroke-width="0.8141944530407882" fill="None" d="M217.8375 186.2625 C 217.125 184.125, 217.125 183, 218.1375 181.2375"></path><path stroke="Black" stroke-width="0.8141944530407882" fill="None" d="M190.0125 202.7625 C 196.125 205.5, 200.25 205.125, 203.925 203.775"></path><path stroke="Black" stroke-width="0.8141944530407882" fill="None" d="M190.0125 199.0875 C 196.5 201, 198.75 201, 203.0625 200.0625"></path><path stroke="Black" stroke-width="0.8141944530407882" fill="None" d="M190.0125 194.3625 C 196.125 196.875, 199.125 196.875, 203.2875 195.7875"></path><path stroke="Black" stroke-width="0.8141944530407882" fill="None" d="M189.0375 190.6875 C 197.25 192.75, 200.25 192.75, 204.075 192.075"></path><path stroke="Black" stroke-width="0.8141944530407882" fill="None" d="M214.1625 210.1875 C 215.7 210.075, 216.45 210.075, 217.425 210.075"></path><path stroke="Black" stroke-width="0.8141944530407882" fill="None" d="M214.1625 210.1875 C 215.7 212.55, 217.575 214.425, 220.2 216.225"></path><path stroke="Black" stroke-width="0.8141944530407882" fill="None" d="M220.2 216.225 C 221.1375 214.7625, 219.15 212.25, 217.425 210.075"></path><path stroke="Black" stroke-width="0.8141944530407882" fill="None" d="M219.3 209.55 C 220.5 209.25, 222 208.875, 222.7125 208.6875"></path><path stroke="Black" stroke-width="0.8141944530407882" fill="None" d="M219.3 209.55 C 221.4375 213.1875, 222 213.75, 223.3875 214.9875"></path><path stroke="Black" stroke-width="0.8141944530407882" fill="None" d="M223.3875 214.9875 C 223.3125 212.0625, 223.2 210.3, 222.7125 208.6875"></path></svg>