<?xml version="1.0" encoding="UTF-8" standalone="no"?>
<svg version="1.1" xmlns="http://www.w3.org/2000/svg" x="0" y="0" width="300" height="300"><path stroke="Black" stroke-width="0.8141944530407882" fill="None" d="M209.475 156.825 C 188.8125 166.6875, 184.8 165.45, 159.8625 154.0125"></path><path stroke="Black" stroke-width="0.8141944530407882" fill="None" d="M167.55 165.15 C 162.225 158.025, 157.8 154.65, 150 150"></path><path stroke="Black" stroke-width="0.8141944530407882" fill="None" d="M187.5 168.75 C 180.825 166.275, 175.5 165.6, 167.55 165.15"></path><path stroke="Black" stroke-width="0.8141944530407882" fill="None" d="M187.5 187.5 C 187.5 179.25, 187.5 174.375, 187.5 168.75"></path><path stroke="Black" stroke-width="0.8141944530407882" fill="None" d="M206.25 187.5 C 198.75 187.5, 194.25 187.5, 187.5 187.5"></path><path stroke="Black" stroke-width="0.8141944530407882" fill="None" d="M206.25 187.5 C 208.725 180.825, 209.4 175.5, 209.85 167.55"></path><path stroke="Black" stroke-width="0.8141944530407882" fill="None" d="M209.85 167.55 C 198.75 172.125, 196.875 172.125, 187.5 168.75"></path><path stroke="Black" stroke-width="0.8141944530407882" fill="None" d="M209.85 167.55 C 216.975 162.225, 220.35 157.8, 225 150"></path><path stroke="Black" stroke-width="0.8141944530407882" fill="None" d="M225 150 C 218.775 148.425, 214.875 147.9, 208.65 148.8"></path><path stroke="Black" stroke-width="0.8141944530407882" fill="None" d="M208.65 148.8 C 198.075 149.325, 199.05 158.55, 187.5 159.225"></path><path stroke="Black" stroke-width="0.8141944530407882" fill="None" d="M187.5 159.225 C 185.625 159.375, 181.875 159.375, 178.125 159.375"></path><path stroke="Black" stroke-width="0.8141944530407882" fill="None" d="M178.125 159.375 C 173.55 157.275, 170.55 154.95, 166.35 151.2"></path><path stroke="Black" stroke-width="0.8141944530407882" fill="None" d="M166.35 151.2 C 160.125 152.1, 156.225 151.575, 150 150"></path><path stroke="Black" stroke-width="0.8141944530407882" fill="None" d="M208.65 148.8 C 204.45 145.05, 201.45 142.725, 196.875 140.625"></path><path stroke="Black" stroke-width="0.8141944530407882" fill="None" d="M196.875 140.625 C 192.1875 145.3125, 190.3125 147.1875, 187.5 150"></path><path stroke="Black" stroke-width="0.8141944530407882" fill="None" d="M187.5 150 C 187.5 153, 187.5 156.75, 187.5 159.225"></path><path stroke="Black" stroke-width="0.8141944530407882" fill="None" d="M202.3125 149.0625 C 200.775 145.875, 198.75 144.3, 195.1875 143.2875"></path><path stroke="Black" stroke-width="0.8141944530407882" fill="None" d="M197.4375 152.0625 C 196.575 148.425, 195.45 146.925, 192.6375 145.6875"></path><path stroke="Black" stroke-width="0.8141944530407882" fill="None" d="M193.275 155.625 C 193.65 151.35, 192.975 150.375, 190.275 148.05"></path><path stroke="Black" stroke-width="0.8141944530407882" fill="None" d="M186.2625 154.9125 C 185.0625 155.0625, 183.9375 155.0625, 183.4125 154.8375"></path><path stroke="Black" stroke-width="0.8141944530407882" fill="None" d="M186.2625 157.1625 C 184.125 157.875, 183 157.875, 181.2375 156.8625"></path><path stroke="Black" stroke-width="0.8141944530407882" fill="None" d="M202.7625 184.9875 C 205.5 178.875, 205.125 174.75, 203.775 171.075"></path><path stroke="Black" stroke-width="0.8141944530407882" fill="None" d="M199.0875 184.9875 C 201 178.5, 201 176.25, 200.0625 171.9375"></path><path stroke="Black" stroke-width="0.8141944530407882" fill="None" d="M194.3625 184.9875 C 196.875 178.875, 196.875 175.875, 195.7875 171.7125"></path><path stroke="Black" stroke-width="0.8141944530407882" fill="None" d="M190.6875 185.9625 C 192.75 177.75, 192.75 174.75, 192.075 170.925"></path><path stroke="Black" stroke-width="0.8141944530407882" fill="None" d="M210.1875 160.8375 C 210.075 159.3, 210.075 158.55, 210.075 157.575"></path><path stroke="Black" stroke-width="0.8141944530407882" fill="None" d="M210.1875 160.8375 C 212.55 159.3, 214.425 157.425, 216.225 154.8"></path><path stroke="Black" stroke-width="0.8141944530407882" fill="None" d="M216.225 154.8 C 214.7625 153.8625, 212.25 155.85, 210.075 157.575"></path><path stroke="Black" stroke-width="0.8141944530407882" fill="None" d="M209.55 155.7 C 209.25 154.5, 208.875 153, 208.6875 152.2875"></path><path stroke="Black" stroke-width="0.8141944530407882" fill="None" d="M209.55 155.7 C 213.1875 153.5625, 213.75 153, 214.9875 151.6125"></path><path stroke="Black" stroke-width="0.8141944530407882" fill="None" d="M214.9875 151.6125 C 212.0625 151.6875, 210.3 151.8, 208.6875 152.2875"></path><path stroke="Black" stroke-width="0.8141944530407882" fill="None" d="M156.825 165.525 C 166.6875 186.1875, 165.45 190.2, 154.0125 215.1375"></path><path stroke="Black" stroke-width="0.8141944530407882" fill="None" d="M165.15 207.45 C 158.025 212.775, 154.65 217.2, 150 225"></path><path stroke="Black" stroke-width="0.8141944530407882" fill="None" d="M168.75 187.5 C 166.275 194.175, 165.6 199.5, 165.15 207.45"></path><path stroke="Black" stroke-width="0.8141944530407882" fill="None" d="M187.5 187.5 C 179.25 187.5, 174.375 187.5, 168.75 187.5"></path><path stroke="Black" stroke-width="0.8141944530407882" fill="None" d="M187.5 168.75 C 187.5 176.25, 187.5 180.75, 187.5 187.5"></path><path stroke="Black" stroke-width="0.8141944530407882" fill="None" d="M187.5 168.75 C 180.825 166.275, 175.5 165.6, 167.55 165.15"></path><path stroke="Black" stroke-width="0.8141944530407882" fill="None" d="M167.55 165.15 C 172.125 176.25, 172.125 178.125, 168.75 187.5"></path><path stroke="Black" stroke-width="0.8141944530407882" fill="None" d="M167.55 165.15 C 162.225 158.025, 157.8 154.65, 150 150"></path><path stroke="Black" stroke-width="0.8141944530407882" fill="None" d="M150 150 C 148.425 156.225, 147.9 160.125, 148.8 166.35"></path><path stroke="Black" stroke-width="0.8141944530407882" fill="None" d="M148.8 166.35 C 149.325 176.925, 158.55 175.95, 159.225 187.5"></path><path stroke="Black" stroke-width="0.8141944530407882" fill="None" d="M159.225 187.5 C 159.375 189.375, 159.375 193.125, 159.375 196.875"></path><path stroke="Black" stroke-width="0.8141944530407882" fill="None" d="M159.375 196.875 C 157.275 201.45, 154.95 204.45, 151.2 208.65"></path><path stroke="Black" stroke-width="0.8141944530407882" fill="None" d="M151.2 208.65 C 152.1 214.875, 151.575 218.775, 150 225"></path><path stroke="Black" stroke-width="0.8141944530407882" fill="None" d="M148.8 166.35 C 145.05 170.55, 142.725 173.55, 140.625 178.125"></path><path stroke="Black" stroke-width="0.8141944530407882" fill="None" d="M140.625 178.125 C 145.3125 182.8125, 147.1875 184.6875, 150 187.5"></path><path stroke="Black" stroke-width="0.8141944530407882" fill="None" d="M150 187.5 C 153 187.5, 156.75 187.5, 159.225 187.5"></path><path stroke="Black" stroke-width="0.8141944530407882" fill="None" d="M149.0625 172.6875 C 145.875 174.225, 144.3 176.25, 143.2875 179.8125"></path><path stroke="Black" stroke-width="0.8141944530407882" fill="None" d="M152.0625 177.5625 C 148.425 178.425, 146.925 179.55, 145.6875 182.3625"></path><path stroke="Black" stroke-width="0.8141944530407882" fill="None" d="M155.625 181.725 C 151.35 181.35, 150.375 182.025, 148.05 184.725"></path><path stroke="Black" stroke-width="0.8141944530407882" fill="None" d="M154.9125 188.7375 C 155.0625 189.9375, 155.0625 191.0625, 154.8375 191.5875"></path><path stroke="Black" stroke-width="0.8141944530407882" fill="None" d="M157.1625 188.7375 C 157.875 190.875, 157.875 192, 156.8625 193.7625"></path><path stroke="Black" stroke-width="0.8141944530407882" fill="None" d="M184.9875 172.2375 C 178.875 169.5, 174.75 169.875, 171.075 171.225"></path><path stroke="Black" stroke-width="0.8141944530407882" fill="None" d="M184.9875 175.9125 C 178.5 174, 176.25 174, 171.9375 174.9375"></path><path stroke="Black" stroke-width="0.8141944530407882" fill="None" d="M184.9875 180.6375 C 178.875 178.125, 175.875 178.125, 171.7125 179.2125"></path><path stroke="Black" stroke-width="0.8141944530407882" fill="None" d="M185.9625 184.3125 C 177.75 182.25, 174.75 182.25, 170.925 182.925"></path><path stroke="Black" stroke-width="0.8141944530407882" fill="None" d="M160.8375 164.8125 C 159.3 164.925, 158.55 164.925, 157.575 164.925"></path><path stroke="Black" stroke-width="0.8141944530407882" fill="None" d="M160.8375 164.8125 C 159.3 162.45, 157.425 160.575, 154.8 158.775"></path><path stroke="Black" stroke-width="0.8141944530407882" fill="None" d="M154.8 158.775 C 153.8625 160.2375, 155.85 162.75, 157.575 164.925"></path><path stroke="Black" stroke-width="0.8141944530407882" fill="None" d="M155.7 165.45 C 154.5 165.75, 153 166.125, 152.2875 166.3125"></path><path stroke="Black" stroke-width="0.8141944530407882" fill="None" d="M155.7 165.45 C 153.5625 161.8125, 153 161.25, 151.6125 160.0125"></path><path stroke="Black" stroke-width="0.8141944530407882" fill="None" d="M151.6125 160.0125 C 151.6875 162.9375, 151.8 164.7, 152.2875 166.3125"></path><path stroke="Black" stroke-width="0.8141944530407882" fill="None" d="M165.525 218.175 C 186.1875 208.3125, 190.2 209.55, 215.1375 220.9875"></path><path stroke="Black" stroke-width="0.8141944530407882" fill="None" d="M207.45 209.85 C 212.775 216.975, 217.2 220.35, 225 225"></path><path stroke="Black" stroke-width="0.8141944530407882" fill="None" d="M187.5 206.25 C 194.175 208.725, 199.5 209.4, 207.45 209.85"></path><path stroke="Black" stroke-width="0.8141944530407882" fill="None" d="M187.5 187.5 C 187.5 195.75, 187.5 200.625, 187.5 206.25"></path><path stroke="Black" stroke-width="0.8141944530407882" fill="None" d="M168.75 187.5 C 176.25 187.5, 180.75 187.5, 187.5 187.5"></path><path stroke="Black" stroke-width="0.8141944530407882" fill="None" d="M168.75 187.5 C 166.275 194.175, 165.6 199.5, 165.15 207.45"></path><path stroke="Black" stroke-width="0.8141944530407882" fill="None" d="M165.15 207.45 C 176.25 202.875, 178.125 202.875, 187.5 206.25"></path><path stroke="Black" stroke-width="0.8141944530407882" fill="None" d="M165.15 207.45 C 158.025 212.775, 154.65 217.2, 150 225"></path><path stroke="Black" stroke-width="0.8141944530407882" fill="None" d="M150 225 C 156.225 226.575, 160.125 227.1, 166.35 226.2"></path><path stroke="Black" stroke-width="0.8141944530407882" fill="None" d="M166.35 226.2 C 176.925 225.675, 175.95 216.45, 187.5 215.775"></path><path stroke="Black" stroke-width="0.8141944530407882" fill="None" d="M187.5 215.775 C 189.375 215.625, 193.125 215.625, 196.875 215.625"></path><path stroke="Black" stroke-width="0.8141944530407882" fill="None" d="M196.875 215.625 C 201.45 217.725, 204.45 220.05, 208.65 223.8"></path><path stroke="Black" stroke-width="0.8141944530407882" fill="None" d="M208.65 223.8 C 214.875 222.9, 218.775 223.425, 225 225"></path><path stroke="Black" stroke-width="0.8141944530407882" fill="None" d="M166.35 226.2 C 170.55 229.95, 173.55 232.275, 178.125 234.375"></path><path stroke="Black" stroke-width="0.8141944530407882" fill="None" d="M178.125 234.375 C 182.8125 229.6875, 184.6875 227.8125, 187.5 225"></path><path stroke="Black" stroke-width="0.8141944530407882" fill="None" d="M187.5 225 C 187.5 222, 187.5 218.25, 187.5 215.775"></path><path stroke="Black" stroke-width="0.8141944530407882" fill="None" d="M172.6875 225.9375 C 174.225 229.125, 176.25 230.7, 179.8125 231.7125"></path><path stroke="Black" stroke-width="0.8141944530407882" fill="None" d="M177.5625 222.9375 C 178.425 226.575, 179.55 228.075, 182.3625 229.3125"></path><path stroke="Black" stroke-width="0.8141944530407882" fill="None" d="M181.725 219.375 C 181.35 223.65, 182.025 224.625, 184.725 226.95"></path><path stroke="Black" stroke-width="0.8141944530407882" fill="None" d="M188.7375 220.0875 C 189.9375 219.9375, 191.0625 219.9375, 191.5875 220.1625"></path><path stroke="Black" stroke-width="0.8141944530407882" fill="None" d="M188.7375 217.8375 C 190.875 217.125, 192 217.125, 193.7625 218.1375"></path><path stroke="Black" stroke-width="0.8141944530407882" fill="None" d="M172.2375 190.0125 C 169.5 196.125, 169.875 200.25, 171.225 203.925"></path><path stroke="Black" stroke-width="0.8141944530407882" fill="None" d="M175.9125 190.0125 C 174 196.5, 174 198.75, 174.9375 203.0625"></path><path stroke="Black" stroke-width="0.8141944530407882" fill="None" d="M180.6375 190.0125 C 178.125 196.125, 178.125 199.125, 179.2125 203.2875"></path><path stroke="Black" stroke-width="0.8141944530407882" fill="None" d="M184.3125 189.0375 C 182.25 197.25, 182.25 200.25, 182.925 204.075"></path><path stroke="Black" stroke-width="0.8141944530407882" fill="None" d="M164.8125 214.1625 C 164.925 215.7, 164.925 216.45, 164.925 217.425"></path><path stroke="Black" stroke-width="0.8141944530407882" fill="None" d="M164.8125 214.1625 C 162.45 215.7, 160.575 217.575, 158.775 220.2"></path><path stroke="Black" stroke-width="0.8141944530407882" fill="None" d="M158.775 220.2 C 160.2375 221.1375, 162.75 219.15, 164.925 217.425"></path><path stroke="Black" stroke-width="0.8141944530407882" fill="None" d="M165.45 219.3 C 165.75 220.5, 166.125 222, 166.3125 222.7125"></path><path stroke="Black" stroke-width="0.8141944530407882" fill="None" d="M165.45 219.3 C 161.8125 221.4375, 161.25 222, 160.0125 223.3875"></path><path stroke="Black" stroke-width="0.8141944530407882" fill="None" d="M160.0125 223.3875 C 162.9375 223.3125, 164.7 223.2, 166.3125 222.7125"></path><path stroke="Black" stroke-width="0.8141944530407882" fill="None" d="M218.175 209.475 C 208.3125 188.8125, 209.55 184.8, 220.9875 159.8625"></path><path stroke="Black" stroke-width="0.8141944530407882" fill="None" d="M209.85 167.55 C 216.975 162.225, 220.35 157.8, 225 150"></path><path stroke="Black" stroke-width="0.8141944530407882" fill="None" d="M206.25 187.5 C 208.725 180.825, 209.4 175.5, 209.85 167.55"></path><path stroke="Black" stroke-width="0.8141944530407882" fill="None" d="M187.5 187.5 C 195.75 187.5, 200.625 187.5, 206.25 187.5"></path><path stroke="Black" stroke-width="0.8141944530407882" fill="None" d="M187.5 206.25 C 187.5 198.75, 187.5 194.25, 187.5 187.5"></path><path stroke="Black" stroke-width="0.8141944530407882" fill="None" d="M187.5 206.25 C 194.175 208.725, 199.5 209.4, 207.45 209.85"></path><path stroke="Black" stroke-width="0.8141944530407882" fill="None" d="M207.45 209.85 C 202.875 198.75, 202.875 196.875, 206.25 187.5"></path><path stroke="Black" stroke-width="0.8141944530407882" fill="None" d="M207.45 209.85 C 212.775 216.975, 217.2 220.35, 225 225"></path><path stroke="Black" stroke-width="0.8141944530407882" fill="None" d="M225 225 C 226.575 218.775, 227.1 214.875, 226.2 208.65"></path><path stroke="Black" stroke-width="0.8141944530407882" fill="None" d="M226.2 208.65 C 225.675 198.075, 216.45 199.05, 215.775 187.5"></path><path stroke="Black" stroke-width="0.8141944530407882" fill="None" d="M215.775 187.5 C 215.625 185.625, 215.625 181.875, 215.625 178.125"></path><path stroke="Black" stroke-width="0.8141944530407882" fill="None" d="M215.625 178.125 C 217.725 173.55, 220.05 170.55, 223.8 166.35"></path><path stroke="Black" stroke-width="0.8141944530407882" fill="None" d="M223.8 166.35 C 222.9 160.125, 223.425 156.225, 225 150"></path><path stroke="Black" stroke-width="0.8141944530407882" fill="None" d="M226.2 208.65 C 229.95 204.45, 232.275 201.45, 234.375 196.875"></path><path stroke="Black" stroke-width="0.8141944530407882" fill="None" d="M234.375 196.875 C 229.6875 192.1875, 227.8125 190.3125, 225 187.5"></path><path stroke="Black" stroke-width="0.8141944530407882" fill="None" d="M225 187.5 C 222 187.5, 218.25 187.5, 215.775 187.5"></path><path stroke="Black" stroke-width="0.8141944530407882" fill="None" d="M225.9375 202.3125 C 229.125 200.775, 230.7 198.75, 231.7125 195.1875"></path><path stroke="Black" stroke-width="0.8141944530407882" fill="None" d="M222.9375 197.4375 C 226.575 196.575, 228.075 195.45, 229.3125 192.6375"></path><path stroke="Black" stroke-width="0.8141944530407882" fill="None" d="M219.375 193.275 C 223.65 193.65, 224.625 192.975, 226.95 190.275"></path><path stroke="Black" stroke-width="0.8141944530407882" fill="None" d="M220.0875 186.2625 C 219.9375 185.0625, 219.9375 183.9375, 220.1625 183.4125"></path><path stroke="Black" stroke-width="0.8141944530407882" fill="None" d="M217.8375 186.2625 C 217.125 184.125, 217.125 183, 218.1375 181.2375"></path><path stroke="Black" stroke-width="0.8141944530407882" fill="None" d="M190.0125 202.7625 C 196.125 205.5, 200.25 205.125, 203.925 203.775"></path><path stroke="Black" stroke-width="0.8141944530407882" fill="None" d="M190.0125 199.0875 C 196.5 201, 198.75 201, 203.0625 200.0625"></path><path stroke="Black" stroke-width="0.8141944530407882" fill="None" d="M190.0125 194.3625 C 196.125 196.875, 199.125 196.875, 203.2875 195.7875"></path><path stroke="Black" stroke-width="0.8141944530407882" fill="None" d="M189.0375 190.6875 C 197.25 192.75, 200.25 192.75, 204.075 192.075"></path><path stroke="Black" stroke-width="0.8141944530407882" fill="None" d="M214.1625 210.1875 C 215.7 210.075, 216.45 210.075, 217.425 210.075"></path><path stroke="Black" stroke-width="0.8141944530407882" fill="None" d="M214.1625 210.1875 C 215.7 212.55, 217.575 214.425, 220.2 216.225"></path><path stroke="Black" stroke-width="0.8141944530407882" fill="None" d="M220.2 216.225 C 221.1375 214.7625, 219.15 212.25, 217.425 210.075"></path><path stroke="Black" stroke-width="0.8141944530407882" fill="None" d="M219.3 209.55 C 220.5 209.25, 222 208.875, 222.7125 208.6875"></path><path stroke="Black" stroke-width="0.8141944530407882" fill="None" d="M219.3 209.55 C 221.4375 213.1875, 222 213.75, 223.3875 214.9875"></path><path stroke="Black" stroke-width="0.8141944530407882" fill="None" d="M223.3875 214.9875 C 223.3125 212.0625, 223.2 210.3, 222.7125 208.6875"></path></svg>