<?xml version="1.0" encoding="UTF-8" standalone="no"?>
<svg version="1.1" xmlns="http://www.w3.org/2000/svg" x="0" y="0" width="300" height="300"><path stroke="Black" stroke-width="1.3693063937629153" fill="None" d="M92.4 119.69999999999999 C 114 180.75, 124.5 186.3, 197.25 213.3"></path><path stroke="Black" stroke-width="1.3693063937629153" fill="None" d="M159.6 220.2 C 184.5 216.6, 200.1 218.7, 225 225"></path><path stroke="Black" stroke-width="1.3693063937629153" fill="None" d="M112.5 187.5 C 130.8 195.9, 142.8 205.2, 159.6 220.2"></path><path stroke="Black" stroke-width="1.3693063937629153" fill="None" d="M75 225 C 91.5 208.5, 101.25 198.75, 112.5 187.5"></path><path stroke="Black" stroke-width="1.3693063937629153" fill="None" d="M37.5 187.5 C 52.5 202.5, 61.5 211.5, 75 225"></path><path stroke="Black" stroke-width="1.3693063937629153" fill="None" d="M37.5 187.5 C 45.9 169.2, 55.2 157.2, 70.2 140.4"></path><path stroke="Black" stroke-width="1.3693063937629153" fill="None" d="M70.2 140.4 C 83.25 171.75, 87 175.5, 112.5 187.5"></path><path stroke="Black" stroke-width="1.3693063937629153" fill="None" d="M70.2 140.4 C 66.6 115.5, 68.7 99.9, 75 75"></path><path stroke="Black" stroke-width="1.3693063937629153" fill="None" d="M75 75 C 90.6 84.30000000000001, 99.45 91.05000000000001, 110.1 105.30000000000001"></path><path stroke="Black" stroke-width="1.3693063937629153" fill="None" d="M110.1 105.30000000000001 C 130.2 127.5, 109.80000000000001 144, 131.55 168.45"></path><path stroke="Black" stroke-width="1.3693063937629153" fill="None" d="M131.55 168.45 C 135 172.5, 142.5 180, 150 187.5"></path><path stroke="Black" stroke-width="1.3693063937629153" fill="None" d="M150 187.5 C 163.35 192.45, 174 193.8, 189.9 194.7"></path><path stroke="Black" stroke-width="1.3693063937629153" fill="None" d="M189.9 194.7 C 200.55 208.95, 209.4 215.7, 225 225"></path><path stroke="Black" stroke-width="1.3693063937629153" fill="None" d="M110.1 105.30000000000001 C 126 106.19999999999999, 136.65 107.55000000000001, 150 112.5"></path><path stroke="Black" stroke-width="1.3693063937629153" fill="None" d="M150 112.5 C 150 131.25, 150 138.75, 150 150"></path><path stroke="Black" stroke-width="1.3693063937629153" fill="None" d="M150 150 C 144 156, 136.5 163.5, 131.55 168.45"></path><path stroke="Black" stroke-width="1.3693063937629153" fill="None" d="M122.25 118.5 C 131.7 115.19999999999999, 138.9 116.10000000000002, 148.05 121.19999999999999"></path><path stroke="Black" stroke-width="1.3693063937629153" fill="None" d="M126 134.25 C 135 128.7, 140.25 127.94999999999999, 148.35 131.1"></path><path stroke="Black" stroke-width="1.3693063937629153" fill="None" d="M127.19999999999999 149.7 C 135 140.4, 138.3 139.8, 148.35 140.55"></path><path stroke="Black" stroke-width="1.3693063937629153" fill="None" d="M142.65 162.3 C 144.75 165, 147 167.25, 148.5 167.85"></path><path stroke="Black" stroke-width="1.3693063937629153" fill="None" d="M138.15 166.8 C 141 172.5, 143.25 174.75, 148.8 176.25"></path><path stroke="Black" stroke-width="1.3693063937629153" fill="None" d="M49.5 189.45 C 56.25 171.75, 65.25 164.25, 75.3 159.6"></path><path stroke="Black" stroke-width="1.3693063937629153" fill="None" d="M56.85 196.8 C 66 180, 70.5 175.5, 81 168.75"></path><path stroke="Black" stroke-width="1.3693063937629153" fill="None" d="M66.3 206.25 C 73.5 189, 79.5 183, 90 176.85"></path><path stroke="Black" stroke-width="1.3693063937629153" fill="None" d="M71.7 215.55 C 84 195, 90 189, 99 182.7"></path><path stroke="Black" stroke-width="1.3693063937629153" fill="None" d="M82.95 126.30000000000001 C 86.25 123.44999999999999, 87.75 121.94999999999999, 89.7 120"></path><path stroke="Black" stroke-width="1.3693063937629153" fill="None" d="M82.95 126.30000000000001 C 81.3 118.5, 81.3 111, 82.95 102.15"></path><path stroke="Black" stroke-width="1.3693063937629153" fill="None" d="M82.95 102.15 C 87.75 103.19999999999999, 88.8 112.19999999999999, 89.7 120"></path><path stroke="Black" stroke-width="1.3693063937629153" fill="None" d="M94.5 117.30000000000001 C 97.5 115.5, 101.25 113.25, 103.05 112.19999999999999"></path><path stroke="Black" stroke-width="1.3693063937629153" fill="None" d="M94.5 117.30000000000001 C 91.5 105.75, 91.5 103.5, 91.8 98.25"></path><path stroke="Black" stroke-width="1.3693063937629153" fill="None" d="M91.8 98.25 C 97.5 104.25, 100.8 108, 103.05 112.19999999999999"></path><path stroke="Black" stroke-width="1.3693063937629153" fill="None" d="M207.6 180.3 C 186 119.25, 175.5 113.69999999999999, 102.75000000000001 86.69999999999999"></path><path stroke="Black" stroke-width="1.3693063937629153" fill="None" d="M140.4 79.80000000000001 C 115.5 83.4, 99.9 81.30000000000001, 75 75"></path><path stroke="Black" stroke-width="1.3693063937629153" fill="None" d="M187.5 112.5 C 169.2 104.1, 157.2 94.80000000000001, 140.4 79.80000000000001"></path><path stroke="Black" stroke-width="1.3693063937629153" fill="None" d="M225 75 C 208.5 91.5, 198.75 101.25, 187.5 112.5"></path><path stroke="Black" stroke-width="1.3693063937629153" fill="None" d="M262.5 112.5 C 247.5 97.5, 238.5 88.5, 225 75"></path><path stroke="Black" stroke-width="1.3693063937629153" fill="None" d="M262.5 112.5 C 254.1 130.8, 244.8 142.8, 229.8 159.6"></path><path stroke="Black" stroke-width="1.3693063937629153" fill="None" d="M229.8 159.6 C 216.75 128.25, 213 124.5, 187.5 112.5"></path><path stroke="Black" stroke-width="1.3693063937629153" fill="None" d="M229.8 159.6 C 233.4 184.5, 231.3 200.1, 225 225"></path><path stroke="Black" stroke-width="1.3693063937629153" fill="None" d="M225 225 C 209.4 215.7, 200.55 208.95, 189.9 194.7"></path><path stroke="Black" stroke-width="1.3693063937629153" fill="None" d="M189.9 194.7 C 169.8 172.5, 190.2 156, 168.45 131.55"></path><path stroke="Black" stroke-width="1.3693063937629153" fill="None" d="M168.45 131.55 C 165 127.5, 157.5 120, 150 112.5"></path><path stroke="Black" stroke-width="1.3693063937629153" fill="None" d="M150 112.5 C 136.65 107.55000000000001, 126 106.19999999999999, 110.1 105.30000000000001"></path><path stroke="Black" stroke-width="1.3693063937629153" fill="None" d="M110.1 105.30000000000001 C 99.45 91.05000000000001, 90.6 84.30000000000001, 75 75"></path><path stroke="Black" stroke-width="1.3693063937629153" fill="None" d="M189.9 194.7 C 174 193.8, 163.35 192.45, 150 187.5"></path><path stroke="Black" stroke-width="1.3693063937629153" fill="None" d="M150 187.5 C 150 168.75, 150 161.25, 150 150"></path><path stroke="Black" stroke-width="1.3693063937629153" fill="None" d="M150 150 C 156 144, 163.5 136.5, 168.45 131.55"></path><path stroke="Black" stroke-width="1.3693063937629153" fill="None" d="M177.75 181.5 C 168.3 184.8, 161.1 183.89999999999998, 151.95 178.8"></path><path stroke="Black" stroke-width="1.3693063937629153" fill="None" d="M174 165.75 C 165 171.3, 159.75 172.05, 151.65 168.9"></path><path stroke="Black" stroke-width="1.3693063937629153" fill="None" d="M172.8 150.3 C 165 159.6, 161.7 160.2, 151.65 159.45"></path><path stroke="Black" stroke-width="1.3693063937629153" fill="None" d="M157.35 137.7 C 155.25 135, 153 132.75, 151.5 132.15"></path><path stroke="Black" stroke-width="1.3693063937629153" fill="None" d="M161.85 133.2 C 159 127.5, 156.75 125.25, 151.2 123.75"></path><path stroke="Black" stroke-width="1.3693063937629153" fill="None" d="M250.5 110.55000000000001 C 243.75 128.25, 234.75 135.75, 224.7 140.4"></path><path stroke="Black" stroke-width="1.3693063937629153" fill="None" d="M243.15 103.19999999999999 C 234 120, 229.5 124.5, 219 131.25"></path><path stroke="Black" stroke-width="1.3693063937629153" fill="None" d="M233.7 93.75 C 226.5 111, 220.5 117, 210 123.15"></path><path stroke="Black" stroke-width="1.3693063937629153" fill="None" d="M228.3 84.44999999999999 C 216 105, 210 111, 201 117.30000000000001"></path><path stroke="Black" stroke-width="1.3693063937629153" fill="None" d="M217.05 173.7 C 213.75 176.55, 212.25 178.05, 210.3 180"></path><path stroke="Black" stroke-width="1.3693063937629153" fill="None" d="M217.05 173.7 C 218.7 181.5, 218.7 189, 217.05 197.85"></path><path stroke="Black" stroke-width="1.3693063937629153" fill="None" d="M217.05 197.85 C 212.25 196.8, 211.2 187.8, 210.3 180"></path><path stroke="Black" stroke-width="1.3693063937629153" fill="None" d="M205.5 182.7 C 202.5 184.5, 198.75 186.75, 196.95 187.8"></path><path stroke="Black" stroke-width="1.3693063937629153" fill="None" d="M205.5 182.7 C 208.5 194.25, 208.5 196.5, 208.2 201.75"></path><path stroke="Black" stroke-width="1.3693063937629153" fill="None" d="M208.2 201.75 C 202.5 195.75, 199.2 192, 196.95 187.8"></path></svg>