<?xml version="1.0" encoding="UTF-8" standalone="no"?>
<svg version="1.1" xmlns="http://www.w3.org/2000/svg" x="0" y="0" width="300" height="300"><polyline stroke="Black" stroke-width="0.9682458365518543" fill="None" points="75,108.75 86.25,116.25 97.5,108.75 105,112.5 90,150"></polyline><polyline stroke="Black" stroke-width="0.9682458365518543" fill="None" points="75,90 86.25,105 97.5,101.25 105,101.25 101.25,90 105,75"></polyline><polyline stroke="Black" stroke-width="0.9682458365518543" fill="None" points="120,75 123.75,90 120,101.25 135,101.25 150,116.25"></polyline><polyline stroke="Black" stroke-width="0.9682458365518543" fill="None" points="150,135 120,112.5 135,150"></polyline><polyline stroke="Black" stroke-width="0.9682458365518543" fill="None" points="105,150 112.5,127.5 120,150"></polyline><polyline stroke="Black" stroke-width="0.9682458365518543" fill="None" points="150,116.25 161.25,108.75 172.5,116.25 180,112.5 165,75"></polyline><polyline stroke="Black" stroke-width="0.9682458365518543" fill="None" points="150,135 161.25,120 172.5,123.75 180,123.75 176.25,135 180,150"></polyline><polyline stroke="Black" stroke-width="0.9682458365518543" fill="None" points="195,150 198.75,135 195,123.75 210,123.75 225,108.75"></polyline><polyline stroke="Black" stroke-width="0.9682458365518543" fill="None" points="225,90 195,112.5 210,75"></polyline><polyline stroke="Black" stroke-width="0.9682458365518543" fill="None" points="180,75 187.5,97.5 195,75"></polyline><polyline stroke="Black" stroke-width="0.9682458365518543" fill="None" points="150,191.25 138.75,183.75 127.5,191.25 120,187.5 135,150"></polyline><polyline stroke="Black" stroke-width="0.9682458365518543" fill="None" points="150,210 138.75,195 127.5,198.75 120,198.75 123.75,210 120,225"></polyline><polyline stroke="Black" stroke-width="0.9682458365518543" fill="None" points="105,225 101.25,210 105,198.75 90,198.75 75,183.75"></polyline><polyline stroke="Black" stroke-width="0.9682458365518543" fill="None" points="75,165 105,187.5 90,150"></polyline><polyline stroke="Black" stroke-width="0.9682458365518543" fill="None" points="120,150 112.5,172.5 105,150"></polyline><polyline stroke="Black" stroke-width="0.9682458365518543" fill="None" points="225,183.75 213.75,191.25 202.5,183.75 195,187.5 210,225"></polyline><polyline stroke="Black" stroke-width="0.9682458365518543" fill="None" points="225,165 213.75,180 202.5,176.25 195,176.25 198.75,165 195,150"></polyline><polyline stroke="Black" stroke-width="0.9682458365518543" fill="None" points="180,150 176.25,165 180,176.25 165,176.25 150,191.25"></polyline><polyline stroke="Black" stroke-width="0.9682458365518543" fill="None" points="150,210 180,187.5 165,225"></polyline><polyline stroke="Black" stroke-width="0.9682458365518543" fill="None" points="195,225 187.5,202.5 180,225"></polyline></svg>