<?xml version="1.0" encoding="UTF-8" standalone="no"?>
<svg version="1.1" xmlns="http://www.w3.org/2000/svg" x="0" y="0" width="300" height="300"><defs><marker id="a-arrow" markerWidth="10" markerHeight="10" refX="9" refY="3" orient="auto" markerUnits="strokeWidth"><path d="M0,0 L0,6 L9,3 z" fill="#88499c"></path></marker><marker id="b-arrow" markerWidth="10" markerHeight="10" refX="9" refY="3" orient="auto" markerUnits="strokeWidth"><path d="M0,0 L0,6 L9,3 z" fill="#2381bf"></path></marker><marker id="c-arrow" markerWidth="10" markerHeight="10" refX="9" refY="3" orient="auto" markerUnits="strokeWidth"><path d="M0,0 L0,6 L9,3 z" fill="#27b15b"></path></marker></defs><polyline stroke="Black" stroke-width="1.5850769398613502" fill="None" points="90.5,147.5 119.5,149.5 150.5,141.5 170,142 125,171"></polyline><polyline stroke="Black" stroke-width="1.5850769398613502" fill="None" points="93,135 121,142 151.5,136.5 171.5,134.5 163,128 175,117"></polyline><polyline stroke="Black" stroke-width="1.5850769398613502" fill="None" points="215,113 223,122 211.5,130.5 251.5,126.5 289.5,132.5"></polyline><polyline stroke="Black" stroke-width="1.5850769398613502" fill="None" points="287,145 210,138 245,159"></polyline><polyline stroke="Black" stroke-width="1.5850769398613502" fill="None" points="165,167 188,150 205,163"></polyline><polyline stroke="Black" stroke-width="1.5850769398613502" fill="None" points="279.5,182.5 250.5,180.5 219.5,188.5 200,188 245,159"></polyline><polyline stroke="Black" stroke-width="1.5850769398613502" fill="None" points="277,195 249,188 218.5,193.5 198.5,195.5 207,202 195,213"></polyline><polyline stroke="Black" stroke-width="1.5850769398613502" fill="None" points="155,217 147,208 158.5,199.5 118.5,203.5 80.5,197.5"></polyline><polyline stroke="Black" stroke-width="1.5850769398613502" fill="None" points="83,185 160,192 125,171"></polyline><polyline stroke="Black" stroke-width="1.5850769398613502" fill="None" points="205,163 182,180 165,167"></polyline><polyline stroke="Grey" stroke-width="1" stroke-dasharray="2,2" fill="None" points="75,225 275,205 295,105 95,125 75,225"></polyline><line x1="0" y1="300" x2="75" y2="225" stroke="#88499c" stroke-width="1.5" marker-end="url(#a-arrow)"></line><line x1="75" y1="225" x2="275" y2="205" stroke="#2381bf" stroke-width="1.5" marker-end="url(#b-arrow)"></line><line x1="75" y1="225" x2="95" y2="125" stroke="#27b15b" stroke-width="1.5" marker-end="url(#c-arrow)"></line><line x1="0" y1="300" x2="300" y2="300" stroke="black" stroke-width="1.5"></line><line x1="0" y1="0" x2="0" y2="300" stroke="black" stroke-width="1.5"></line><line x1="0" y1="300" x2="0" y2="297" stroke="black" stroke-width="1.0"></line><line x1="20" y1="300" x2="20" y2="297" stroke="black" stroke-width="1.0"></line><line x1="40" y1="300" x2="40" y2="297" stroke="black" stroke-width="1.0"></line><line x1="60" y1="300" x2="60" y2="297" stroke="black" stroke-width="1.0"></line><line x1="80" y1="300" x2="80" y2="297" stroke="black" stroke-width="1.0"></line><line x1="100" y1="300" x2="100" y2="297" stroke="black" stroke-width="1.0"></line><line x1="120" y1="300" x2="120" y2="297" stroke="black" stroke-width="1.0"></line><line x1="140" y1="300" x2="140" y2="297" stroke="black" stroke-width="1.0"></line><line x1="160" y1="300" x2="160" y2="297" stroke="black" stroke-width="1.0"></line><line x1="180" y1="300" x2="180" y2="297" stroke="black" stroke-width="1.0"></line><line x1="200" y1="300" x2="200" y2="297" stroke="black" stroke-width="1.0"></line><line x1="220" y1="300" x2="220" y2="297" stroke="black" stroke-width="1.0"></line><line x1="240" y1="300" x2="240" y2="297" stroke="black" stroke-width="1.0"></line><line x1="260" y1="300" x2="260" y2="297" stroke="black" stroke-width="1.0"></line><line x1="280" y1="300" x2="280" y2="297" stroke="black" stroke-width="1.0"></line><line x1="300" y1="300" x2="300" y2="297" stroke="black" stroke-width="1.0"></line><line x1="0" y1="300" x2="3" y2="300" stroke="black" stroke-width="1.0"></line><line x1="0" y1="280" x2="3" y2="280" stroke="black" stroke-width="1.0"></line><line x1="0" y1="260" x2="3" y2="260" stroke="black" stroke-width="1.0"></line><line x1="0" y1="240" x2="3" y2="240" stroke="black" stroke-width="1.0"></line><line x1="0" y1="220" x2="3" y2="220" stroke="black" stroke-width="1.0"></line><line x1="0" y1="200" x2="3" y2="200" stroke="black" stroke-width="1.0"></line><line x1="0" y1="180" x2="3" y2="180" stroke="black" stroke-width="1.0"></line><line x1="0" y1="160" x2="3" y2="160" stroke="black" stroke-width="1.0"></line><line x1="0" y1="140" x2="3" y2="140" stroke="black" stroke-width="1.0"></line><line x1="0" y1="120" x2="3" y2="120" stroke="black" stroke-width="1.0"></line><line x1="0" y1="100" x2="3" y2="100" stroke="black" stroke-width="1.0"></line><line x1="0" y1="80" x2="3" y2="80" stroke="black" stroke-width="1.0"></line><line x1="0" y1="60" x2="3" y2="60" stroke="black" stroke-width="1.0"></line><line x1="0" y1="40" x2="3" y2="40" stroke="black" stroke-width="1.0"></line><line x1="0" y1="20" x2="3" y2="20" stroke="black" stroke-width="1.0"></line><line x1="0" y1="0" x2="3" y2="0" stroke="black" stroke-width="1.0"></line></svg>