<?xml version="1.0" encoding="UTF-8" standalone="no"?>
<svg version="1.1" xmlns="http://www.w3.org/2000/svg" x="0" y="0" width="300" height="300"><polyline stroke="Black" stroke-width="0.8141944530407882" fill="None" points="91.875,91.875 101.25,90 103.125,80.625 108.75,78.75 120,105"></polyline><polyline stroke="Black" stroke-width="0.8141944530407882" fill="None" points="82.5,82.5 95.625,84.375 99.375,76.875 103.125,73.125 95.625,69.375 90,60"></polyline><polyline stroke="Black" stroke-width="0.8141944530407882" fill="None" points="97.5,52.5 106.875,58.125 110.625,65.625 118.125,58.125 133.125,58.125"></polyline><polyline stroke="Black" stroke-width="0.8141944530407882" fill="None" points="142.5,67.5 116.25,71.25 142.5,82.5"></polyline><polyline stroke="Black" stroke-width="0.8141944530407882" fill="None" points="127.5,97.5 120,82.5 135,90"></polyline><polyline stroke="Black" stroke-width="0.8141944530407882" fill="None" points="133.125,58.125 135,48.75 144.375,46.875 146.25,41.25 120,30"></polyline><polyline stroke="Black" stroke-width="0.8141944530407882" fill="None" points="142.5,67.5 140.625,54.375 148.125,50.625 151.875,46.875 155.625,54.375 165,60"></polyline><polyline stroke="Black" stroke-width="0.8141944530407882" fill="None" points="172.5,52.5 166.875,43.125 159.375,39.375 166.875,31.875 166.875,16.875"></polyline><polyline stroke="Black" stroke-width="0.8141944530407882" fill="None" points="157.5,7.5 153.75,33.75 142.5,7.5"></polyline><polyline stroke="Black" stroke-width="0.8141944530407882" fill="None" points="127.5,22.5 142.5,30 135,15"></polyline><polyline stroke="Black" stroke-width="0.8141944530407882" fill="None" points="170.625,95.625 161.25,97.5 159.375,106.875 153.75,108.75 142.5,82.5"></polyline><polyline stroke="Black" stroke-width="0.8141944530407882" fill="None" points="180,105 166.875,103.125 163.125,110.625 159.375,114.375 166.875,118.125 172.5,127.5"></polyline><polyline stroke="Black" stroke-width="0.8141944530407882" fill="None" points="165,135 155.625,129.375 151.875,121.875 144.375,129.375 129.375,129.375"></polyline><polyline stroke="Black" stroke-width="0.8141944530407882" fill="None" points="120,120 146.25,116.25 120,105"></polyline><polyline stroke="Black" stroke-width="0.8141944530407882" fill="None" points="135,90 142.5,105 127.5,97.5"></polyline><polyline stroke="Black" stroke-width="0.8141944530407882" fill="None" points="204.375,54.375 202.5,63.75 193.125,65.625 191.25,71.25 217.5,82.5"></polyline><polyline stroke="Black" stroke-width="0.8141944530407882" fill="None" points="195,45 196.875,58.125 189.375,61.875 185.625,65.625 181.875,58.125 172.5,52.5"></polyline><polyline stroke="Black" stroke-width="0.8141944530407882" fill="None" points="165,60 170.625,69.375 178.125,73.125 170.625,80.625 170.625,95.625"></polyline><polyline stroke="Black" stroke-width="0.8141944530407882" fill="None" points="180,105 183.75,78.75 195,105"></polyline><polyline stroke="Black" stroke-width="0.8141944530407882" fill="None" points="210,90 195,82.5 202.5,97.5"></polyline></svg>