<?xml version="1.0" encoding="UTF-8" standalone="no"?>
<svg version="1.1" xmlns="http://www.w3.org/2000/svg" x="0" y="0" width="300" height="300"><polyline stroke="Black" stroke-width="1.3693063937629153" fill="None" points="75,97.5 97.5,102.5 120,97.5 135,100 105,125"></polyline><polyline stroke="Black" stroke-width="1.3693063937629153" fill="None" points="75,85 97.5,95 120,92.5 135,92.5 127.5,85 135,75"></polyline><polyline stroke="Black" stroke-width="1.3693063937629153" fill="None" points="165,75 172.5,85 165,92.5 195,92.5 225,102.5"></polyline><polyline stroke="Black" stroke-width="1.3693063937629153" fill="None" points="225,115 165,100 195,125"></polyline><polyline stroke="Black" stroke-width="1.3693063937629153" fill="None" points="135,125 150,110 165,125"></polyline><polyline stroke="Black" stroke-width="1.3693063937629153" fill="None" points="225,152.5 202.5,147.5 180,152.5 165,150 195,125"></polyline><polyline stroke="Black" stroke-width="1.3693063937629153" fill="None" points="225,165 202.5,155 180,157.5 165,157.5 172.5,165 165,175"></polyline><polyline stroke="Black" stroke-width="1.3693063937629153" fill="None" points="135,175 127.5,165 135,157.5 105,157.5 75,147.5"></polyline><polyline stroke="Black" stroke-width="1.3693063937629153" fill="None" points="75,135 135,150 105,125"></polyline><polyline stroke="Black" stroke-width="1.3693063937629153" fill="None" points="165,125 150,140 135,125"></polyline><polyline stroke="Black" stroke-width="1.3693063937629153" fill="None" points="75,197.5 97.5,202.5 120,197.5 135,200 105,225"></polyline><polyline stroke="Black" stroke-width="1.3693063937629153" fill="None" points="75,185 97.5,195 120,192.5 135,192.5 127.5,185 135,175"></polyline><polyline stroke="Black" stroke-width="1.3693063937629153" fill="None" points="165,175 172.5,185 165,192.5 195,192.5 225,202.5"></polyline><polyline stroke="Black" stroke-width="1.3693063937629153" fill="None" points="225,215 165,200 195,225"></polyline><polyline stroke="Black" stroke-width="1.3693063937629153" fill="None" points="135,225 150,210 165,225"></polyline></svg>