<?xml version="1.0" encoding="UTF-8" standalone="no"?>
<svg version="1.1" xmlns="http://www.w3.org/2000/svg" x="0" y="0" width="300" height="300"><polyline stroke="Black" stroke-width="1.3693063937629153" fill="None" points="75,142.5 82.5,157.5 90,142.5 95,150 85,225"></polyline><polyline stroke="Black" stroke-width="1.3693063937629153" fill="None" points="75,105 82.5,135 90,127.5 95,127.5 92.5,105 95,75"></polyline><polyline stroke="Black" stroke-width="1.3693063937629153" fill="None" points="105,75 107.5,105 105,127.5 115,127.5 125,157.5"></polyline><polyline stroke="Black" stroke-width="1.3693063937629153" fill="None" points="125,195 105,150 115,225"></polyline><polyline stroke="Black" stroke-width="1.3693063937629153" fill="None" points="95,225 100,180 105,225"></polyline><polyline stroke="Black" stroke-width="1.3693063937629153" fill="None" points="175,142.5 167.5,157.5 160,142.5 155,150 165,225"></polyline><polyline stroke="Black" stroke-width="1.3693063937629153" fill="None" points="175,105 167.5,135 160,127.5 155,127.5 157.5,105 155,75"></polyline><polyline stroke="Black" stroke-width="1.3693063937629153" fill="None" points="145,75 142.5,105 145,127.5 135,127.5 125,157.5"></polyline><polyline stroke="Black" stroke-width="1.3693063937629153" fill="None" points="125,195 145,150 135,225"></polyline><polyline stroke="Black" stroke-width="1.3693063937629153" fill="None" points="155,225 150,180 145,225"></polyline><polyline stroke="Black" stroke-width="1.3693063937629153" fill="None" points="175,142.5 182.5,157.5 190,142.5 195,150 185,225"></polyline><polyline stroke="Black" stroke-width="1.3693063937629153" fill="None" points="175,105 182.5,135 190,127.5 195,127.5 192.5,105 195,75"></polyline><polyline stroke="Black" stroke-width="1.3693063937629153" fill="None" points="205,75 207.5,105 205,127.5 215,127.5 225,157.5"></polyline><polyline stroke="Black" stroke-width="1.3693063937629153" fill="None" points="225,195 205,150 215,225"></polyline><polyline stroke="Black" stroke-width="1.3693063937629153" fill="None" points="195,225 200,180 205,225"></polyline></svg>