<?xml version="1.0" encoding="UTF-8" standalone="no"?>
<svg version="1.1" xmlns="http://www.w3.org/2000/svg" x="0" y="0" width="300" height="300"><polygon stroke="Black" stroke-width="0.7905694150420949" fill="None" points="90,115 95,115 95,102.5 105,102.5 105,115 110,115 110,85 105,85 105,97.5 95,97.5 95,85 90,85"></polygon><polygon stroke="Black" stroke-width="0.7905694150420949" fill="None" points="140,115 160,115 160,110 145,110 145,102.5 155,102.5 155,97.5 145,97.5 145,90 160,90 160,85 140,85"></polygon><polygon stroke="Black" stroke-width="0.7905694150420949" fill="None" points="190,115 195,115 195,95 205,115 210,115 210,85 205,85 205,105 195,85 190,85"></polygon><polygon stroke="Black" stroke-width="0.7905694150420949" fill="None" points="90,165 102.5,165 110,157.5 110,142.5 102.5,135 90,135"></polygon><polygon stroke="Black" stroke-width="0.7905694150420949" fill="None" points="95,160 101,160 105,156 105,144 101,140 95,140"></polygon><polygon stroke="Black" stroke-width="0.7905694150420949" fill="None" points="140,165 160,165 160,160 145,160 145,152.5 155,152.5 155,147.5 145,147.5 145,140 160,140 160,135 140,135"></polygon><polygon stroke="Black" stroke-width="0.7905694150420949" fill="None" points="190,165 195,165 195,152.5 197.5,152.5 205,165 210,165 202.5,152.5 210,152.5 210,135 190,135"></polygon><polygon stroke="Black" stroke-width="0.7905694150420949" fill="None" points="195,147.5 205,147.5 205,140 195,140"></polygon><polygon stroke="Black" stroke-width="0.7905694150420949" fill="None" points="90,215 110,215 110,197.5 95,197.5 95,190 110,190 110,185 90,185 90,202.5 105,202.5 105,210 90,210"></polygon><polygon stroke="Black" stroke-width="0.7905694150420949" fill="None" points="140,215 160,215 160,185 140,185"></polygon><polygon stroke="Black" stroke-width="0.7905694150420949" fill="None" points="145,210 155,210 155,190 145,190"></polygon><polygon stroke="Black" stroke-width="0.7905694150420949" fill="None" points="190,215 195,215 195,195 205,215 210,215 210,185 205,185 205,205 195,185 190,185"></polygon></svg>