<?xml version="1.0" encoding="UTF-8" standalone="no"?>
<svg version="1.1" xmlns="http://www.w3.org/2000/svg" x="0" y="0" width="300" height="300"><polygon stroke="Black" stroke-width="0.7905694150420949" fill="None" points="90,115 95,115 95,102.5 105,102.5 105,115 110,115 110,85 105,85 105,97.5 95,97.5 95,85 90,85"></polygon><polygon stroke="Black" stroke-width="0.7905694150420949" fill="None" points="140,115 160,115 160,110 145,110 145,102.5 155,102.5 155,97.5 145,97.5 145,90 160,90 160,85 140,85"></polygon><polygon stroke="Black" stroke-width="0.7905694150420949" fill="None" points="190,115 195,115 195,95 205,115 210,115 210,85 205,85 205,105 195,85 190,85"></polygon><polygon stroke="Black" stroke-width="0.7905694150420949" fill="None" points="90,165 102.5,165 110,157.5 110,142.5 102.5,135 90,135"></polygon><polygon stroke="Black" stroke-width="0.7905694150420949" fill="None" points="95,160 101,160 105,156 105,144 101,140 95,140"></polygon><polygon stroke="Black" stroke-width="0.45643546458763845" fill="None" points="130,138.33333333333331 131.66666666666666,138.33333333333331 131.66666666666666,134.16666666666666 135,134.16666666666666 135,138.33333333333331 136.66666666666666,138.33333333333331 136.66666666666666,128.33333333333331 135,128.33333333333331 135,132.5 131.66666666666666,132.5 131.66666666666666,128.33333333333331 130,128.33333333333331"></polygon><polygon stroke="Black" stroke-width="0.4564354645876385" fill="None" points="146.66666666666666,138.33333333333331 153.33333333333331,138.33333333333331 153.33333333333331,136.66666666666666 148.33333333333331,136.66666666666666 148.33333333333331,134.16666666666666 151.66666666666666,134.16666666666666 151.66666666666666,132.5 148.33333333333331,132.5 148.33333333333331,130 153.33333333333331,130 153.33333333333331,128.33333333333331 146.66666666666666,128.33333333333331"></polygon><polygon stroke="Black" stroke-width="0.4564354645876385" fill="None" points="163.33333333333331,138.33333333333331 164.99999999999997,138.33333333333331 164.99999999999997,131.66666666666666 168.33333333333331,138.33333333333331 169.99999999999997,138.33333333333331 169.99999999999997,128.33333333333331 168.33333333333331,128.33333333333331 168.33333333333331,135 164.99999999999997,128.33333333333331 163.33333333333331,128.33333333333331"></polygon><polygon stroke="Black" stroke-width="0.4564354645876385" fill="None" points="130,154.99999999999997 134.16666666666666,154.99999999999997 136.66666666666666,152.49999999999997 136.66666666666666,147.49999999999997 134.16666666666666,144.99999999999997 130,144.99999999999997"></polygon><polygon stroke="Black" stroke-width="0.4564354645876385" fill="None" points="131.66666666666666,153.33333333333331 133.66666666666666,153.33333333333331 135,151.99999999999997 135,147.99999999999997 133.66666666666666,146.66666666666666 131.66666666666666,146.66666666666666"></polygon><polygon stroke="Black" stroke-width="0.26352313834736496" fill="None" points="143.33333333333331,146.1111111111111 143.88888888888889,146.1111111111111 143.88888888888889,144.7222222222222 145,144.7222222222222 145,146.1111111111111 145.55555555555554,146.1111111111111 145.55555555555554,142.77777777777774 145,142.77777777777774 145,144.16666666666666 143.88888888888889,144.16666666666666 143.88888888888889,142.77777777777774 143.33333333333331,142.77777777777774"></polygon><polygon stroke="Black" stroke-width="0.263523138347365" fill="None" points="148.88888888888889,146.1111111111111 151.11111111111111,146.1111111111111 151.11111111111111,145.55555555555554 149.44444444444446,145.55555555555554 149.44444444444446,144.7222222222222 150.55555555555557,144.7222222222222 150.55555555555557,144.16666666666666 149.44444444444446,144.16666666666666 149.44444444444446,143.33333333333331 151.11111111111111,143.33333333333331 151.11111111111111,142.77777777777774 148.88888888888889,142.77777777777774"></polygon><polygon stroke="Black" stroke-width="0.263523138347365" fill="None" points="154.44444444444446,146.1111111111111 155.00000000000003,146.1111111111111 155.00000000000003,143.88888888888886 156.11111111111114,146.1111111111111 156.66666666666669,146.1111111111111 156.66666666666669,142.77777777777774 156.11111111111114,142.77777777777774 156.11111111111114,144.99999999999997 155.00000000000003,142.77777777777774 154.44444444444446,142.77777777777774"></polygon><polygon stroke="Black" stroke-width="0.263523138347365" fill="None" points="143.33333333333331,151.66666666666663 144.7222222222222,151.66666666666663 145.55555555555554,150.8333333333333 145.55555555555554,149.16666666666663 144.7222222222222,148.3333333333333 143.33333333333331,148.3333333333333"></polygon><polygon stroke="Black" stroke-width="0.263523138347365" fill="None" points="143.88888888888889,151.1111111111111 144.55555555555554,151.1111111111111 145,150.66666666666663 145,149.3333333333333 144.55555555555554,148.88888888888886 143.88888888888889,148.88888888888886"></polygon><polygon stroke="Black" stroke-width="0.15214515486254618" fill="None" points="147.77777777777777,148.70370370370367 147.96296296296296,148.70370370370367 147.96296296296296,148.2407407407407 148.33333333333334,148.2407407407407 148.33333333333334,148.70370370370367 148.51851851851853,148.70370370370367 148.51851851851853,147.59259259259255 148.33333333333334,147.59259259259255 148.33333333333334,148.05555555555554 147.96296296296296,148.05555555555554 147.96296296296296,147.59259259259255 147.77777777777777,147.59259259259255"></polygon><polygon stroke="Black" stroke-width="0.15214515486254618" fill="None" points="149.62962962962962,148.70370370370367 150.37037037037038,148.70370370370367 150.37037037037038,148.5185185185185 149.8148148148148,148.5185185185185 149.8148148148148,148.2407407407407 150.1851851851852,148.2407407407407 150.1851851851852,148.05555555555554 149.8148148148148,148.05555555555554 149.8148148148148,147.77777777777774 150.37037037037038,147.77777777777774 150.37037037037038,147.59259259259255 149.62962962962962,147.59259259259255"></polygon><polygon stroke="Black" stroke-width="0.15214515486254618" fill="None" points="151.48148148148147,148.70370370370367 151.66666666666666,148.70370370370367 151.66666666666666,147.96296296296293 152.03703703703704,148.70370370370367 152.22222222222223,148.70370370370367 152.22222222222223,147.59259259259255 152.03703703703704,147.59259259259255 152.03703703703704,148.33333333333331 151.66666666666666,147.59259259259255 151.48148148148147,147.59259259259255"></polygon><polygon stroke="Black" stroke-width="0.15214515486254618" fill="None" points="147.77777777777777,150.55555555555551 148.24074074074076,150.55555555555551 148.51851851851853,150.27777777777774 148.51851851851853,149.7222222222222 148.24074074074076,149.4444444444444 147.77777777777777,149.4444444444444"></polygon><polygon stroke="Black" stroke-width="0.15214515486254618" fill="None" points="147.96296296296296,150.37037037037035 148.1851851851852,150.37037037037035 148.33333333333334,150.2222222222222 148.33333333333334,149.77777777777774 148.1851851851852,149.6296296296296 147.96296296296296,149.6296296296296"></polygon><polygon stroke="Black" stroke-width="0.15214515486254618" fill="None" points="149.62962962962962,150.55555555555551 150.37037037037038,150.55555555555551 150.37037037037038,150.37037037037035 149.8148148148148,150.37037037037035 149.8148148148148,150.09259259259255 150.1851851851852,150.09259259259255 150.1851851851852,149.90740740740736 149.8148148148148,149.90740740740736 149.8148148148148,149.6296296296296 150.37037037037038,149.6296296296296 150.37037037037038,149.4444444444444 149.62962962962962,149.4444444444444"></polygon><polygon stroke="Black" stroke-width="0.15214515486254618" fill="None" points="151.48148148148147,150.55555555555551 151.66666666666666,150.55555555555551 151.66666666666666,150.09259259259255 151.75925925925927,150.09259259259255 152.03703703703704,150.55555555555551 152.22222222222223,150.55555555555551 151.94444444444446,150.09259259259255 152.22222222222223,150.09259259259255 152.22222222222223,149.4444444444444 151.48148148148147,149.4444444444444"></polygon><polygon stroke="Black" stroke-width="0.15214515486254618" fill="None" points="151.66666666666666,149.90740740740736 152.03703703703704,149.90740740740736 152.03703703703704,149.6296296296296 151.66666666666666,149.6296296296296"></polygon><polygon stroke="Black" stroke-width="0.15214515486254618" fill="None" points="147.77777777777777,152.40740740740736 148.51851851851853,152.40740740740736 148.51851851851853,151.7592592592592 147.96296296296296,151.7592592592592 147.96296296296296,151.48148148148144 148.51851851851853,151.48148148148144 148.51851851851853,151.29629629629625 147.77777777777777,151.29629629629625 147.77777777777777,151.9444444444444 148.33333333333334,151.9444444444444 148.33333333333334,152.2222222222222 147.77777777777777,152.2222222222222"></polygon><polygon stroke="Black" stroke-width="0.15214515486254618" fill="None" points="149.62962962962962,152.40740740740736 150.37037037037038,152.40740740740736 150.37037037037038,151.29629629629625 149.62962962962962,151.29629629629625"></polygon><polygon stroke="Black" stroke-width="0.15214515486254618" fill="None" points="149.8148148148148,152.2222222222222 150.1851851851852,152.2222222222222 150.1851851851852,151.48148148148144 149.8148148148148,151.48148148148144"></polygon><polygon stroke="Black" stroke-width="0.15214515486254618" fill="None" points="151.48148148148147,152.40740740740736 151.66666666666666,152.40740740740736 151.66666666666666,151.66666666666663 152.03703703703704,152.40740740740736 152.22222222222223,152.40740740740736 152.22222222222223,151.29629629629625 152.03703703703704,151.29629629629625 152.03703703703704,152.037037037037 151.66666666666666,151.29629629629625 151.48148148148147,151.29629629629625"></polygon><polygon stroke="Black" stroke-width="0.263523138347365" fill="None" points="154.44444444444446,151.66666666666663 155.00000000000003,151.66666666666663 155.00000000000003,150.27777777777774 155.2777777777778,150.27777777777774 156.11111111111114,151.66666666666663 156.66666666666669,151.66666666666663 155.83333333333337,150.27777777777774 156.66666666666669,150.27777777777774 156.66666666666669,148.3333333333333 154.44444444444446,148.3333333333333"></polygon><polygon stroke="Black" stroke-width="0.263523138347365" fill="None" points="155.00000000000003,149.72222222222217 156.11111111111114,149.72222222222217 156.11111111111114,148.88888888888886 155.00000000000003,148.88888888888886"></polygon><polygon stroke="Black" stroke-width="0.263523138347365" fill="None" points="143.33333333333331,157.2222222222222 145.55555555555554,157.2222222222222 145.55555555555554,155.27777777777777 143.88888888888889,155.27777777777777 143.88888888888889,154.44444444444443 145.55555555555554,154.44444444444443 145.55555555555554,153.88888888888886 143.33333333333331,153.88888888888886 143.33333333333331,155.83333333333331 145,155.83333333333331 145,156.66666666666666 143.33333333333331,156.66666666666666"></polygon><polygon stroke="Black" stroke-width="0.263523138347365" fill="None" points="148.88888888888889,157.2222222222222 151.11111111111111,157.2222222222222 151.11111111111111,153.88888888888886 148.88888888888889,153.88888888888886"></polygon><polygon stroke="Black" stroke-width="0.263523138347365" fill="None" points="149.44444444444446,156.66666666666666 150.55555555555557,156.66666666666666 150.55555555555557,154.44444444444443 149.44444444444446,154.44444444444443"></polygon><polygon stroke="Black" stroke-width="0.263523138347365" fill="None" points="154.44444444444446,157.2222222222222 155.00000000000003,157.2222222222222 155.00000000000003,154.99999999999997 156.11111111111114,157.2222222222222 156.66666666666669,157.2222222222222 156.66666666666669,153.88888888888886 156.11111111111114,153.88888888888886 156.11111111111114,156.1111111111111 155.00000000000003,153.88888888888886 154.44444444444446,153.88888888888886"></polygon><polygon stroke="Black" stroke-width="0.4564354645876385" fill="None" points="163.33333333333331,154.99999999999997 164.99999999999997,154.99999999999997 164.99999999999997,150.83333333333331 165.83333333333331,150.83333333333331 168.33333333333331,154.99999999999997 169.99999999999997,154.99999999999997 167.49999999999997,150.83333333333331 169.99999999999997,150.83333333333331 169.99999999999997,144.99999999999997 163.33333333333331,144.99999999999997"></polygon><polygon stroke="Black" stroke-width="0.4564354645876385" fill="None" points="164.99999999999997,149.16666666666666 168.33333333333331,149.16666666666666 168.33333333333331,146.66666666666666 164.99999999999997,146.66666666666666"></polygon><polygon stroke="Black" stroke-width="0.4564354645876385" fill="None" points="130,171.66666666666666 136.66666666666666,171.66666666666666 136.66666666666666,165.83333333333334 131.66666666666666,165.83333333333334 131.66666666666666,163.33333333333334 136.66666666666666,163.33333333333334 136.66666666666666,161.66666666666666 130,161.66666666666666 130,167.5 135,167.5 135,170 130,170"></polygon><polygon stroke="Black" stroke-width="0.4564354645876385" fill="None" points="146.66666666666666,171.66666666666666 153.33333333333331,171.66666666666666 153.33333333333331,161.66666666666666 146.66666666666666,161.66666666666666"></polygon><polygon stroke="Black" stroke-width="0.4564354645876385" fill="None" points="148.33333333333331,170 151.66666666666666,170 151.66666666666666,163.33333333333334 148.33333333333331,163.33333333333334"></polygon><polygon stroke="Black" stroke-width="0.4564354645876385" fill="None" points="163.33333333333331,171.66666666666666 164.99999999999997,171.66666666666666 164.99999999999997,165 168.33333333333331,171.66666666666666 169.99999999999997,171.66666666666666 169.99999999999997,161.66666666666666 168.33333333333331,161.66666666666666 168.33333333333331,168.33333333333334 164.99999999999997,161.66666666666666 163.33333333333331,161.66666666666666"></polygon><polygon stroke="Black" stroke-width="0.7905694150420949" fill="None" points="190,165 195,165 195,152.5 197.5,152.5 205,165 210,165 202.5,152.5 210,152.5 210,135 190,135"></polygon><polygon stroke="Black" stroke-width="0.7905694150420949" fill="None" points="195,147.5 205,147.5 205,140 195,140"></polygon><polygon stroke="Black" stroke-width="0.7905694150420949" fill="None" points="90,215 110,215 110,197.5 95,197.5 95,190 110,190 110,185 90,185 90,202.5 105,202.5 105,210 90,210"></polygon><polygon stroke="Black" stroke-width="0.7905694150420949" fill="None" points="140,215 160,215 160,185 140,185"></polygon><polygon stroke="Black" stroke-width="0.7905694150420949" fill="None" points="145,210 155,210 155,190 145,190"></polygon><polygon stroke="Black" stroke-width="0.7905694150420949" fill="None" points="190,215 195,215 195,195 205,215 210,215 210,185 205,185 205,205 195,185 190,185"></polygon></svg>