<?xml version="1.0" encoding="UTF-8" standalone="no"?>
<svg version="1.1" xmlns="http://www.w3.org/2000/svg" x="0" y="0" width="450" height="450"><polygon stroke="Black" stroke-width="1.118033988749895" fill="None" points="105,155 115,155 115,130 135,130 135,155 145,155 145,95 135,95 135,120 115,120 115,95 105,95"></polygon><polygon stroke="Black" stroke-width="1.118033988749895" fill="None" points="205,155 245,155 245,145 215,145 215,130 235,130 235,120 215,120 215,105 245,105 245,95 205,95"></polygon><polygon stroke="Black" stroke-width="1.118033988749895" fill="None" points="305,155 315,155 315,115 335,155 345,155 345,95 335,95 335,135 315,95 305,95"></polygon><polygon stroke="Black" stroke-width="1.118033988749895" fill="None" points="105,255 130,255 145,240 145,210 130,195 105,195"></polygon><polygon stroke="Black" stroke-width="1.118033988749895" fill="None" points="115,245 127,245 135,237 135,213 127,205 115,205"></polygon><polygon stroke="Black" stroke-width="0.6454972243679028" fill="None" points="185,201.66666666666666 188.33333333333334,201.66666666666666 188.33333333333334,193.33333333333331 195,193.33333333333331 195,201.66666666666666 198.33333333333334,201.66666666666666 198.33333333333334,181.66666666666663 195,181.66666666666663 195,190 188.33333333333334,190 188.33333333333334,181.66666666666663 185,181.66666666666663"></polygon><polygon stroke="Black" stroke-width="0.6454972243679029" fill="None" points="218.33333333333334,201.66666666666666 231.66666666666669,201.66666666666666 231.66666666666669,198.33333333333331 221.66666666666669,198.33333333333331 221.66666666666669,193.33333333333331 228.33333333333334,193.33333333333331 228.33333333333334,190 221.66666666666669,190 221.66666666666669,185 231.66666666666669,185 231.66666666666669,181.66666666666663 218.33333333333334,181.66666666666663"></polygon><polygon stroke="Black" stroke-width="0.6454972243679029" fill="None" points="251.66666666666669,201.66666666666666 255.00000000000003,201.66666666666666 255.00000000000003,188.33333333333331 261.6666666666667,201.66666666666666 265,201.66666666666666 265,181.66666666666663 261.6666666666667,181.66666666666663 261.6666666666667,194.99999999999997 255.00000000000003,181.66666666666663 251.66666666666669,181.66666666666663"></polygon><polygon stroke="Black" stroke-width="0.6454972243679029" fill="None" points="185,235 193.33333333333334,235 198.33333333333334,230 198.33333333333334,219.99999999999997 193.33333333333334,214.99999999999997 185,214.99999999999997"></polygon><polygon stroke="Black" stroke-width="0.6454972243679029" fill="None" points="188.33333333333334,231.66666666666666 192.33333333333334,231.66666666666666 195,229 195,221 192.33333333333334,218.33333333333331 188.33333333333334,218.33333333333331"></polygon><polygon stroke="Black" stroke-width="0.372677996249965" fill="None" points="211.66666666666669,217.2222222222222 212.7777777777778,217.2222222222222 212.7777777777778,214.44444444444443 215,214.44444444444443 215,217.2222222222222 216.11111111111111,217.2222222222222 216.11111111111111,210.55555555555554 215,210.55555555555554 215,213.33333333333331 212.7777777777778,213.33333333333331 212.7777777777778,210.55555555555554 211.66666666666669,210.55555555555554"></polygon><polygon stroke="Black" stroke-width="0.372677996249965" fill="None" points="222.7777777777778,217.2222222222222 227.22222222222223,217.2222222222222 227.22222222222223,216.1111111111111 223.8888888888889,216.1111111111111 223.8888888888889,214.44444444444443 226.11111111111111,214.44444444444443 226.11111111111111,213.33333333333331 223.8888888888889,213.33333333333331 223.8888888888889,211.66666666666666 227.22222222222223,211.66666666666666 227.22222222222223,210.55555555555554 222.7777777777778,210.55555555555554"></polygon><polygon stroke="Black" stroke-width="0.372677996249965" fill="None" points="233.8888888888889,217.2222222222222 235.00000000000003,217.2222222222222 235.00000000000003,212.77777777777777 237.22222222222223,217.2222222222222 238.33333333333334,217.2222222222222 238.33333333333334,210.55555555555554 237.22222222222223,210.55555555555554 237.22222222222223,214.99999999999997 235.00000000000003,210.55555555555554 233.8888888888889,210.55555555555554"></polygon><polygon stroke="Black" stroke-width="0.372677996249965" fill="None" points="211.66666666666669,228.33333333333331 214.44444444444446,228.33333333333331 216.11111111111111,226.66666666666666 216.11111111111111,223.33333333333331 214.44444444444446,221.66666666666666 211.66666666666669,221.66666666666666"></polygon><polygon stroke="Black" stroke-width="0.372677996249965" fill="None" points="212.7777777777778,227.2222222222222 214.11111111111111,227.2222222222222 215,226.33333333333331 215,223.66666666666666 214.11111111111111,222.77777777777777 212.7777777777778,222.77777777777777"></polygon><polygon stroke="Black" stroke-width="0.21516574145596765" fill="None" points="220.55555555555557,222.4074074074074 220.92592592592595,222.4074074074074 220.92592592592595,221.48148148148147 221.66666666666669,221.48148148148147 221.66666666666669,222.4074074074074 222.03703703703704,222.4074074074074 222.03703703703704,220.18518518518516 221.66666666666669,220.18518518518516 221.66666666666669,221.1111111111111 220.92592592592595,221.1111111111111 220.92592592592595,220.18518518518516 220.55555555555557,220.18518518518516"></polygon><polygon stroke="Black" stroke-width="0.21516574145596767" fill="None" points="224.25925925925927,222.4074074074074 225.74074074074073,222.4074074074074 225.74074074074073,222.037037037037 224.62962962962965,222.037037037037 224.62962962962965,221.48148148148147 225.37037037037038,221.48148148148147 225.37037037037038,221.1111111111111 224.62962962962965,221.1111111111111 224.62962962962965,220.55555555555554 225.74074074074073,220.55555555555554 225.74074074074073,220.18518518518516 224.25925925925927,220.18518518518516"></polygon><polygon stroke="Black" stroke-width="0.21516574145596767" fill="None" points="227.96296296296296,222.4074074074074 228.33333333333334,222.4074074074074 228.33333333333334,220.9259259259259 229.07407407407408,222.4074074074074 229.44444444444443,222.4074074074074 229.44444444444443,220.18518518518516 229.07407407407408,220.18518518518516 229.07407407407408,221.66666666666663 228.33333333333334,220.18518518518516 227.96296296296296,220.18518518518516"></polygon><polygon stroke="Black" stroke-width="0.21516574145596767" fill="None" points="220.55555555555557,226.11111111111111 221.4814814814815,226.11111111111111 222.03703703703704,225.55555555555554 222.03703703703704,224.44444444444443 221.4814814814815,223.88888888888889 220.55555555555557,223.88888888888889"></polygon><polygon stroke="Black" stroke-width="0.21516574145596767" fill="None" points="220.92592592592595,225.74074074074073 221.37037037037038,225.74074074074073 221.66666666666669,225.44444444444443 221.66666666666669,224.55555555555554 221.37037037037038,224.25925925925927 220.92592592592595,224.25925925925927"></polygon><polygon stroke="Black" stroke-width="0.21516574145596767" fill="None" points="224.25925925925927,226.11111111111111 225.74074074074073,226.11111111111111 225.74074074074073,225.74074074074073 224.62962962962965,225.74074074074073 224.62962962962965,225.1851851851852 225.37037037037038,225.1851851851852 225.37037037037038,224.8148148148148 224.62962962962965,224.8148148148148 224.62962962962965,224.25925925925927 225.74074074074073,224.25925925925927 225.74074074074073,223.88888888888889 224.25925925925927,223.88888888888889"></polygon><polygon stroke="Black" stroke-width="0.21516574145596767" fill="None" points="227.96296296296296,226.11111111111111 228.33333333333334,226.11111111111111 228.33333333333334,225.1851851851852 228.5185185185185,225.1851851851852 229.07407407407408,226.11111111111111 229.44444444444443,226.11111111111111 228.88888888888889,225.1851851851852 229.44444444444443,225.1851851851852 229.44444444444443,223.88888888888889 227.96296296296296,223.88888888888889"></polygon><polygon stroke="Black" stroke-width="0.21516574145596767" fill="None" points="228.33333333333334,224.8148148148148 229.07407407407408,224.8148148148148 229.07407407407408,224.25925925925927 228.33333333333334,224.25925925925927"></polygon><polygon stroke="Black" stroke-width="0.21516574145596767" fill="None" points="220.55555555555557,229.8148148148148 222.03703703703704,229.8148148148148 222.03703703703704,228.5185185185185 220.92592592592595,228.5185185185185 220.92592592592595,227.96296296296296 222.03703703703704,227.96296296296296 222.03703703703704,227.59259259259258 220.55555555555557,227.59259259259258 220.55555555555557,228.88888888888889 221.66666666666669,228.88888888888889 221.66666666666669,229.44444444444443 220.55555555555557,229.44444444444443"></polygon><polygon stroke="Black" stroke-width="0.21516574145596767" fill="None" points="224.25925925925927,229.8148148148148 225.74074074074073,229.8148148148148 225.74074074074073,227.59259259259258 224.25925925925927,227.59259259259258"></polygon><polygon stroke="Black" stroke-width="0.21516574145596767" fill="None" points="224.62962962962965,229.44444444444443 225.37037037037038,229.44444444444443 225.37037037037038,227.96296296296296 224.62962962962965,227.96296296296296"></polygon><polygon stroke="Black" stroke-width="0.21516574145596767" fill="None" points="227.96296296296296,229.8148148148148 228.33333333333334,229.8148148148148 228.33333333333334,228.33333333333331 229.07407407407408,229.8148148148148 229.44444444444443,229.8148148148148 229.44444444444443,227.59259259259258 229.07407407407408,227.59259259259258 229.07407407407408,229.07407407407405 228.33333333333334,227.59259259259258 227.96296296296296,227.59259259259258"></polygon><polygon stroke="Black" stroke-width="0.372677996249965" fill="None" points="233.8888888888889,228.33333333333331 235.00000000000003,228.33333333333331 235.00000000000003,225.55555555555554 235.55555555555557,225.55555555555554 237.22222222222223,228.33333333333331 238.33333333333334,228.33333333333331 236.66666666666669,225.55555555555554 238.33333333333334,225.55555555555554 238.33333333333334,221.66666666666666 233.8888888888889,221.66666666666666"></polygon><polygon stroke="Black" stroke-width="0.372677996249965" fill="None" points="235.00000000000003,224.44444444444443 237.22222222222223,224.44444444444443 237.22222222222223,222.77777777777777 235.00000000000003,222.77777777777777"></polygon><polygon stroke="Black" stroke-width="0.372677996249965" fill="None" points="211.66666666666669,239.44444444444443 216.11111111111111,239.44444444444443 216.11111111111111,235.55555555555554 212.7777777777778,235.55555555555554 212.7777777777778,233.88888888888889 216.11111111111111,233.88888888888889 216.11111111111111,232.77777777777777 211.66666666666669,232.77777777777777 211.66666666666669,236.66666666666666 215,236.66666666666666 215,238.33333333333331 211.66666666666669,238.33333333333331"></polygon><polygon stroke="Black" stroke-width="0.372677996249965" fill="None" points="222.7777777777778,239.44444444444443 227.22222222222223,239.44444444444443 227.22222222222223,232.77777777777777 222.7777777777778,232.77777777777777"></polygon><polygon stroke="Black" stroke-width="0.372677996249965" fill="None" points="223.8888888888889,238.33333333333331 226.11111111111111,238.33333333333331 226.11111111111111,233.88888888888889 223.8888888888889,233.88888888888889"></polygon><polygon stroke="Black" stroke-width="0.372677996249965" fill="None" points="233.8888888888889,239.44444444444443 235.00000000000003,239.44444444444443 235.00000000000003,235 237.22222222222223,239.44444444444443 238.33333333333334,239.44444444444443 238.33333333333334,232.77777777777777 237.22222222222223,232.77777777777777 237.22222222222223,237.2222222222222 235.00000000000003,232.77777777777777 233.8888888888889,232.77777777777777"></polygon><polygon stroke="Black" stroke-width="0.6454972243679029" fill="None" points="251.66666666666669,235 255.00000000000003,235 255.00000000000003,226.66666666666666 256.6666666666667,226.66666666666666 261.6666666666667,235 265,235 260,226.66666666666666 265,226.66666666666666 265,214.99999999999997 251.66666666666669,214.99999999999997"></polygon><polygon stroke="Black" stroke-width="0.6454972243679029" fill="None" points="255.00000000000003,223.33333333333331 261.6666666666667,223.33333333333331 261.6666666666667,218.33333333333331 255.00000000000003,218.33333333333331"></polygon><polygon stroke="Black" stroke-width="0.6454972243679029" fill="None" points="185,268.33333333333337 198.33333333333334,268.33333333333337 198.33333333333334,256.66666666666663 188.33333333333334,256.66666666666663 188.33333333333334,251.66666666666666 198.33333333333334,251.66666666666666 198.33333333333334,248.33333333333331 185,248.33333333333331 185,260 195,260 195,265 185,265"></polygon><polygon stroke="Black" stroke-width="0.6454972243679029" fill="None" points="218.33333333333334,268.33333333333337 231.66666666666669,268.33333333333337 231.66666666666669,248.33333333333331 218.33333333333334,248.33333333333331"></polygon><polygon stroke="Black" stroke-width="0.6454972243679029" fill="None" points="221.66666666666669,265 228.33333333333334,265 228.33333333333334,251.66666666666666 221.66666666666669,251.66666666666666"></polygon><polygon stroke="Black" stroke-width="0.6454972243679029" fill="None" points="251.66666666666669,268.33333333333337 255.00000000000003,268.33333333333337 255.00000000000003,255 261.6666666666667,268.33333333333337 265,268.33333333333337 265,248.33333333333331 261.6666666666667,248.33333333333331 261.6666666666667,261.66666666666663 255.00000000000003,248.33333333333331 251.66666666666669,248.33333333333331"></polygon><polygon stroke="Black" stroke-width="1.118033988749895" fill="None" points="305,255 315,255 315,230 320,230 335,255 345,255 330,230 345,230 345,195 305,195"></polygon><polygon stroke="Black" stroke-width="1.118033988749895" fill="None" points="315,220 335,220 335,205 315,205"></polygon><polygon stroke="Black" stroke-width="1.118033988749895" fill="None" points="105,355 145,355 145,320 115,320 115,305 145,305 145,295 105,295 105,330 135,330 135,345 105,345"></polygon><polygon stroke="Black" stroke-width="1.118033988749895" fill="None" points="205,355 245,355 245,295 205,295"></polygon><polygon stroke="Black" stroke-width="1.118033988749895" fill="None" points="215,345 235,345 235,305 215,305"></polygon><polygon stroke="Black" stroke-width="1.118033988749895" fill="None" points="305,355 315,355 315,315 335,355 345,355 345,295 335,295 335,335 315,295 305,295"></polygon></svg>