<?xml version="1.0" encoding="UTF-8" standalone="no"?>
<svg version="1.1" xmlns="http://www.w3.org/2000/svg" x="0" y="0" width="300" height="300"><path stroke="Black" stroke-width="0.9682458365518543" fill="None" d="M97.35 216.3 C 127.875 205.5, 130.65 200.25, 144.15 163.875"></path><path stroke="Black" stroke-width="0.9682458365518543" fill="None" d="M147.6 182.7 C 145.8 170.25, 146.85 162.45, 150 150"></path><path stroke="Black" stroke-width="0.9682458365518543" fill="None" d="M131.25 206.25 C 135.45 197.1, 140.1 191.1, 147.6 182.7"></path><path stroke="Black" stroke-width="0.9682458365518543" fill="None" d="M150 225 C 141.75 216.75, 136.875 211.875, 131.25 206.25"></path><path stroke="Black" stroke-width="0.9682458365518543" fill="None" d="M131.25 243.75 C 138.75 236.25, 143.25 231.75, 150 225"></path><path stroke="Black" stroke-width="0.9682458365518543" fill="None" d="M131.25 243.75 C 122.1 239.55, 116.1 234.9, 107.7 227.4"></path><path stroke="Black" stroke-width="0.9682458365518543" fill="None" d="M107.7 227.4 C 123.375 220.875, 125.25 219, 131.25 206.25"></path><path stroke="Black" stroke-width="0.9682458365518543" fill="None" d="M107.7 227.4 C 95.25 229.2, 87.45 228.15, 75 225"></path><path stroke="Black" stroke-width="0.9682458365518543" fill="None" d="M75 225 C 79.65 217.2, 83.025 212.775, 90.15 207.45"></path><path stroke="Black" stroke-width="0.9682458365518543" fill="None" d="M90.15 207.45 C 101.25 197.4, 109.5 207.6, 121.725 196.725"></path><path stroke="Black" stroke-width="0.9682458365518543" fill="None" d="M121.725 196.725 C 123.75 195, 127.5 191.25, 131.25 187.5"></path><path stroke="Black" stroke-width="0.9682458365518543" fill="None" d="M131.25 187.5 C 133.725 180.825, 134.4 175.5, 134.85 167.55"></path><path stroke="Black" stroke-width="0.9682458365518543" fill="None" d="M134.85 167.55 C 141.975 162.225, 145.35 157.8, 150 150"></path><path stroke="Black" stroke-width="0.9682458365518543" fill="None" d="M90.15 207.45 C 90.6 199.5, 91.275 194.175, 93.75 187.5"></path><path stroke="Black" stroke-width="0.9682458365518543" fill="None" d="M93.75 187.5 C 103.125 187.5, 106.875 187.5, 112.5 187.5"></path><path stroke="Black" stroke-width="0.9682458365518543" fill="None" d="M112.5 187.5 C 115.5 190.5, 119.25 194.25, 121.725 196.725"></path><path stroke="Black" stroke-width="0.9682458365518543" fill="None" d="M96.75 201.375 C 95.1 196.65, 95.55000000000001 193.05, 98.1 188.475"></path><path stroke="Black" stroke-width="0.9682458365518543" fill="None" d="M104.625 199.5 C 101.85 195, 101.475 192.375, 103.05 188.325"></path><path stroke="Black" stroke-width="0.9682458365518543" fill="None" d="M112.35 198.9 C 107.7 195, 107.4 193.35, 107.775 188.325"></path><path stroke="Black" stroke-width="0.9682458365518543" fill="None" d="M118.65 191.175 C 120 190.125, 121.125 189, 121.425 188.25"></path><path stroke="Black" stroke-width="0.9682458365518543" fill="None" d="M120.9 193.425 C 123.75 192, 124.875 190.875, 125.625 188.1"></path><path stroke="Black" stroke-width="0.9682458365518543" fill="None" d="M132.225 237.75 C 123.375 234.375, 119.625 229.875, 117.3 224.85"></path><path stroke="Black" stroke-width="0.9682458365518543" fill="None" d="M135.9 234.075 C 127.5 229.5, 125.25 227.25, 121.875 222"></path><path stroke="Black" stroke-width="0.9682458365518543" fill="None" d="M140.625 229.35 C 132 225.75, 129 222.75, 125.925 217.5"></path><path stroke="Black" stroke-width="0.9682458365518543" fill="None" d="M145.275 226.65 C 135 220.5, 132 217.5, 128.85 213"></path><path stroke="Black" stroke-width="0.9682458365518543" fill="None" d="M100.65 221.025 C 99.225 219.375, 98.475 218.625, 97.5 217.65"></path><path stroke="Black" stroke-width="0.9682458365518543" fill="None" d="M100.65 221.025 C 96.75 221.85, 93 221.85, 88.575 221.025"></path><path stroke="Black" stroke-width="0.9682458365518543" fill="None" d="M88.575 221.025 C 89.1 218.625, 93.6 218.1, 97.5 217.65"></path><path stroke="Black" stroke-width="0.9682458365518543" fill="None" d="M96.15 215.25 C 95.25 213.75, 94.125 211.875, 93.6 210.975"></path><path stroke="Black" stroke-width="0.9682458365518543" fill="None" d="M96.15 215.25 C 90.375 216.75, 89.25 216.75, 86.625 216.6"></path><path stroke="Black" stroke-width="0.9682458365518543" fill="None" d="M86.625 216.6 C 89.625 213.75, 91.5 212.1, 93.6 210.975"></path><path stroke="Black" stroke-width="0.8141944530407882" fill="None" d="M81.825 165.525 C 91.6875 186.1875, 90.45 190.2, 79.0125 215.1375"></path><path stroke="Black" stroke-width="0.8141944530407882" fill="None" d="M90.15 207.45 C 83.025 212.775, 79.65 217.2, 75 225"></path><path stroke="Black" stroke-width="0.8141944530407882" fill="None" d="M93.75 187.5 C 91.275 194.175, 90.6 199.5, 90.15 207.45"></path><path stroke="Black" stroke-width="0.8141944530407882" fill="None" d="M112.5 187.5 C 104.25 187.5, 99.375 187.5, 93.75 187.5"></path><path stroke="Black" stroke-width="0.8141944530407882" fill="None" d="M112.5 168.75 C 112.5 176.25, 112.5 180.75, 112.5 187.5"></path><path stroke="Black" stroke-width="0.8141944530407882" fill="None" d="M112.5 168.75 C 105.825 166.275, 100.5 165.6, 92.55 165.15"></path><path stroke="Black" stroke-width="0.8141944530407882" fill="None" d="M92.55 165.15 C 97.125 176.25, 97.125 178.125, 93.75 187.5"></path><path stroke="Black" stroke-width="0.8141944530407882" fill="None" d="M92.55 165.15 C 87.225 158.025, 82.8 154.65, 75 150"></path><path stroke="Black" stroke-width="0.8141944530407882" fill="None" d="M75 150 C 73.42500000000001 156.225, 72.9 160.125, 73.8 166.35"></path><path stroke="Black" stroke-width="0.8141944530407882" fill="None" d="M73.8 166.35 C 74.325 176.925, 83.55 175.95, 84.225 187.5"></path><path stroke="Black" stroke-width="0.8141944530407882" fill="None" d="M84.225 187.5 C 84.375 189.375, 84.375 193.125, 84.375 196.875"></path><path stroke="Black" stroke-width="0.8141944530407882" fill="None" d="M84.375 196.875 C 82.275 201.45, 79.95 204.45, 76.19999999999999 208.65"></path><path stroke="Black" stroke-width="0.8141944530407882" fill="None" d="M76.19999999999999 208.65 C 77.1 214.875, 76.57499999999999 218.775, 75 225"></path><path stroke="Black" stroke-width="0.8141944530407882" fill="None" d="M73.8 166.35 C 70.05 170.55, 67.725 173.55, 65.625 178.125"></path><path stroke="Black" stroke-width="0.8141944530407882" fill="None" d="M65.625 178.125 C 70.3125 182.8125, 72.1875 184.6875, 75 187.5"></path><path stroke="Black" stroke-width="0.8141944530407882" fill="None" d="M75 187.5 C 78 187.5, 81.75 187.5, 84.225 187.5"></path><path stroke="Black" stroke-width="0.8141944530407882" fill="None" d="M74.0625 172.6875 C 70.875 174.225, 69.30000000000001 176.25, 68.2875 179.8125"></path><path stroke="Black" stroke-width="0.8141944530407882" fill="None" d="M77.0625 177.5625 C 73.425 178.425, 71.925 179.55, 70.6875 182.3625"></path><path stroke="Black" stroke-width="0.8141944530407882" fill="None" d="M80.625 181.725 C 76.35 181.35, 75.375 182.025, 73.05000000000001 184.725"></path><path stroke="Black" stroke-width="0.8141944530407882" fill="None" d="M79.9125 188.7375 C 80.0625 189.9375, 80.0625 191.0625, 79.8375 191.5875"></path><path stroke="Black" stroke-width="0.8141944530407882" fill="None" d="M82.1625 188.7375 C 82.875 190.875, 82.875 192, 81.8625 193.7625"></path><path stroke="Black" stroke-width="0.8141944530407882" fill="None" d="M109.9875 172.2375 C 103.875 169.5, 99.75 169.875, 96.075 171.225"></path><path stroke="Black" stroke-width="0.8141944530407882" fill="None" d="M109.9875 175.9125 C 103.5 174, 101.25 174, 96.9375 174.9375"></path><path stroke="Black" stroke-width="0.8141944530407882" fill="None" d="M109.9875 180.6375 C 103.875 178.125, 100.875 178.125, 96.7125 179.2125"></path><path stroke="Black" stroke-width="0.8141944530407882" fill="None" d="M110.9625 184.3125 C 102.75 182.25, 99.75 182.25, 95.925 182.925"></path><path stroke="Black" stroke-width="0.8141944530407882" fill="None" d="M85.8375 164.8125 C 84.3 164.925, 83.55 164.925, 82.575 164.925"></path><path stroke="Black" stroke-width="0.8141944530407882" fill="None" d="M85.8375 164.8125 C 84.3 162.45, 82.425 160.575, 79.80000000000001 158.775"></path><path stroke="Black" stroke-width="0.8141944530407882" fill="None" d="M79.80000000000001 158.775 C 78.8625 160.2375, 80.85 162.75, 82.575 164.925"></path><path stroke="Black" stroke-width="0.8141944530407882" fill="None" d="M80.7 165.45 C 79.5 165.75, 78 166.125, 77.2875 166.3125"></path><path stroke="Black" stroke-width="0.8141944530407882" fill="None" d="M80.7 165.45 C 78.5625 161.8125, 78 161.25, 76.6125 160.0125"></path><path stroke="Black" stroke-width="0.8141944530407882" fill="None" d="M76.6125 160.0125 C 76.6875 162.9375, 76.8 164.7, 77.2875 166.3125"></path><path stroke="Black" stroke-width="0.8141944530407882" fill="None" d="M134.475 156.825 C 113.8125 166.6875, 109.8 165.45, 84.86250000000001 154.0125"></path><path stroke="Black" stroke-width="0.8141944530407882" fill="None" d="M92.55 165.15 C 87.225 158.025, 82.8 154.65, 75 150"></path><path stroke="Black" stroke-width="0.8141944530407882" fill="None" d="M112.5 168.75 C 105.825 166.275, 100.5 165.6, 92.55 165.15"></path><path stroke="Black" stroke-width="0.8141944530407882" fill="None" d="M112.5 187.5 C 112.5 179.25, 112.5 174.375, 112.5 168.75"></path><path stroke="Black" stroke-width="0.8141944530407882" fill="None" d="M131.25 187.5 C 123.75 187.5, 119.25 187.5, 112.5 187.5"></path><path stroke="Black" stroke-width="0.8141944530407882" fill="None" d="M131.25 187.5 C 133.725 180.825, 134.4 175.5, 134.85 167.55"></path><path stroke="Black" stroke-width="0.8141944530407882" fill="None" d="M134.85 167.55 C 123.75 172.125, 121.875 172.125, 112.5 168.75"></path><path stroke="Black" stroke-width="0.8141944530407882" fill="None" d="M134.85 167.55 C 141.975 162.225, 145.35 157.8, 150 150"></path><path stroke="Black" stroke-width="0.8141944530407882" fill="None" d="M150 150 C 143.775 148.425, 139.875 147.9, 133.65 148.8"></path><path stroke="Black" stroke-width="0.8141944530407882" fill="None" d="M133.65 148.8 C 123.075 149.325, 124.05 158.55, 112.5 159.225"></path><path stroke="Black" stroke-width="0.8141944530407882" fill="None" d="M112.5 159.225 C 110.625 159.375, 106.875 159.375, 103.125 159.375"></path><path stroke="Black" stroke-width="0.8141944530407882" fill="None" d="M103.125 159.375 C 98.55 157.275, 95.55 154.95, 91.35 151.2"></path><path stroke="Black" stroke-width="0.8141944530407882" fill="None" d="M91.35 151.2 C 85.125 152.1, 81.225 151.575, 75 150"></path><path stroke="Black" stroke-width="0.8141944530407882" fill="None" d="M133.65 148.8 C 129.45 145.05, 126.45 142.725, 121.875 140.625"></path><path stroke="Black" stroke-width="0.8141944530407882" fill="None" d="M121.875 140.625 C 117.1875 145.3125, 115.3125 147.1875, 112.5 150"></path><path stroke="Black" stroke-width="0.8141944530407882" fill="None" d="M112.5 150 C 112.5 153, 112.5 156.75, 112.5 159.225"></path><path stroke="Black" stroke-width="0.8141944530407882" fill="None" d="M127.3125 149.0625 C 125.775 145.875, 123.75 144.3, 120.1875 143.2875"></path><path stroke="Black" stroke-width="0.8141944530407882" fill="None" d="M122.4375 152.0625 C 121.575 148.425, 120.45 146.925, 117.6375 145.6875"></path><path stroke="Black" stroke-width="0.8141944530407882" fill="None" d="M118.275 155.625 C 118.65 151.35, 117.975 150.375, 115.275 148.05"></path><path stroke="Black" stroke-width="0.8141944530407882" fill="None" d="M111.2625 154.9125 C 110.0625 155.0625, 108.9375 155.0625, 108.4125 154.8375"></path><path stroke="Black" stroke-width="0.8141944530407882" fill="None" d="M111.2625 157.1625 C 109.125 157.875, 108 157.875, 106.2375 156.8625"></path><path stroke="Black" stroke-width="0.8141944530407882" fill="None" d="M127.7625 184.9875 C 130.5 178.875, 130.125 174.75, 128.775 171.075"></path><path stroke="Black" stroke-width="0.8141944530407882" fill="None" d="M124.0875 184.9875 C 126 178.5, 126 176.25, 125.0625 171.9375"></path><path stroke="Black" stroke-width="0.8141944530407882" fill="None" d="M119.3625 184.9875 C 121.875 178.875, 121.875 175.875, 120.7875 171.7125"></path><path stroke="Black" stroke-width="0.8141944530407882" fill="None" d="M115.6875 185.9625 C 117.75 177.75, 117.75 174.75, 117.075 170.925"></path><path stroke="Black" stroke-width="0.8141944530407882" fill="None" d="M135.1875 160.8375 C 135.075 159.3, 135.075 158.55, 135.075 157.575"></path><path stroke="Black" stroke-width="0.8141944530407882" fill="None" d="M135.1875 160.8375 C 137.55 159.3, 139.425 157.425, 141.225 154.8"></path><path stroke="Black" stroke-width="0.8141944530407882" fill="None" d="M141.225 154.8 C 139.7625 153.8625, 137.25 155.85, 135.075 157.575"></path><path stroke="Black" stroke-width="0.8141944530407882" fill="None" d="M134.55 155.7 C 134.25 154.5, 133.875 153, 133.6875 152.2875"></path><path stroke="Black" stroke-width="0.8141944530407882" fill="None" d="M134.55 155.7 C 138.1875 153.5625, 138.75 153, 139.9875 151.6125"></path><path stroke="Black" stroke-width="0.8141944530407882" fill="None" d="M139.9875 151.6125 C 137.0625 151.6875, 135.3 151.8, 133.6875 152.2875"></path><path stroke="Black" stroke-width="0.9682458365518543" fill="None" d="M158.7 172.35 C 169.5 202.875, 174.75 205.65, 211.125 219.15"></path><path stroke="Black" stroke-width="0.9682458365518543" fill="None" d="M192.3 222.6 C 204.75 220.8, 212.55 221.85, 225 225"></path><path stroke="Black" stroke-width="0.9682458365518543" fill="None" d="M168.75 206.25 C 177.9 210.45, 183.9 215.1, 192.3 222.6"></path><path stroke="Black" stroke-width="0.9682458365518543" fill="None" d="M150 225 C 158.25 216.75, 163.125 211.875, 168.75 206.25"></path><path stroke="Black" stroke-width="0.9682458365518543" fill="None" d="M131.25 206.25 C 138.75 213.75, 143.25 218.25, 150 225"></path><path stroke="Black" stroke-width="0.9682458365518543" fill="None" d="M131.25 206.25 C 135.45 197.1, 140.1 191.1, 147.6 182.7"></path><path stroke="Black" stroke-width="0.9682458365518543" fill="None" d="M147.6 182.7 C 154.125 198.375, 156 200.25, 168.75 206.25"></path><path stroke="Black" stroke-width="0.9682458365518543" fill="None" d="M147.6 182.7 C 145.8 170.25, 146.85 162.45, 150 150"></path><path stroke="Black" stroke-width="0.9682458365518543" fill="None" d="M150 150 C 157.8 154.65, 162.225 158.025, 167.55 165.15"></path><path stroke="Black" stroke-width="0.9682458365518543" fill="None" d="M167.55 165.15 C 177.6 176.25, 167.4 184.5, 178.275 196.725"></path><path stroke="Black" stroke-width="0.9682458365518543" fill="None" d="M178.275 196.725 C 180 198.75, 183.75 202.5, 187.5 206.25"></path><path stroke="Black" stroke-width="0.9682458365518543" fill="None" d="M187.5 206.25 C 194.175 208.725, 199.5 209.4, 207.45 209.85"></path><path stroke="Black" stroke-width="0.9682458365518543" fill="None" d="M207.45 209.85 C 212.775 216.975, 217.2 220.35, 225 225"></path><path stroke="Black" stroke-width="0.9682458365518543" fill="None" d="M167.55 165.15 C 175.5 165.6, 180.825 166.275, 187.5 168.75"></path><path stroke="Black" stroke-width="0.9682458365518543" fill="None" d="M187.5 168.75 C 187.5 178.125, 187.5 181.875, 187.5 187.5"></path><path stroke="Black" stroke-width="0.9682458365518543" fill="None" d="M187.5 187.5 C 184.5 190.5, 180.75 194.25, 178.275 196.725"></path><path stroke="Black" stroke-width="0.9682458365518543" fill="None" d="M173.625 171.75 C 178.35 170.1, 181.95 170.55, 186.525 173.1"></path><path stroke="Black" stroke-width="0.9682458365518543" fill="None" d="M175.5 179.625 C 180 176.85, 182.625 176.475, 186.675 178.05"></path><path stroke="Black" stroke-width="0.9682458365518543" fill="None" d="M176.1 187.35 C 180 182.7, 181.65 182.4, 186.675 182.775"></path><path stroke="Black" stroke-width="0.9682458365518543" fill="None" d="M183.825 193.65 C 184.875 195, 186 196.125, 186.75 196.425"></path><path stroke="Black" stroke-width="0.9682458365518543" fill="None" d="M181.575 195.9 C 183 198.75, 184.125 199.875, 186.9 200.625"></path><path stroke="Black" stroke-width="0.9682458365518543" fill="None" d="M137.25 207.225 C 140.625 198.375, 145.125 194.625, 150.15 192.3"></path><path stroke="Black" stroke-width="0.9682458365518543" fill="None" d="M140.925 210.9 C 145.5 202.5, 147.75 200.25, 153 196.875"></path><path stroke="Black" stroke-width="0.9682458365518543" fill="None" d="M145.65 215.625 C 149.25 207, 152.25 204, 157.5 200.925"></path><path stroke="Black" stroke-width="0.9682458365518543" fill="None" d="M148.35 220.275 C 154.5 210, 157.5 207, 162 203.85"></path><path stroke="Black" stroke-width="0.9682458365518543" fill="None" d="M153.975 175.65 C 155.625 174.225, 156.375 173.475, 157.35 172.5"></path><path stroke="Black" stroke-width="0.9682458365518543" fill="None" d="M153.975 175.65 C 153.15 171.75, 153.15 168, 153.975 163.575"></path><path stroke="Black" stroke-width="0.9682458365518543" fill="None" d="M153.975 163.575 C 156.375 164.1, 156.9 168.6, 157.35 172.5"></path><path stroke="Black" stroke-width="0.9682458365518543" fill="None" d="M159.75 171.15 C 161.25 170.25, 163.125 169.125, 164.025 168.6"></path><path stroke="Black" stroke-width="0.9682458365518543" fill="None" d="M159.75 171.15 C 158.25 165.375, 158.25 164.25, 158.4 161.625"></path><path stroke="Black" stroke-width="0.9682458365518543" fill="None" d="M158.4 161.625 C 161.25 164.625, 162.9 166.5, 164.025 168.6"></path><path stroke="Black" stroke-width="0.8141944530407882" fill="None" d="M209.475 156.825 C 188.8125 166.6875, 184.8 165.45, 159.8625 154.0125"></path><path stroke="Black" stroke-width="0.8141944530407882" fill="None" d="M167.55 165.15 C 162.225 158.025, 157.8 154.65, 150 150"></path><path stroke="Black" stroke-width="0.8141944530407882" fill="None" d="M187.5 168.75 C 180.825 166.275, 175.5 165.6, 167.55 165.15"></path><path stroke="Black" stroke-width="0.8141944530407882" fill="None" d="M187.5 187.5 C 187.5 179.25, 187.5 174.375, 187.5 168.75"></path><path stroke="Black" stroke-width="0.8141944530407882" fill="None" d="M206.25 187.5 C 198.75 187.5, 194.25 187.5, 187.5 187.5"></path><path stroke="Black" stroke-width="0.8141944530407882" fill="None" d="M206.25 187.5 C 208.725 180.825, 209.4 175.5, 209.85 167.55"></path><path stroke="Black" stroke-width="0.8141944530407882" fill="None" d="M209.85 167.55 C 198.75 172.125, 196.875 172.125, 187.5 168.75"></path><path stroke="Black" stroke-width="0.8141944530407882" fill="None" d="M209.85 167.55 C 216.975 162.225, 220.35 157.8, 225 150"></path><path stroke="Black" stroke-width="0.8141944530407882" fill="None" d="M225 150 C 218.775 148.425, 214.875 147.9, 208.65 148.8"></path><path stroke="Black" stroke-width="0.8141944530407882" fill="None" d="M208.65 148.8 C 198.075 149.325, 199.05 158.55, 187.5 159.225"></path><path stroke="Black" stroke-width="0.8141944530407882" fill="None" d="M187.5 159.225 C 185.625 159.375, 181.875 159.375, 178.125 159.375"></path><path stroke="Black" stroke-width="0.8141944530407882" fill="None" d="M178.125 159.375 C 173.55 157.275, 170.55 154.95, 166.35 151.2"></path><path stroke="Black" stroke-width="0.8141944530407882" fill="None" d="M166.35 151.2 C 160.125 152.1, 156.225 151.575, 150 150"></path><path stroke="Black" stroke-width="0.8141944530407882" fill="None" d="M208.65 148.8 C 204.45 145.05, 201.45 142.725, 196.875 140.625"></path><path stroke="Black" stroke-width="0.8141944530407882" fill="None" d="M196.875 140.625 C 192.1875 145.3125, 190.3125 147.1875, 187.5 150"></path><path stroke="Black" stroke-width="0.8141944530407882" fill="None" d="M187.5 150 C 187.5 153, 187.5 156.75, 187.5 159.225"></path><path stroke="Black" stroke-width="0.8141944530407882" fill="None" d="M202.3125 149.0625 C 200.775 145.875, 198.75 144.3, 195.1875 143.2875"></path><path stroke="Black" stroke-width="0.8141944530407882" fill="None" d="M197.4375 152.0625 C 196.575 148.425, 195.45 146.925, 192.6375 145.6875"></path><path stroke="Black" stroke-width="0.8141944530407882" fill="None" d="M193.275 155.625 C 193.65 151.35, 192.975 150.375, 190.275 148.05"></path><path stroke="Black" stroke-width="0.8141944530407882" fill="None" d="M186.2625 154.9125 C 185.0625 155.0625, 183.9375 155.0625, 183.4125 154.8375"></path><path stroke="Black" stroke-width="0.8141944530407882" fill="None" d="M186.2625 157.1625 C 184.125 157.875, 183 157.875, 181.2375 156.8625"></path><path stroke="Black" stroke-width="0.8141944530407882" fill="None" d="M202.7625 184.9875 C 205.5 178.875, 205.125 174.75, 203.775 171.075"></path><path stroke="Black" stroke-width="0.8141944530407882" fill="None" d="M199.0875 184.9875 C 201 178.5, 201 176.25, 200.0625 171.9375"></path><path stroke="Black" stroke-width="0.8141944530407882" fill="None" d="M194.3625 184.9875 C 196.875 178.875, 196.875 175.875, 195.7875 171.7125"></path><path stroke="Black" stroke-width="0.8141944530407882" fill="None" d="M190.6875 185.9625 C 192.75 177.75, 192.75 174.75, 192.075 170.925"></path><path stroke="Black" stroke-width="0.8141944530407882" fill="None" d="M210.1875 160.8375 C 210.075 159.3, 210.075 158.55, 210.075 157.575"></path><path stroke="Black" stroke-width="0.8141944530407882" fill="None" d="M210.1875 160.8375 C 212.55 159.3, 214.425 157.425, 216.225 154.8"></path><path stroke="Black" stroke-width="0.8141944530407882" fill="None" d="M216.225 154.8 C 214.7625 153.8625, 212.25 155.85, 210.075 157.575"></path><path stroke="Black" stroke-width="0.8141944530407882" fill="None" d="M209.55 155.7 C 209.25 154.5, 208.875 153, 208.6875 152.2875"></path><path stroke="Black" stroke-width="0.8141944530407882" fill="None" d="M209.55 155.7 C 213.1875 153.5625, 213.75 153, 214.9875 151.6125"></path><path stroke="Black" stroke-width="0.8141944530407882" fill="None" d="M214.9875 151.6125 C 212.0625 151.6875, 210.3 151.8, 208.6875 152.2875"></path><path stroke="Black" stroke-width="0.8141944530407882" fill="None" d="M218.175 209.475 C 208.3125 188.8125, 209.55 184.8, 220.9875 159.8625"></path><path stroke="Black" stroke-width="0.8141944530407882" fill="None" d="M209.85 167.55 C 216.975 162.225, 220.35 157.8, 225 150"></path><path stroke="Black" stroke-width="0.8141944530407882" fill="None" d="M206.25 187.5 C 208.725 180.825, 209.4 175.5, 209.85 167.55"></path><path stroke="Black" stroke-width="0.8141944530407882" fill="None" d="M187.5 187.5 C 195.75 187.5, 200.625 187.5, 206.25 187.5"></path><path stroke="Black" stroke-width="0.8141944530407882" fill="None" d="M187.5 206.25 C 187.5 198.75, 187.5 194.25, 187.5 187.5"></path><path stroke="Black" stroke-width="0.8141944530407882" fill="None" d="M187.5 206.25 C 194.175 208.725, 199.5 209.4, 207.45 209.85"></path><path stroke="Black" stroke-width="0.8141944530407882" fill="None" d="M207.45 209.85 C 202.875 198.75, 202.875 196.875, 206.25 187.5"></path><path stroke="Black" stroke-width="0.8141944530407882" fill="None" d="M207.45 209.85 C 212.775 216.975, 217.2 220.35, 225 225"></path><path stroke="Black" stroke-width="0.8141944530407882" fill="None" d="M225 225 C 226.575 218.775, 227.1 214.875, 226.2 208.65"></path><path stroke="Black" stroke-width="0.8141944530407882" fill="None" d="M226.2 208.65 C 225.675 198.075, 216.45 199.05, 215.775 187.5"></path><path stroke="Black" stroke-width="0.8141944530407882" fill="None" d="M215.775 187.5 C 215.625 185.625, 215.625 181.875, 215.625 178.125"></path><path stroke="Black" stroke-width="0.8141944530407882" fill="None" d="M215.625 178.125 C 217.725 173.55, 220.05 170.55, 223.8 166.35"></path><path stroke="Black" stroke-width="0.8141944530407882" fill="None" d="M223.8 166.35 C 222.9 160.125, 223.425 156.225, 225 150"></path><path stroke="Black" stroke-width="0.8141944530407882" fill="None" d="M226.2 208.65 C 229.95 204.45, 232.275 201.45, 234.375 196.875"></path><path stroke="Black" stroke-width="0.8141944530407882" fill="None" d="M234.375 196.875 C 229.6875 192.1875, 227.8125 190.3125, 225 187.5"></path><path stroke="Black" stroke-width="0.8141944530407882" fill="None" d="M225 187.5 C 222 187.5, 218.25 187.5, 215.775 187.5"></path><path stroke="Black" stroke-width="0.8141944530407882" fill="None" d="M225.9375 202.3125 C 229.125 200.775, 230.7 198.75, 231.7125 195.1875"></path><path stroke="Black" stroke-width="0.8141944530407882" fill="None" d="M222.9375 197.4375 C 226.575 196.575, 228.075 195.45, 229.3125 192.6375"></path><path stroke="Black" stroke-width="0.8141944530407882" fill="None" d="M219.375 193.275 C 223.65 193.65, 224.625 192.975, 226.95 190.275"></path><path stroke="Black" stroke-width="0.8141944530407882" fill="None" d="M220.0875 186.2625 C 219.9375 185.0625, 219.9375 183.9375, 220.1625 183.4125"></path><path stroke="Black" stroke-width="0.8141944530407882" fill="None" d="M217.8375 186.2625 C 217.125 184.125, 217.125 183, 218.1375 181.2375"></path><path stroke="Black" stroke-width="0.8141944530407882" fill="None" d="M190.0125 202.7625 C 196.125 205.5, 200.25 205.125, 203.925 203.775"></path><path stroke="Black" stroke-width="0.8141944530407882" fill="None" d="M190.0125 199.0875 C 196.5 201, 198.75 201, 203.0625 200.0625"></path><path stroke="Black" stroke-width="0.8141944530407882" fill="None" d="M190.0125 194.3625 C 196.125 196.875, 199.125 196.875, 203.2875 195.7875"></path><path stroke="Black" stroke-width="0.8141944530407882" fill="None" d="M189.0375 190.6875 C 197.25 192.75, 200.25 192.75, 204.075 192.075"></path><path stroke="Black" stroke-width="0.8141944530407882" fill="None" d="M214.1625 210.1875 C 215.7 210.075, 216.45 210.075, 217.425 210.075"></path><path stroke="Black" stroke-width="0.8141944530407882" fill="None" d="M214.1625 210.1875 C 215.7 212.55, 217.575 214.425, 220.2 216.225"></path><path stroke="Black" stroke-width="0.8141944530407882" fill="None" d="M220.2 216.225 C 221.1375 214.7625, 219.15 212.25, 217.425 210.075"></path><path stroke="Black" stroke-width="0.8141944530407882" fill="None" d="M219.3 209.55 C 220.5 209.25, 222 208.875, 222.7125 208.6875"></path><path stroke="Black" stroke-width="0.8141944530407882" fill="None" d="M219.3 209.55 C 221.4375 213.1875, 222 213.75, 223.3875 214.9875"></path><path stroke="Black" stroke-width="0.8141944530407882" fill="None" d="M223.3875 214.9875 C 223.3125 212.0625, 223.2 210.3, 222.7125 208.6875"></path></svg>