<?xml version="1.0" encoding="UTF-8" standalone="no"?>
<svg version="1.1" xmlns="http://www.w3.org/2000/svg" x="0" y="0" width="300" height="300"><path stroke="Black" stroke-width="0.6846531968814576" fill="None" d="M86.175 145.65 C 101.4375 140.25, 102.825 137.625, 109.575 119.4375"></path><path stroke="Black" stroke-width="0.6846531968814576" fill="None" d="M111.3 128.85 C 110.4 122.625, 110.925 118.725, 112.5 112.5"></path><path stroke="Black" stroke-width="0.6846531968814576" fill="None" d="M103.125 140.625 C 105.225 136.05, 107.55 133.05, 111.3 128.85"></path><path stroke="Black" stroke-width="0.6846531968814576" fill="None" d="M112.5 150 C 108.375 145.875, 105.9375 143.4375, 103.125 140.625"></path><path stroke="Black" stroke-width="0.6846531968814576" fill="None" d="M103.125 159.375 C 106.875 155.625, 109.125 153.375, 112.5 150"></path><path stroke="Black" stroke-width="0.6846531968814576" fill="None" d="M103.125 159.375 C 98.55 157.275, 95.55 154.95, 91.35 151.2"></path><path stroke="Black" stroke-width="0.6846531968814576" fill="None" d="M91.35 151.2 C 99.1875 147.9375, 100.125 147, 103.125 140.625"></path><path stroke="Black" stroke-width="0.6846531968814576" fill="None" d="M91.35 151.2 C 85.125 152.1, 81.225 151.575, 75 150"></path><path stroke="Black" stroke-width="0.6846531968814576" fill="None" d="M75 150 C 77.325 146.1, 79.0125 143.8875, 82.575 141.225"></path><path stroke="Black" stroke-width="0.6846531968814576" fill="None" d="M82.575 141.225 C 88.125 136.2, 92.25 141.3, 98.3625 135.8625"></path><path stroke="Black" stroke-width="0.6846531968814576" fill="None" d="M98.3625 135.8625 C 99.375 135, 101.25 133.125, 103.125 131.25"></path><path stroke="Black" stroke-width="0.6846531968814576" fill="None" d="M103.125 131.25 C 104.3625 127.9125, 104.7 125.25, 104.925 121.275"></path><path stroke="Black" stroke-width="0.6846531968814576" fill="None" d="M104.925 121.275 C 108.4875 118.61250000000001, 110.175 116.4, 112.5 112.5"></path><path stroke="Black" stroke-width="0.6846531968814576" fill="None" d="M82.575 141.225 C 82.8 137.25, 83.1375 134.5875, 84.375 131.25"></path><path stroke="Black" stroke-width="0.6846531968814576" fill="None" d="M84.375 131.25 C 89.0625 131.25, 90.9375 131.25, 93.75 131.25"></path><path stroke="Black" stroke-width="0.6846531968814576" fill="None" d="M93.75 131.25 C 95.25 132.75, 97.125 134.625, 98.3625 135.8625"></path><path stroke="Black" stroke-width="0.6846531968814576" fill="None" d="M85.875 138.1875 C 85.05 135.825, 85.275 134.025, 86.55 131.7375"></path><path stroke="Black" stroke-width="0.6846531968814576" fill="None" d="M89.8125 137.25 C 88.425 135, 88.2375 133.6875, 89.025 131.6625"></path><path stroke="Black" stroke-width="0.6846531968814576" fill="None" d="M93.675 136.95 C 91.35 135, 91.2 134.175, 91.3875 131.6625"></path><path stroke="Black" stroke-width="0.6846531968814576" fill="None" d="M96.825 133.0875 C 97.5 132.5625, 98.0625 132, 98.2125 131.625"></path><path stroke="Black" stroke-width="0.6846531968814576" fill="None" d="M97.95 134.2125 C 99.375 133.5, 99.9375 132.9375, 100.3125 131.55"></path><path stroke="Black" stroke-width="0.6846531968814576" fill="None" d="M103.6125 156.375 C 99.1875 154.6875, 97.3125 152.4375, 96.15 149.925"></path><path stroke="Black" stroke-width="0.6846531968814576" fill="None" d="M105.45 154.5375 C 101.25 152.25, 100.125 151.125, 98.4375 148.5"></path><path stroke="Black" stroke-width="0.6846531968814576" fill="None" d="M107.8125 152.175 C 103.5 150.375, 102 148.875, 100.4625 146.25"></path><path stroke="Black" stroke-width="0.6846531968814576" fill="None" d="M110.1375 150.825 C 105 147.75, 103.5 146.25, 101.925 144"></path><path stroke="Black" stroke-width="0.6846531968814576" fill="None" d="M87.825 148.0125 C 87.1125 147.1875, 86.7375 146.8125, 86.25 146.325"></path><path stroke="Black" stroke-width="0.6846531968814576" fill="None" d="M87.825 148.0125 C 85.875 148.425, 84 148.425, 81.7875 148.0125"></path><path stroke="Black" stroke-width="0.6846531968814576" fill="None" d="M81.7875 148.0125 C 82.05 146.8125, 84.3 146.55, 86.25 146.325"></path><path stroke="Black" stroke-width="0.6846531968814576" fill="None" d="M85.575 145.125 C 85.125 144.375, 84.5625 143.4375, 84.3 142.9875"></path><path stroke="Black" stroke-width="0.6846531968814576" fill="None" d="M85.575 145.125 C 82.6875 145.875, 82.125 145.875, 80.8125 145.8"></path><path stroke="Black" stroke-width="0.6846531968814576" fill="None" d="M80.8125 145.8 C 82.3125 144.375, 83.25 143.55, 84.3 142.9875"></path><path stroke="Black" stroke-width="0.5757224189496134" fill="None" d="M78.4125 120.26249999999999 C 83.34375 130.59375, 82.725 132.6, 77.00625 145.06875"></path><path stroke="Black" stroke-width="0.5757224189496134" fill="None" d="M82.575 141.225 C 79.0125 143.8875, 77.325 146.1, 75 150"></path><path stroke="Black" stroke-width="0.5757224189496134" fill="None" d="M84.375 131.25 C 83.1375 134.5875, 82.8 137.25, 82.575 141.225"></path><path stroke="Black" stroke-width="0.5757224189496134" fill="None" d="M93.75 131.25 C 89.625 131.25, 87.1875 131.25, 84.375 131.25"></path><path stroke="Black" stroke-width="0.5757224189496134" fill="None" d="M93.75 121.875 C 93.75 125.625, 93.75 127.875, 93.75 131.25"></path><path stroke="Black" stroke-width="0.5757224189496134" fill="None" d="M93.75 121.875 C 90.4125 120.63749999999999, 87.75 120.30000000000001, 83.775 120.07499999999999"></path><path stroke="Black" stroke-width="0.5757224189496134" fill="None" d="M83.775 120.07499999999999 C 86.0625 125.625, 86.0625 126.5625, 84.375 131.25"></path><path stroke="Black" stroke-width="0.5757224189496134" fill="None" d="M83.775 120.07499999999999 C 81.1125 116.51249999999999, 78.9 114.82499999999999, 75 112.5"></path><path stroke="Black" stroke-width="0.5757224189496134" fill="None" d="M75 112.5 C 74.2125 115.61250000000001, 73.95 117.5625, 74.4 120.67500000000001"></path><path stroke="Black" stroke-width="0.5757224189496134" fill="None" d="M74.4 120.67500000000001 C 74.6625 125.9625, 79.275 125.475, 79.6125 131.25"></path><path stroke="Black" stroke-width="0.5757224189496134" fill="None" d="M79.6125 131.25 C 79.6875 132.1875, 79.6875 134.0625, 79.6875 135.9375"></path><path stroke="Black" stroke-width="0.5757224189496134" fill="None" d="M79.6875 135.9375 C 78.6375 138.225, 77.475 139.725, 75.6 141.825"></path><path stroke="Black" stroke-width="0.5757224189496134" fill="None" d="M75.6 141.825 C 76.05 144.9375, 75.7875 146.8875, 75 150"></path><path stroke="Black" stroke-width="0.5757224189496134" fill="None" d="M74.4 120.67500000000001 C 72.525 122.775, 71.3625 124.275, 70.3125 126.5625"></path><path stroke="Black" stroke-width="0.5757224189496134" fill="None" d="M70.3125 126.5625 C 72.65625 128.90625, 73.59375 129.84375, 75 131.25"></path><path stroke="Black" stroke-width="0.5757224189496134" fill="None" d="M75 131.25 C 76.5 131.25, 78.375 131.25, 79.6125 131.25"></path><path stroke="Black" stroke-width="0.5757224189496134" fill="None" d="M74.53125 123.84375 C 72.9375 124.61250000000001, 72.15 125.625, 71.64375 127.40625"></path><path stroke="Black" stroke-width="0.5757224189496134" fill="None" d="M76.03125 126.28125 C 74.2125 126.7125, 73.4625 127.275, 72.84375 128.68125"></path><path stroke="Black" stroke-width="0.5757224189496134" fill="None" d="M77.8125 128.3625 C 75.675 128.175, 75.1875 128.5125, 74.025 129.8625"></path><path stroke="Black" stroke-width="0.5757224189496134" fill="None" d="M77.45625 131.86875 C 77.53125 132.46875, 77.53125 133.03125, 77.41875 133.29375"></path><path stroke="Black" stroke-width="0.5757224189496134" fill="None" d="M78.58125 131.86875 C 78.9375 132.9375, 78.9375 133.5, 78.43125 134.38125"></path><path stroke="Black" stroke-width="0.5757224189496134" fill="None" d="M92.49375 123.61875 C 89.4375 122.25, 87.375 122.4375, 85.5375 123.11250000000001"></path><path stroke="Black" stroke-width="0.5757224189496134" fill="None" d="M92.49375 125.45625000000001 C 89.25 124.5, 88.125 124.5, 85.96875 124.96875"></path><path stroke="Black" stroke-width="0.5757224189496134" fill="None" d="M92.49375 127.81875 C 89.4375 126.5625, 87.9375 126.5625, 85.85625 127.10624999999999"></path><path stroke="Black" stroke-width="0.5757224189496134" fill="None" d="M92.98125 129.65625 C 88.875 128.625, 87.375 128.625, 85.4625 128.9625"></path><path stroke="Black" stroke-width="0.5757224189496134" fill="None" d="M80.41875 119.90625 C 79.65 119.9625, 79.275 119.9625, 78.7875 119.9625"></path><path stroke="Black" stroke-width="0.5757224189496134" fill="None" d="M80.41875 119.90625 C 79.65 118.725, 78.7125 117.7875, 77.4 116.88749999999999"></path><path stroke="Black" stroke-width="0.5757224189496134" fill="None" d="M77.4 116.88749999999999 C 76.93125 117.61875, 77.925 118.875, 78.7875 119.9625"></path><path stroke="Black" stroke-width="0.5757224189496134" fill="None" d="M77.85 120.225 C 77.25 120.375, 76.5 120.5625, 76.14375 120.65625"></path><path stroke="Black" stroke-width="0.5757224189496134" fill="None" d="M77.85 120.225 C 76.78125 118.40625, 76.5 118.125, 75.80625 117.50625"></path><path stroke="Black" stroke-width="0.5757224189496134" fill="None" d="M75.80625 117.50625 C 75.84375 118.96875, 75.9 119.85, 76.14375 120.65625"></path><path stroke="Black" stroke-width="0.5757224189496134" fill="None" d="M104.7375 115.9125 C 94.40625 120.84375, 92.4 120.225, 79.93125 114.50625"></path><path stroke="Black" stroke-width="0.5757224189496134" fill="None" d="M83.775 120.07499999999999 C 81.1125 116.51249999999999, 78.9 114.82499999999999, 75 112.5"></path><path stroke="Black" stroke-width="0.5757224189496134" fill="None" d="M93.75 121.875 C 90.4125 120.63749999999999, 87.75 120.30000000000001, 83.775 120.07499999999999"></path><path stroke="Black" stroke-width="0.5757224189496134" fill="None" d="M93.75 131.25 C 93.75 127.125, 93.75 124.6875, 93.75 121.875"></path><path stroke="Black" stroke-width="0.5757224189496134" fill="None" d="M103.125 131.25 C 99.375 131.25, 97.125 131.25, 93.75 131.25"></path><path stroke="Black" stroke-width="0.5757224189496134" fill="None" d="M103.125 131.25 C 104.3625 127.9125, 104.7 125.25, 104.925 121.275"></path><path stroke="Black" stroke-width="0.5757224189496134" fill="None" d="M104.925 121.275 C 99.375 123.5625, 98.4375 123.5625, 93.75 121.875"></path><path stroke="Black" stroke-width="0.5757224189496134" fill="None" d="M104.925 121.275 C 108.4875 118.61250000000001, 110.175 116.4, 112.5 112.5"></path><path stroke="Black" stroke-width="0.5757224189496134" fill="None" d="M112.5 112.5 C 109.3875 111.7125, 107.4375 111.44999999999999, 104.325 111.9"></path><path stroke="Black" stroke-width="0.5757224189496134" fill="None" d="M104.325 111.9 C 99.0375 112.1625, 99.525 116.775, 93.75 117.11250000000001"></path><path stroke="Black" stroke-width="0.5757224189496134" fill="None" d="M93.75 117.11250000000001 C 92.8125 117.1875, 90.9375 117.1875, 89.0625 117.1875"></path><path stroke="Black" stroke-width="0.5757224189496134" fill="None" d="M89.0625 117.1875 C 86.775 116.13749999999999, 85.275 114.975, 83.175 113.1"></path><path stroke="Black" stroke-width="0.5757224189496134" fill="None" d="M83.175 113.1 C 80.0625 113.55000000000001, 78.1125 113.2875, 75 112.5"></path><path stroke="Black" stroke-width="0.5757224189496134" fill="None" d="M104.325 111.9 C 102.225 110.025, 100.725 108.86250000000001, 98.4375 107.8125"></path><path stroke="Black" stroke-width="0.5757224189496134" fill="None" d="M98.4375 107.8125 C 96.09375 110.15625, 95.15625 111.09375, 93.75 112.5"></path><path stroke="Black" stroke-width="0.5757224189496134" fill="None" d="M93.75 112.5 C 93.75 114, 93.75 115.875, 93.75 117.11250000000001"></path><path stroke="Black" stroke-width="0.5757224189496134" fill="None" d="M101.15625 112.03125 C 100.3875 110.4375, 99.375 109.65, 97.59375 109.14375000000001"></path><path stroke="Black" stroke-width="0.5757224189496134" fill="None" d="M98.71875 113.53125 C 98.2875 111.7125, 97.725 110.9625, 96.31875 110.34375"></path><path stroke="Black" stroke-width="0.5757224189496134" fill="None" d="M96.6375 115.3125 C 96.825 113.17500000000001, 96.4875 112.6875, 95.1375 111.525"></path><path stroke="Black" stroke-width="0.5757224189496134" fill="None" d="M93.13125 114.95625000000001 C 92.53125 115.03125, 91.96875 115.03125, 91.70625 114.91874999999999"></path><path stroke="Black" stroke-width="0.5757224189496134" fill="None" d="M93.13125 116.08125000000001 C 92.0625 116.4375, 91.5 116.4375, 90.61875 115.93125"></path><path stroke="Black" stroke-width="0.5757224189496134" fill="None" d="M101.38125 129.99375 C 102.75 126.9375, 102.5625 124.875, 101.8875 123.0375"></path><path stroke="Black" stroke-width="0.5757224189496134" fill="None" d="M99.54375 129.99375 C 100.5 126.75, 100.5 125.625, 100.03125 123.46875"></path><path stroke="Black" stroke-width="0.5757224189496134" fill="None" d="M97.18125 129.99375 C 98.4375 126.9375, 98.4375 125.4375, 97.89375 123.35624999999999"></path><path stroke="Black" stroke-width="0.5757224189496134" fill="None" d="M95.34375 130.48125 C 96.375 126.375, 96.375 124.875, 96.0375 122.9625"></path><path stroke="Black" stroke-width="0.5757224189496134" fill="None" d="M105.09375 117.91874999999999 C 105.0375 117.15, 105.0375 116.775, 105.0375 116.2875"></path><path stroke="Black" stroke-width="0.5757224189496134" fill="None" d="M105.09375 117.91874999999999 C 106.275 117.15, 107.2125 116.2125, 108.1125 114.9"></path><path stroke="Black" stroke-width="0.5757224189496134" fill="None" d="M108.1125 114.9 C 107.38125 114.43125, 106.125 115.42500000000001, 105.0375 116.2875"></path><path stroke="Black" stroke-width="0.5757224189496134" fill="None" d="M104.775 115.35 C 104.625 114.75, 104.4375 114, 104.34375 113.64375000000001"></path><path stroke="Black" stroke-width="0.5757224189496134" fill="None" d="M104.775 115.35 C 106.59375 114.28125, 106.875 114, 107.49375 113.30625"></path><path stroke="Black" stroke-width="0.5757224189496134" fill="None" d="M107.49375 113.30625 C 106.03125 113.34375, 105.15 113.4, 104.34375 113.64375000000001"></path><path stroke="Black" stroke-width="0.6846531968814576" fill="None" d="M116.85 123.67500000000001 C 122.25 138.9375, 124.875 140.325, 143.0625 147.075"></path><path stroke="Black" stroke-width="0.6846531968814576" fill="None" d="M133.65 148.8 C 139.875 147.9, 143.775 148.425, 150 150"></path><path stroke="Black" stroke-width="0.6846531968814576" fill="None" d="M121.875 140.625 C 126.45 142.725, 129.45 145.05, 133.65 148.8"></path><path stroke="Black" stroke-width="0.6846531968814576" fill="None" d="M112.5 150 C 116.625 145.875, 119.0625 143.4375, 121.875 140.625"></path><path stroke="Black" stroke-width="0.6846531968814576" fill="None" d="M103.125 140.625 C 106.875 144.375, 109.125 146.625, 112.5 150"></path><path stroke="Black" stroke-width="0.6846531968814576" fill="None" d="M103.125 140.625 C 105.225 136.05, 107.55 133.05, 111.3 128.85"></path><path stroke="Black" stroke-width="0.6846531968814576" fill="None" d="M111.3 128.85 C 114.5625 136.6875, 115.5 137.625, 121.875 140.625"></path><path stroke="Black" stroke-width="0.6846531968814576" fill="None" d="M111.3 128.85 C 110.4 122.625, 110.925 118.725, 112.5 112.5"></path><path stroke="Black" stroke-width="0.6846531968814576" fill="None" d="M112.5 112.5 C 116.4 114.82499999999999, 118.6125 116.51249999999999, 121.275 120.07499999999999"></path><path stroke="Black" stroke-width="0.6846531968814576" fill="None" d="M121.275 120.07499999999999 C 126.3 125.625, 121.2 129.75, 126.6375 135.8625"></path><path stroke="Black" stroke-width="0.6846531968814576" fill="None" d="M126.6375 135.8625 C 127.5 136.875, 129.375 138.75, 131.25 140.625"></path><path stroke="Black" stroke-width="0.6846531968814576" fill="None" d="M131.25 140.625 C 134.5875 141.8625, 137.25 142.2, 141.225 142.425"></path><path stroke="Black" stroke-width="0.6846531968814576" fill="None" d="M141.225 142.425 C 143.8875 145.9875, 146.1 147.675, 150 150"></path><path stroke="Black" stroke-width="0.6846531968814576" fill="None" d="M121.275 120.07499999999999 C 125.25 120.30000000000001, 127.9125 120.63749999999999, 131.25 121.875"></path><path stroke="Black" stroke-width="0.6846531968814576" fill="None" d="M131.25 121.875 C 131.25 126.5625, 131.25 128.4375, 131.25 131.25"></path><path stroke="Black" stroke-width="0.6846531968814576" fill="None" d="M131.25 131.25 C 129.75 132.75, 127.875 134.625, 126.6375 135.8625"></path><path stroke="Black" stroke-width="0.6846531968814576" fill="None" d="M124.3125 123.375 C 126.675 122.55000000000001, 128.475 122.775, 130.7625 124.05000000000001"></path><path stroke="Black" stroke-width="0.6846531968814576" fill="None" d="M125.25 127.3125 C 127.5 125.92500000000001, 128.8125 125.73750000000001, 130.8375 126.525"></path><path stroke="Black" stroke-width="0.6846531968814576" fill="None" d="M125.55 131.175 C 127.5 128.85, 128.325 128.7, 130.8375 128.8875"></path><path stroke="Black" stroke-width="0.6846531968814576" fill="None" d="M129.4125 134.325 C 129.9375 135, 130.5 135.5625, 130.875 135.7125"></path><path stroke="Black" stroke-width="0.6846531968814576" fill="None" d="M128.2875 135.45 C 129 136.875, 129.5625 137.4375, 130.95 137.8125"></path><path stroke="Black" stroke-width="0.6846531968814576" fill="None" d="M106.125 141.1125 C 107.8125 136.6875, 110.0625 134.8125, 112.575 133.65"></path><path stroke="Black" stroke-width="0.6846531968814576" fill="None" d="M107.9625 142.95 C 110.25 138.75, 111.375 137.625, 114 135.9375"></path><path stroke="Black" stroke-width="0.6846531968814576" fill="None" d="M110.325 145.3125 C 112.125 141, 113.625 139.5, 116.25 137.9625"></path><path stroke="Black" stroke-width="0.6846531968814576" fill="None" d="M111.675 147.6375 C 114.75 142.5, 116.25 141, 118.5 139.425"></path><path stroke="Black" stroke-width="0.6846531968814576" fill="None" d="M114.4875 125.32499999999999 C 115.3125 124.61250000000001, 115.6875 124.23750000000001, 116.175 123.75"></path><path stroke="Black" stroke-width="0.6846531968814576" fill="None" d="M114.4875 125.32499999999999 C 114.075 123.375, 114.075 121.5, 114.4875 119.2875"></path><path stroke="Black" stroke-width="0.6846531968814576" fill="None" d="M114.4875 119.2875 C 115.6875 119.55000000000001, 115.95 121.80000000000001, 116.175 123.75"></path><path stroke="Black" stroke-width="0.6846531968814576" fill="None" d="M117.375 123.07499999999999 C 118.125 122.625, 119.0625 122.0625, 119.5125 121.80000000000001"></path><path stroke="Black" stroke-width="0.6846531968814576" fill="None" d="M117.375 123.07499999999999 C 116.625 120.1875, 116.625 119.625, 116.7 118.3125"></path><path stroke="Black" stroke-width="0.6846531968814576" fill="None" d="M116.7 118.3125 C 118.125 119.8125, 118.95 120.75, 119.5125 121.80000000000001"></path><path stroke="Black" stroke-width="0.5757224189496134" fill="None" d="M142.2375 115.9125 C 131.90625 120.84375, 129.9 120.225, 117.43125 114.50625"></path><path stroke="Black" stroke-width="0.5757224189496134" fill="None" d="M121.275 120.07499999999999 C 118.6125 116.51249999999999, 116.4 114.82499999999999, 112.5 112.5"></path><path stroke="Black" stroke-width="0.5757224189496134" fill="None" d="M131.25 121.875 C 127.9125 120.63749999999999, 125.25 120.30000000000001, 121.275 120.07499999999999"></path><path stroke="Black" stroke-width="0.5757224189496134" fill="None" d="M131.25 131.25 C 131.25 127.125, 131.25 124.6875, 131.25 121.875"></path><path stroke="Black" stroke-width="0.5757224189496134" fill="None" d="M140.625 131.25 C 136.875 131.25, 134.625 131.25, 131.25 131.25"></path><path stroke="Black" stroke-width="0.5757224189496134" fill="None" d="M140.625 131.25 C 141.8625 127.9125, 142.2 125.25, 142.425 121.275"></path><path stroke="Black" stroke-width="0.5757224189496134" fill="None" d="M142.425 121.275 C 136.875 123.5625, 135.9375 123.5625, 131.25 121.875"></path><path stroke="Black" stroke-width="0.5757224189496134" fill="None" d="M142.425 121.275 C 145.9875 118.61250000000001, 147.675 116.4, 150 112.5"></path><path stroke="Black" stroke-width="0.5757224189496134" fill="None" d="M150 112.5 C 146.8875 111.7125, 144.9375 111.44999999999999, 141.825 111.9"></path><path stroke="Black" stroke-width="0.5757224189496134" fill="None" d="M141.825 111.9 C 136.5375 112.1625, 137.025 116.775, 131.25 117.11250000000001"></path><path stroke="Black" stroke-width="0.5757224189496134" fill="None" d="M131.25 117.11250000000001 C 130.3125 117.1875, 128.4375 117.1875, 126.5625 117.1875"></path><path stroke="Black" stroke-width="0.5757224189496134" fill="None" d="M126.5625 117.1875 C 124.275 116.13749999999999, 122.775 114.975, 120.675 113.1"></path><path stroke="Black" stroke-width="0.5757224189496134" fill="None" d="M120.675 113.1 C 117.5625 113.55000000000001, 115.6125 113.2875, 112.5 112.5"></path><path stroke="Black" stroke-width="0.5757224189496134" fill="None" d="M141.825 111.9 C 139.725 110.025, 138.225 108.86250000000001, 135.9375 107.8125"></path><path stroke="Black" stroke-width="0.5757224189496134" fill="None" d="M135.9375 107.8125 C 133.59375 110.15625, 132.65625 111.09375, 131.25 112.5"></path><path stroke="Black" stroke-width="0.5757224189496134" fill="None" d="M131.25 112.5 C 131.25 114, 131.25 115.875, 131.25 117.11250000000001"></path><path stroke="Black" stroke-width="0.5757224189496134" fill="None" d="M138.65625 112.03125 C 137.8875 110.4375, 136.875 109.65, 135.09375 109.14375000000001"></path><path stroke="Black" stroke-width="0.5757224189496134" fill="None" d="M136.21875 113.53125 C 135.7875 111.7125, 135.225 110.9625, 133.81875 110.34375"></path><path stroke="Black" stroke-width="0.5757224189496134" fill="None" d="M134.1375 115.3125 C 134.325 113.17500000000001, 133.9875 112.6875, 132.6375 111.525"></path><path stroke="Black" stroke-width="0.5757224189496134" fill="None" d="M130.63125 114.95625000000001 C 130.03125 115.03125, 129.46875 115.03125, 129.20625 114.91874999999999"></path><path stroke="Black" stroke-width="0.5757224189496134" fill="None" d="M130.63125 116.08125000000001 C 129.5625 116.4375, 129 116.4375, 128.11875 115.93125"></path><path stroke="Black" stroke-width="0.5757224189496134" fill="None" d="M138.88125 129.99375 C 140.25 126.9375, 140.0625 124.875, 139.3875 123.0375"></path><path stroke="Black" stroke-width="0.5757224189496134" fill="None" d="M137.04375 129.99375 C 138 126.75, 138 125.625, 137.53125 123.46875"></path><path stroke="Black" stroke-width="0.5757224189496134" fill="None" d="M134.68125 129.99375 C 135.9375 126.9375, 135.9375 125.4375, 135.39375 123.35624999999999"></path><path stroke="Black" stroke-width="0.5757224189496134" fill="None" d="M132.84375 130.48125 C 133.875 126.375, 133.875 124.875, 133.5375 122.9625"></path><path stroke="Black" stroke-width="0.5757224189496134" fill="None" d="M142.59375 117.91874999999999 C 142.5375 117.15, 142.5375 116.775, 142.5375 116.2875"></path><path stroke="Black" stroke-width="0.5757224189496134" fill="None" d="M142.59375 117.91874999999999 C 143.775 117.15, 144.7125 116.2125, 145.6125 114.9"></path><path stroke="Black" stroke-width="0.5757224189496134" fill="None" d="M145.6125 114.9 C 144.88125 114.43125, 143.625 115.42500000000001, 142.5375 116.2875"></path><path stroke="Black" stroke-width="0.5757224189496134" fill="None" d="M142.275 115.35 C 142.125 114.75, 141.9375 114, 141.84375 113.64375000000001"></path><path stroke="Black" stroke-width="0.5757224189496134" fill="None" d="M142.275 115.35 C 144.09375 114.28125, 144.375 114, 144.99375 113.30625"></path><path stroke="Black" stroke-width="0.5757224189496134" fill="None" d="M144.99375 113.30625 C 143.53125 113.34375, 142.65 113.4, 141.84375 113.64375000000001"></path><path stroke="Black" stroke-width="0.5757224189496134" fill="None" d="M146.5875 142.2375 C 141.65625 131.90625, 142.275 129.9, 147.99375 117.43125"></path><path stroke="Black" stroke-width="0.5757224189496134" fill="None" d="M142.425 121.275 C 145.9875 118.61250000000001, 147.675 116.4, 150 112.5"></path><path stroke="Black" stroke-width="0.5757224189496134" fill="None" d="M140.625 131.25 C 141.8625 127.9125, 142.2 125.25, 142.425 121.275"></path><path stroke="Black" stroke-width="0.5757224189496134" fill="None" d="M131.25 131.25 C 135.375 131.25, 137.8125 131.25, 140.625 131.25"></path><path stroke="Black" stroke-width="0.5757224189496134" fill="None" d="M131.25 140.625 C 131.25 136.875, 131.25 134.625, 131.25 131.25"></path><path stroke="Black" stroke-width="0.5757224189496134" fill="None" d="M131.25 140.625 C 134.5875 141.8625, 137.25 142.2, 141.225 142.425"></path><path stroke="Black" stroke-width="0.5757224189496134" fill="None" d="M141.225 142.425 C 138.9375 136.875, 138.9375 135.9375, 140.625 131.25"></path><path stroke="Black" stroke-width="0.5757224189496134" fill="None" d="M141.225 142.425 C 143.8875 145.9875, 146.1 147.675, 150 150"></path><path stroke="Black" stroke-width="0.5757224189496134" fill="None" d="M150 150 C 150.7875 146.8875, 151.05 144.9375, 150.6 141.825"></path><path stroke="Black" stroke-width="0.5757224189496134" fill="None" d="M150.6 141.825 C 150.3375 136.5375, 145.725 137.025, 145.3875 131.25"></path><path stroke="Black" stroke-width="0.5757224189496134" fill="None" d="M145.3875 131.25 C 145.3125 130.3125, 145.3125 128.4375, 145.3125 126.5625"></path><path stroke="Black" stroke-width="0.5757224189496134" fill="None" d="M145.3125 126.5625 C 146.3625 124.275, 147.525 122.775, 149.4 120.67500000000001"></path><path stroke="Black" stroke-width="0.5757224189496134" fill="None" d="M149.4 120.67500000000001 C 148.95 117.5625, 149.2125 115.61250000000001, 150 112.5"></path><path stroke="Black" stroke-width="0.5757224189496134" fill="None" d="M150.6 141.825 C 152.475 139.725, 153.6375 138.225, 154.6875 135.9375"></path><path stroke="Black" stroke-width="0.5757224189496134" fill="None" d="M154.6875 135.9375 C 152.34375 133.59375, 151.40625 132.65625, 150 131.25"></path><path stroke="Black" stroke-width="0.5757224189496134" fill="None" d="M150 131.25 C 148.5 131.25, 146.625 131.25, 145.3875 131.25"></path><path stroke="Black" stroke-width="0.5757224189496134" fill="None" d="M150.46875 138.65625 C 152.0625 137.8875, 152.85 136.875, 153.35625 135.09375"></path><path stroke="Black" stroke-width="0.5757224189496134" fill="None" d="M148.96875 136.21875 C 150.7875 135.7875, 151.5375 135.225, 152.15625 133.81875"></path><path stroke="Black" stroke-width="0.5757224189496134" fill="None" d="M147.1875 134.1375 C 149.325 134.325, 149.8125 133.9875, 150.975 132.6375"></path><path stroke="Black" stroke-width="0.5757224189496134" fill="None" d="M147.54375 130.63125 C 147.46875 130.03125, 147.46875 129.46875, 147.58125 129.20625"></path><path stroke="Black" stroke-width="0.5757224189496134" fill="None" d="M146.41875 130.63125 C 146.0625 129.5625, 146.0625 129, 146.56875 128.11875"></path><path stroke="Black" stroke-width="0.5757224189496134" fill="None" d="M132.50625 138.88125 C 135.5625 140.25, 137.625 140.0625, 139.4625 139.3875"></path><path stroke="Black" stroke-width="0.5757224189496134" fill="None" d="M132.50625 137.04375 C 135.75 138, 136.875 138, 139.03125 137.53125"></path><path stroke="Black" stroke-width="0.5757224189496134" fill="None" d="M132.50625 134.68125 C 135.5625 135.9375, 137.0625 135.9375, 139.14375 135.39375"></path><path stroke="Black" stroke-width="0.5757224189496134" fill="None" d="M132.01875 132.84375 C 136.125 133.875, 137.625 133.875, 139.5375 133.5375"></path><path stroke="Black" stroke-width="0.5757224189496134" fill="None" d="M144.58125 142.59375 C 145.35 142.5375, 145.725 142.5375, 146.2125 142.5375"></path><path stroke="Black" stroke-width="0.5757224189496134" fill="None" d="M144.58125 142.59375 C 145.35 143.775, 146.2875 144.7125, 147.6 145.6125"></path><path stroke="Black" stroke-width="0.5757224189496134" fill="None" d="M147.6 145.6125 C 148.06875 144.88125, 147.075 143.625, 146.2125 142.5375"></path><path stroke="Black" stroke-width="0.5757224189496134" fill="None" d="M147.15 142.275 C 147.75 142.125, 148.5 141.9375, 148.85625 141.84375"></path><path stroke="Black" stroke-width="0.5757224189496134" fill="None" d="M147.15 142.275 C 148.21875 144.09375, 148.5 144.375, 149.19375 144.99375"></path><path stroke="Black" stroke-width="0.5757224189496134" fill="None" d="M149.19375 144.99375 C 149.15625 143.53125, 149.1 142.65, 148.85625 141.84375"></path><path stroke="Black" stroke-width="0.6846531968814576" fill="None" d="M161.175 145.65 C 176.4375 140.25, 177.825 137.625, 184.575 119.4375"></path><path stroke="Black" stroke-width="0.6846531968814576" fill="None" d="M186.3 128.85 C 185.4 122.625, 185.925 118.725, 187.5 112.5"></path><path stroke="Black" stroke-width="0.6846531968814576" fill="None" d="M178.125 140.625 C 180.225 136.05, 182.55 133.05, 186.3 128.85"></path><path stroke="Black" stroke-width="0.6846531968814576" fill="None" d="M187.5 150 C 183.375 145.875, 180.9375 143.4375, 178.125 140.625"></path><path stroke="Black" stroke-width="0.6846531968814576" fill="None" d="M178.125 159.375 C 181.875 155.625, 184.125 153.375, 187.5 150"></path><path stroke="Black" stroke-width="0.6846531968814576" fill="None" d="M178.125 159.375 C 173.55 157.275, 170.55 154.95, 166.35 151.2"></path><path stroke="Black" stroke-width="0.6846531968814576" fill="None" d="M166.35 151.2 C 174.1875 147.9375, 175.125 147, 178.125 140.625"></path><path stroke="Black" stroke-width="0.6846531968814576" fill="None" d="M166.35 151.2 C 160.125 152.1, 156.225 151.575, 150 150"></path><path stroke="Black" stroke-width="0.6846531968814576" fill="None" d="M150 150 C 152.325 146.1, 154.0125 143.8875, 157.575 141.225"></path><path stroke="Black" stroke-width="0.6846531968814576" fill="None" d="M157.575 141.225 C 163.125 136.2, 167.25 141.3, 173.3625 135.8625"></path><path stroke="Black" stroke-width="0.6846531968814576" fill="None" d="M173.3625 135.8625 C 174.375 135, 176.25 133.125, 178.125 131.25"></path><path stroke="Black" stroke-width="0.6846531968814576" fill="None" d="M178.125 131.25 C 179.3625 127.9125, 179.7 125.25, 179.925 121.275"></path><path stroke="Black" stroke-width="0.6846531968814576" fill="None" d="M179.925 121.275 C 183.4875 118.61250000000001, 185.175 116.4, 187.5 112.5"></path><path stroke="Black" stroke-width="0.6846531968814576" fill="None" d="M157.575 141.225 C 157.8 137.25, 158.1375 134.5875, 159.375 131.25"></path><path stroke="Black" stroke-width="0.6846531968814576" fill="None" d="M159.375 131.25 C 164.0625 131.25, 165.9375 131.25, 168.75 131.25"></path><path stroke="Black" stroke-width="0.6846531968814576" fill="None" d="M168.75 131.25 C 170.25 132.75, 172.125 134.625, 173.3625 135.8625"></path><path stroke="Black" stroke-width="0.6846531968814576" fill="None" d="M160.875 138.1875 C 160.05 135.825, 160.275 134.025, 161.55 131.7375"></path><path stroke="Black" stroke-width="0.6846531968814576" fill="None" d="M164.8125 137.25 C 163.425 135, 163.2375 133.6875, 164.025 131.6625"></path><path stroke="Black" stroke-width="0.6846531968814576" fill="None" d="M168.675 136.95 C 166.35 135, 166.2 134.175, 166.3875 131.6625"></path><path stroke="Black" stroke-width="0.6846531968814576" fill="None" d="M171.825 133.0875 C 172.5 132.5625, 173.0625 132, 173.2125 131.625"></path><path stroke="Black" stroke-width="0.6846531968814576" fill="None" d="M172.95 134.2125 C 174.375 133.5, 174.9375 132.9375, 175.3125 131.55"></path><path stroke="Black" stroke-width="0.6846531968814576" fill="None" d="M178.6125 156.375 C 174.1875 154.6875, 172.3125 152.4375, 171.15 149.925"></path><path stroke="Black" stroke-width="0.6846531968814576" fill="None" d="M180.45 154.5375 C 176.25 152.25, 175.125 151.125, 173.4375 148.5"></path><path stroke="Black" stroke-width="0.6846531968814576" fill="None" d="M182.8125 152.175 C 178.5 150.375, 177 148.875, 175.4625 146.25"></path><path stroke="Black" stroke-width="0.6846531968814576" fill="None" d="M185.1375 150.825 C 180 147.75, 178.5 146.25, 176.925 144"></path><path stroke="Black" stroke-width="0.6846531968814576" fill="None" d="M162.825 148.0125 C 162.1125 147.1875, 161.7375 146.8125, 161.25 146.325"></path><path stroke="Black" stroke-width="0.6846531968814576" fill="None" d="M162.825 148.0125 C 160.875 148.425, 159 148.425, 156.7875 148.0125"></path><path stroke="Black" stroke-width="0.6846531968814576" fill="None" d="M156.7875 148.0125 C 157.05 146.8125, 159.3 146.55, 161.25 146.325"></path><path stroke="Black" stroke-width="0.6846531968814576" fill="None" d="M160.575 145.125 C 160.125 144.375, 159.5625 143.4375, 159.3 142.9875"></path><path stroke="Black" stroke-width="0.6846531968814576" fill="None" d="M160.575 145.125 C 157.6875 145.875, 157.125 145.875, 155.8125 145.8"></path><path stroke="Black" stroke-width="0.6846531968814576" fill="None" d="M155.8125 145.8 C 157.3125 144.375, 158.25 143.55, 159.3 142.9875"></path><path stroke="Black" stroke-width="0.5757224189496134" fill="None" d="M153.4125 120.26249999999999 C 158.34375 130.59375, 157.725 132.6, 152.00625 145.06875"></path><path stroke="Black" stroke-width="0.5757224189496134" fill="None" d="M157.575 141.225 C 154.0125 143.8875, 152.325 146.1, 150 150"></path><path stroke="Black" stroke-width="0.5757224189496134" fill="None" d="M159.375 131.25 C 158.1375 134.5875, 157.8 137.25, 157.575 141.225"></path><path stroke="Black" stroke-width="0.5757224189496134" fill="None" d="M168.75 131.25 C 164.625 131.25, 162.1875 131.25, 159.375 131.25"></path><path stroke="Black" stroke-width="0.5757224189496134" fill="None" d="M168.75 121.875 C 168.75 125.625, 168.75 127.875, 168.75 131.25"></path><path stroke="Black" stroke-width="0.5757224189496134" fill="None" d="M168.75 121.875 C 165.4125 120.63749999999999, 162.75 120.30000000000001, 158.775 120.07499999999999"></path><path stroke="Black" stroke-width="0.5757224189496134" fill="None" d="M158.775 120.07499999999999 C 161.0625 125.625, 161.0625 126.5625, 159.375 131.25"></path><path stroke="Black" stroke-width="0.5757224189496134" fill="None" d="M158.775 120.07499999999999 C 156.1125 116.51249999999999, 153.9 114.82499999999999, 150 112.5"></path><path stroke="Black" stroke-width="0.5757224189496134" fill="None" d="M150 112.5 C 149.2125 115.61250000000001, 148.95 117.5625, 149.4 120.67500000000001"></path><path stroke="Black" stroke-width="0.5757224189496134" fill="None" d="M149.4 120.67500000000001 C 149.6625 125.9625, 154.275 125.475, 154.6125 131.25"></path><path stroke="Black" stroke-width="0.5757224189496134" fill="None" d="M154.6125 131.25 C 154.6875 132.1875, 154.6875 134.0625, 154.6875 135.9375"></path><path stroke="Black" stroke-width="0.5757224189496134" fill="None" d="M154.6875 135.9375 C 153.6375 138.225, 152.475 139.725, 150.6 141.825"></path><path stroke="Black" stroke-width="0.5757224189496134" fill="None" d="M150.6 141.825 C 151.05 144.9375, 150.7875 146.8875, 150 150"></path><path stroke="Black" stroke-width="0.5757224189496134" fill="None" d="M149.4 120.67500000000001 C 147.525 122.775, 146.3625 124.275, 145.3125 126.5625"></path><path stroke="Black" stroke-width="0.5757224189496134" fill="None" d="M145.3125 126.5625 C 147.65625 128.90625, 148.59375 129.84375, 150 131.25"></path><path stroke="Black" stroke-width="0.5757224189496134" fill="None" d="M150 131.25 C 151.5 131.25, 153.375 131.25, 154.6125 131.25"></path><path stroke="Black" stroke-width="0.5757224189496134" fill="None" d="M149.53125 123.84375 C 147.9375 124.61250000000001, 147.15 125.625, 146.64375 127.40625"></path><path stroke="Black" stroke-width="0.5757224189496134" fill="None" d="M151.03125 126.28125 C 149.2125 126.7125, 148.4625 127.275, 147.84375 128.68125"></path><path stroke="Black" stroke-width="0.5757224189496134" fill="None" d="M152.8125 128.3625 C 150.675 128.175, 150.1875 128.5125, 149.025 129.8625"></path><path stroke="Black" stroke-width="0.5757224189496134" fill="None" d="M152.45625 131.86875 C 152.53125 132.46875, 152.53125 133.03125, 152.41875 133.29375"></path><path stroke="Black" stroke-width="0.5757224189496134" fill="None" d="M153.58125 131.86875 C 153.9375 132.9375, 153.9375 133.5, 153.43125 134.38125"></path><path stroke="Black" stroke-width="0.5757224189496134" fill="None" d="M167.49375 123.61875 C 164.4375 122.25, 162.375 122.4375, 160.5375 123.11250000000001"></path><path stroke="Black" stroke-width="0.5757224189496134" fill="None" d="M167.49375 125.45625000000001 C 164.25 124.5, 163.125 124.5, 160.96875 124.96875"></path><path stroke="Black" stroke-width="0.5757224189496134" fill="None" d="M167.49375 127.81875 C 164.4375 126.5625, 162.9375 126.5625, 160.85625 127.10624999999999"></path><path stroke="Black" stroke-width="0.5757224189496134" fill="None" d="M167.98125 129.65625 C 163.875 128.625, 162.375 128.625, 160.4625 128.9625"></path><path stroke="Black" stroke-width="0.5757224189496134" fill="None" d="M155.41875 119.90625 C 154.65 119.9625, 154.275 119.9625, 153.7875 119.9625"></path><path stroke="Black" stroke-width="0.5757224189496134" fill="None" d="M155.41875 119.90625 C 154.65 118.725, 153.7125 117.7875, 152.4 116.88749999999999"></path><path stroke="Black" stroke-width="0.5757224189496134" fill="None" d="M152.4 116.88749999999999 C 151.93125 117.61875, 152.925 118.875, 153.7875 119.9625"></path><path stroke="Black" stroke-width="0.5757224189496134" fill="None" d="M152.85 120.225 C 152.25 120.375, 151.5 120.5625, 151.14375 120.65625"></path><path stroke="Black" stroke-width="0.5757224189496134" fill="None" d="M152.85 120.225 C 151.78125 118.40625, 151.5 118.125, 150.80625 117.50625"></path><path stroke="Black" stroke-width="0.5757224189496134" fill="None" d="M150.80625 117.50625 C 150.84375 118.96875, 150.9 119.85, 151.14375 120.65625"></path><path stroke="Black" stroke-width="0.5757224189496134" fill="None" d="M179.7375 115.9125 C 169.40625 120.84375, 167.4 120.225, 154.93125 114.50625"></path><path stroke="Black" stroke-width="0.5757224189496134" fill="None" d="M158.775 120.07499999999999 C 156.1125 116.51249999999999, 153.9 114.82499999999999, 150 112.5"></path><path stroke="Black" stroke-width="0.5757224189496134" fill="None" d="M168.75 121.875 C 165.4125 120.63749999999999, 162.75 120.30000000000001, 158.775 120.07499999999999"></path><path stroke="Black" stroke-width="0.5757224189496134" fill="None" d="M168.75 131.25 C 168.75 127.125, 168.75 124.6875, 168.75 121.875"></path><path stroke="Black" stroke-width="0.5757224189496134" fill="None" d="M178.125 131.25 C 174.375 131.25, 172.125 131.25, 168.75 131.25"></path><path stroke="Black" stroke-width="0.5757224189496134" fill="None" d="M178.125 131.25 C 179.3625 127.9125, 179.7 125.25, 179.925 121.275"></path><path stroke="Black" stroke-width="0.5757224189496134" fill="None" d="M179.925 121.275 C 174.375 123.5625, 173.4375 123.5625, 168.75 121.875"></path><path stroke="Black" stroke-width="0.5757224189496134" fill="None" d="M179.925 121.275 C 183.4875 118.61250000000001, 185.175 116.4, 187.5 112.5"></path><path stroke="Black" stroke-width="0.5757224189496134" fill="None" d="M187.5 112.5 C 184.3875 111.7125, 182.4375 111.44999999999999, 179.325 111.9"></path><path stroke="Black" stroke-width="0.5757224189496134" fill="None" d="M179.325 111.9 C 174.0375 112.1625, 174.525 116.775, 168.75 117.11250000000001"></path><path stroke="Black" stroke-width="0.5757224189496134" fill="None" d="M168.75 117.11250000000001 C 167.8125 117.1875, 165.9375 117.1875, 164.0625 117.1875"></path><path stroke="Black" stroke-width="0.5757224189496134" fill="None" d="M164.0625 117.1875 C 161.775 116.13749999999999, 160.275 114.975, 158.175 113.1"></path><path stroke="Black" stroke-width="0.5757224189496134" fill="None" d="M158.175 113.1 C 155.0625 113.55000000000001, 153.1125 113.2875, 150 112.5"></path><path stroke="Black" stroke-width="0.5757224189496134" fill="None" d="M179.325 111.9 C 177.225 110.025, 175.725 108.86250000000001, 173.4375 107.8125"></path><path stroke="Black" stroke-width="0.5757224189496134" fill="None" d="M173.4375 107.8125 C 171.09375 110.15625, 170.15625 111.09375, 168.75 112.5"></path><path stroke="Black" stroke-width="0.5757224189496134" fill="None" d="M168.75 112.5 C 168.75 114, 168.75 115.875, 168.75 117.11250000000001"></path><path stroke="Black" stroke-width="0.5757224189496134" fill="None" d="M176.15625 112.03125 C 175.3875 110.4375, 174.375 109.65, 172.59375 109.14375000000001"></path><path stroke="Black" stroke-width="0.5757224189496134" fill="None" d="M173.71875 113.53125 C 173.2875 111.7125, 172.725 110.9625, 171.31875 110.34375"></path><path stroke="Black" stroke-width="0.5757224189496134" fill="None" d="M171.6375 115.3125 C 171.825 113.17500000000001, 171.4875 112.6875, 170.1375 111.525"></path><path stroke="Black" stroke-width="0.5757224189496134" fill="None" d="M168.13125 114.95625000000001 C 167.53125 115.03125, 166.96875 115.03125, 166.70625 114.91874999999999"></path><path stroke="Black" stroke-width="0.5757224189496134" fill="None" d="M168.13125 116.08125000000001 C 167.0625 116.4375, 166.5 116.4375, 165.61875 115.93125"></path><path stroke="Black" stroke-width="0.5757224189496134" fill="None" d="M176.38125 129.99375 C 177.75 126.9375, 177.5625 124.875, 176.8875 123.0375"></path><path stroke="Black" stroke-width="0.5757224189496134" fill="None" d="M174.54375 129.99375 C 175.5 126.75, 175.5 125.625, 175.03125 123.46875"></path><path stroke="Black" stroke-width="0.5757224189496134" fill="None" d="M172.18125 129.99375 C 173.4375 126.9375, 173.4375 125.4375, 172.89375 123.35624999999999"></path><path stroke="Black" stroke-width="0.5757224189496134" fill="None" d="M170.34375 130.48125 C 171.375 126.375, 171.375 124.875, 171.0375 122.9625"></path><path stroke="Black" stroke-width="0.5757224189496134" fill="None" d="M180.09375 117.91874999999999 C 180.0375 117.15, 180.0375 116.775, 180.0375 116.2875"></path><path stroke="Black" stroke-width="0.5757224189496134" fill="None" d="M180.09375 117.91874999999999 C 181.275 117.15, 182.2125 116.2125, 183.1125 114.9"></path><path stroke="Black" stroke-width="0.5757224189496134" fill="None" d="M183.1125 114.9 C 182.38125 114.43125, 181.125 115.42500000000001, 180.0375 116.2875"></path><path stroke="Black" stroke-width="0.5757224189496134" fill="None" d="M179.775 115.35 C 179.625 114.75, 179.4375 114, 179.34375 113.64375000000001"></path><path stroke="Black" stroke-width="0.5757224189496134" fill="None" d="M179.775 115.35 C 181.59375 114.28125, 181.875 114, 182.49375 113.30625"></path><path stroke="Black" stroke-width="0.5757224189496134" fill="None" d="M182.49375 113.30625 C 181.03125 113.34375, 180.15 113.4, 179.34375 113.64375000000001"></path><path stroke="Black" stroke-width="0.6846531968814576" fill="None" d="M191.85 123.67500000000001 C 197.25 138.9375, 199.875 140.325, 218.0625 147.075"></path><path stroke="Black" stroke-width="0.6846531968814576" fill="None" d="M208.65 148.8 C 214.875 147.9, 218.775 148.425, 225 150"></path><path stroke="Black" stroke-width="0.6846531968814576" fill="None" d="M196.875 140.625 C 201.45 142.725, 204.45 145.05, 208.65 148.8"></path><path stroke="Black" stroke-width="0.6846531968814576" fill="None" d="M187.5 150 C 191.625 145.875, 194.0625 143.4375, 196.875 140.625"></path><path stroke="Black" stroke-width="0.6846531968814576" fill="None" d="M178.125 140.625 C 181.875 144.375, 184.125 146.625, 187.5 150"></path><path stroke="Black" stroke-width="0.6846531968814576" fill="None" d="M178.125 140.625 C 180.225 136.05, 182.55 133.05, 186.3 128.85"></path><path stroke="Black" stroke-width="0.6846531968814576" fill="None" d="M186.3 128.85 C 189.5625 136.6875, 190.5 137.625, 196.875 140.625"></path><path stroke="Black" stroke-width="0.6846531968814576" fill="None" d="M186.3 128.85 C 185.4 122.625, 185.925 118.725, 187.5 112.5"></path><path stroke="Black" stroke-width="0.6846531968814576" fill="None" d="M187.5 112.5 C 191.4 114.82499999999999, 193.6125 116.51249999999999, 196.275 120.07499999999999"></path><path stroke="Black" stroke-width="0.6846531968814576" fill="None" d="M196.275 120.07499999999999 C 201.3 125.625, 196.2 129.75, 201.6375 135.8625"></path><path stroke="Black" stroke-width="0.6846531968814576" fill="None" d="M201.6375 135.8625 C 202.5 136.875, 204.375 138.75, 206.25 140.625"></path><path stroke="Black" stroke-width="0.6846531968814576" fill="None" d="M206.25 140.625 C 209.5875 141.8625, 212.25 142.2, 216.225 142.425"></path><path stroke="Black" stroke-width="0.6846531968814576" fill="None" d="M216.225 142.425 C 218.8875 145.9875, 221.1 147.675, 225 150"></path><path stroke="Black" stroke-width="0.6846531968814576" fill="None" d="M196.275 120.07499999999999 C 200.25 120.30000000000001, 202.9125 120.63749999999999, 206.25 121.875"></path><path stroke="Black" stroke-width="0.6846531968814576" fill="None" d="M206.25 121.875 C 206.25 126.5625, 206.25 128.4375, 206.25 131.25"></path><path stroke="Black" stroke-width="0.6846531968814576" fill="None" d="M206.25 131.25 C 204.75 132.75, 202.875 134.625, 201.6375 135.8625"></path><path stroke="Black" stroke-width="0.6846531968814576" fill="None" d="M199.3125 123.375 C 201.675 122.55000000000001, 203.475 122.775, 205.7625 124.05000000000001"></path><path stroke="Black" stroke-width="0.6846531968814576" fill="None" d="M200.25 127.3125 C 202.5 125.92500000000001, 203.8125 125.73750000000001, 205.8375 126.525"></path><path stroke="Black" stroke-width="0.6846531968814576" fill="None" d="M200.55 131.175 C 202.5 128.85, 203.325 128.7, 205.8375 128.8875"></path><path stroke="Black" stroke-width="0.6846531968814576" fill="None" d="M204.4125 134.325 C 204.9375 135, 205.5 135.5625, 205.875 135.7125"></path><path stroke="Black" stroke-width="0.6846531968814576" fill="None" d="M203.2875 135.45 C 204 136.875, 204.5625 137.4375, 205.95 137.8125"></path><path stroke="Black" stroke-width="0.6846531968814576" fill="None" d="M181.125 141.1125 C 182.8125 136.6875, 185.0625 134.8125, 187.575 133.65"></path><path stroke="Black" stroke-width="0.6846531968814576" fill="None" d="M182.9625 142.95 C 185.25 138.75, 186.375 137.625, 189 135.9375"></path><path stroke="Black" stroke-width="0.6846531968814576" fill="None" d="M185.325 145.3125 C 187.125 141, 188.625 139.5, 191.25 137.9625"></path><path stroke="Black" stroke-width="0.6846531968814576" fill="None" d="M186.675 147.6375 C 189.75 142.5, 191.25 141, 193.5 139.425"></path><path stroke="Black" stroke-width="0.6846531968814576" fill="None" d="M189.4875 125.32499999999999 C 190.3125 124.61250000000001, 190.6875 124.23750000000001, 191.175 123.75"></path><path stroke="Black" stroke-width="0.6846531968814576" fill="None" d="M189.4875 125.32499999999999 C 189.075 123.375, 189.075 121.5, 189.4875 119.2875"></path><path stroke="Black" stroke-width="0.6846531968814576" fill="None" d="M189.4875 119.2875 C 190.6875 119.55000000000001, 190.95 121.80000000000001, 191.175 123.75"></path><path stroke="Black" stroke-width="0.6846531968814576" fill="None" d="M192.375 123.07499999999999 C 193.125 122.625, 194.0625 122.0625, 194.5125 121.80000000000001"></path><path stroke="Black" stroke-width="0.6846531968814576" fill="None" d="M192.375 123.07499999999999 C 191.625 120.1875, 191.625 119.625, 191.7 118.3125"></path><path stroke="Black" stroke-width="0.6846531968814576" fill="None" d="M191.7 118.3125 C 193.125 119.8125, 193.95 120.75, 194.5125 121.80000000000001"></path><path stroke="Black" stroke-width="0.5757224189496134" fill="None" d="M217.2375 115.9125 C 206.90625 120.84375, 204.9 120.225, 192.43125 114.50625"></path><path stroke="Black" stroke-width="0.5757224189496134" fill="None" d="M196.275 120.07499999999999 C 193.6125 116.51249999999999, 191.4 114.82499999999999, 187.5 112.5"></path><path stroke="Black" stroke-width="0.5757224189496134" fill="None" d="M206.25 121.875 C 202.9125 120.63749999999999, 200.25 120.30000000000001, 196.275 120.07499999999999"></path><path stroke="Black" stroke-width="0.5757224189496134" fill="None" d="M206.25 131.25 C 206.25 127.125, 206.25 124.6875, 206.25 121.875"></path><path stroke="Black" stroke-width="0.5757224189496134" fill="None" d="M215.625 131.25 C 211.875 131.25, 209.625 131.25, 206.25 131.25"></path><path stroke="Black" stroke-width="0.5757224189496134" fill="None" d="M215.625 131.25 C 216.8625 127.9125, 217.2 125.25, 217.425 121.275"></path><path stroke="Black" stroke-width="0.5757224189496134" fill="None" d="M217.425 121.275 C 211.875 123.5625, 210.9375 123.5625, 206.25 121.875"></path><path stroke="Black" stroke-width="0.5757224189496134" fill="None" d="M217.425 121.275 C 220.9875 118.61250000000001, 222.675 116.4, 225 112.5"></path><path stroke="Black" stroke-width="0.5757224189496134" fill="None" d="M225 112.5 C 221.8875 111.7125, 219.9375 111.44999999999999, 216.825 111.9"></path><path stroke="Black" stroke-width="0.5757224189496134" fill="None" d="M216.825 111.9 C 211.5375 112.1625, 212.025 116.775, 206.25 117.11250000000001"></path><path stroke="Black" stroke-width="0.5757224189496134" fill="None" d="M206.25 117.11250000000001 C 205.3125 117.1875, 203.4375 117.1875, 201.5625 117.1875"></path><path stroke="Black" stroke-width="0.5757224189496134" fill="None" d="M201.5625 117.1875 C 199.275 116.13749999999999, 197.775 114.975, 195.675 113.1"></path><path stroke="Black" stroke-width="0.5757224189496134" fill="None" d="M195.675 113.1 C 192.5625 113.55000000000001, 190.6125 113.2875, 187.5 112.5"></path><path stroke="Black" stroke-width="0.5757224189496134" fill="None" d="M216.825 111.9 C 214.725 110.025, 213.225 108.86250000000001, 210.9375 107.8125"></path><path stroke="Black" stroke-width="0.5757224189496134" fill="None" d="M210.9375 107.8125 C 208.59375 110.15625, 207.65625 111.09375, 206.25 112.5"></path><path stroke="Black" stroke-width="0.5757224189496134" fill="None" d="M206.25 112.5 C 206.25 114, 206.25 115.875, 206.25 117.11250000000001"></path><path stroke="Black" stroke-width="0.5757224189496134" fill="None" d="M213.65625 112.03125 C 212.8875 110.4375, 211.875 109.65, 210.09375 109.14375000000001"></path><path stroke="Black" stroke-width="0.5757224189496134" fill="None" d="M211.21875 113.53125 C 210.7875 111.7125, 210.225 110.9625, 208.81875 110.34375"></path><path stroke="Black" stroke-width="0.5757224189496134" fill="None" d="M209.1375 115.3125 C 209.325 113.17500000000001, 208.9875 112.6875, 207.6375 111.525"></path><path stroke="Black" stroke-width="0.5757224189496134" fill="None" d="M205.63125 114.95625000000001 C 205.03125 115.03125, 204.46875 115.03125, 204.20625 114.91874999999999"></path><path stroke="Black" stroke-width="0.5757224189496134" fill="None" d="M205.63125 116.08125000000001 C 204.5625 116.4375, 204 116.4375, 203.11875 115.93125"></path><path stroke="Black" stroke-width="0.5757224189496134" fill="None" d="M213.88125 129.99375 C 215.25 126.9375, 215.0625 124.875, 214.3875 123.0375"></path><path stroke="Black" stroke-width="0.5757224189496134" fill="None" d="M212.04375 129.99375 C 213 126.75, 213 125.625, 212.53125 123.46875"></path><path stroke="Black" stroke-width="0.5757224189496134" fill="None" d="M209.68125 129.99375 C 210.9375 126.9375, 210.9375 125.4375, 210.39375 123.35624999999999"></path><path stroke="Black" stroke-width="0.5757224189496134" fill="None" d="M207.84375 130.48125 C 208.875 126.375, 208.875 124.875, 208.5375 122.9625"></path><path stroke="Black" stroke-width="0.5757224189496134" fill="None" d="M217.59375 117.91874999999999 C 217.5375 117.15, 217.5375 116.775, 217.5375 116.2875"></path><path stroke="Black" stroke-width="0.5757224189496134" fill="None" d="M217.59375 117.91874999999999 C 218.775 117.15, 219.7125 116.2125, 220.6125 114.9"></path><path stroke="Black" stroke-width="0.5757224189496134" fill="None" d="M220.6125 114.9 C 219.88125 114.43125, 218.625 115.42500000000001, 217.5375 116.2875"></path><path stroke="Black" stroke-width="0.5757224189496134" fill="None" d="M217.275 115.35 C 217.125 114.75, 216.9375 114, 216.84375 113.64375000000001"></path><path stroke="Black" stroke-width="0.5757224189496134" fill="None" d="M217.275 115.35 C 219.09375 114.28125, 219.375 114, 219.99375 113.30625"></path><path stroke="Black" stroke-width="0.5757224189496134" fill="None" d="M219.99375 113.30625 C 218.53125 113.34375, 217.65 113.4, 216.84375 113.64375000000001"></path><path stroke="Black" stroke-width="0.5757224189496134" fill="None" d="M221.5875 142.2375 C 216.65625 131.90625, 217.275 129.9, 222.99375 117.43125"></path><path stroke="Black" stroke-width="0.5757224189496134" fill="None" d="M217.425 121.275 C 220.9875 118.61250000000001, 222.675 116.4, 225 112.5"></path><path stroke="Black" stroke-width="0.5757224189496134" fill="None" d="M215.625 131.25 C 216.8625 127.9125, 217.2 125.25, 217.425 121.275"></path><path stroke="Black" stroke-width="0.5757224189496134" fill="None" d="M206.25 131.25 C 210.375 131.25, 212.8125 131.25, 215.625 131.25"></path><path stroke="Black" stroke-width="0.5757224189496134" fill="None" d="M206.25 140.625 C 206.25 136.875, 206.25 134.625, 206.25 131.25"></path><path stroke="Black" stroke-width="0.5757224189496134" fill="None" d="M206.25 140.625 C 209.5875 141.8625, 212.25 142.2, 216.225 142.425"></path><path stroke="Black" stroke-width="0.5757224189496134" fill="None" d="M216.225 142.425 C 213.9375 136.875, 213.9375 135.9375, 215.625 131.25"></path><path stroke="Black" stroke-width="0.5757224189496134" fill="None" d="M216.225 142.425 C 218.8875 145.9875, 221.1 147.675, 225 150"></path><path stroke="Black" stroke-width="0.5757224189496134" fill="None" d="M225 150 C 225.7875 146.8875, 226.05 144.9375, 225.6 141.825"></path><path stroke="Black" stroke-width="0.5757224189496134" fill="None" d="M225.6 141.825 C 225.3375 136.5375, 220.725 137.025, 220.3875 131.25"></path><path stroke="Black" stroke-width="0.5757224189496134" fill="None" d="M220.3875 131.25 C 220.3125 130.3125, 220.3125 128.4375, 220.3125 126.5625"></path><path stroke="Black" stroke-width="0.5757224189496134" fill="None" d="M220.3125 126.5625 C 221.3625 124.275, 222.525 122.775, 224.4 120.67500000000001"></path><path stroke="Black" stroke-width="0.5757224189496134" fill="None" d="M224.4 120.67500000000001 C 223.95 117.5625, 224.2125 115.61250000000001, 225 112.5"></path><path stroke="Black" stroke-width="0.5757224189496134" fill="None" d="M225.6 141.825 C 227.475 139.725, 228.6375 138.225, 229.6875 135.9375"></path><path stroke="Black" stroke-width="0.5757224189496134" fill="None" d="M229.6875 135.9375 C 227.34375 133.59375, 226.40625 132.65625, 225 131.25"></path><path stroke="Black" stroke-width="0.5757224189496134" fill="None" d="M225 131.25 C 223.5 131.25, 221.625 131.25, 220.3875 131.25"></path><path stroke="Black" stroke-width="0.5757224189496134" fill="None" d="M225.46875 138.65625 C 227.0625 137.8875, 227.85 136.875, 228.35625 135.09375"></path><path stroke="Black" stroke-width="0.5757224189496134" fill="None" d="M223.96875 136.21875 C 225.7875 135.7875, 226.5375 135.225, 227.15625 133.81875"></path><path stroke="Black" stroke-width="0.5757224189496134" fill="None" d="M222.1875 134.1375 C 224.325 134.325, 224.8125 133.9875, 225.975 132.6375"></path><path stroke="Black" stroke-width="0.5757224189496134" fill="None" d="M222.54375 130.63125 C 222.46875 130.03125, 222.46875 129.46875, 222.58125 129.20625"></path><path stroke="Black" stroke-width="0.5757224189496134" fill="None" d="M221.41875 130.63125 C 221.0625 129.5625, 221.0625 129, 221.56875 128.11875"></path><path stroke="Black" stroke-width="0.5757224189496134" fill="None" d="M207.50625 138.88125 C 210.5625 140.25, 212.625 140.0625, 214.4625 139.3875"></path><path stroke="Black" stroke-width="0.5757224189496134" fill="None" d="M207.50625 137.04375 C 210.75 138, 211.875 138, 214.03125 137.53125"></path><path stroke="Black" stroke-width="0.5757224189496134" fill="None" d="M207.50625 134.68125 C 210.5625 135.9375, 212.0625 135.9375, 214.14375 135.39375"></path><path stroke="Black" stroke-width="0.5757224189496134" fill="None" d="M207.01875 132.84375 C 211.125 133.875, 212.625 133.875, 214.5375 133.5375"></path><path stroke="Black" stroke-width="0.5757224189496134" fill="None" d="M219.58125 142.59375 C 220.35 142.5375, 220.725 142.5375, 221.2125 142.5375"></path><path stroke="Black" stroke-width="0.5757224189496134" fill="None" d="M219.58125 142.59375 C 220.35 143.775, 221.2875 144.7125, 222.6 145.6125"></path><path stroke="Black" stroke-width="0.5757224189496134" fill="None" d="M222.6 145.6125 C 223.06875 144.88125, 222.075 143.625, 221.2125 142.5375"></path><path stroke="Black" stroke-width="0.5757224189496134" fill="None" d="M222.15 142.275 C 222.75 142.125, 223.5 141.9375, 223.85625 141.84375"></path><path stroke="Black" stroke-width="0.5757224189496134" fill="None" d="M222.15 142.275 C 223.21875 144.09375, 223.5 144.375, 224.19375 144.99375"></path><path stroke="Black" stroke-width="0.5757224189496134" fill="None" d="M224.19375 144.99375 C 224.15625 143.53125, 224.1 142.65, 223.85625 141.84375"></path><path stroke="Black" stroke-width="0.9682458365518543" fill="None" d="M97.35 216.3 C 127.875 205.5, 130.65 200.25, 144.15 163.875"></path><path stroke="Black" stroke-width="0.9682458365518543" fill="None" d="M147.6 182.7 C 145.8 170.25, 146.85 162.45, 150 150"></path><path stroke="Black" stroke-width="0.9682458365518543" fill="None" d="M131.25 206.25 C 135.45 197.1, 140.1 191.1, 147.6 182.7"></path><path stroke="Black" stroke-width="0.9682458365518543" fill="None" d="M150 225 C 141.75 216.75, 136.875 211.875, 131.25 206.25"></path><path stroke="Black" stroke-width="0.9682458365518543" fill="None" d="M131.25 243.75 C 138.75 236.25, 143.25 231.75, 150 225"></path><path stroke="Black" stroke-width="0.9682458365518543" fill="None" d="M131.25 243.75 C 122.1 239.55, 116.1 234.9, 107.7 227.4"></path><path stroke="Black" stroke-width="0.9682458365518543" fill="None" d="M107.7 227.4 C 123.375 220.875, 125.25 219, 131.25 206.25"></path><path stroke="Black" stroke-width="0.9682458365518543" fill="None" d="M107.7 227.4 C 95.25 229.2, 87.45 228.15, 75 225"></path><path stroke="Black" stroke-width="0.9682458365518543" fill="None" d="M75 225 C 79.65 217.2, 83.025 212.775, 90.15 207.45"></path><path stroke="Black" stroke-width="0.9682458365518543" fill="None" d="M90.15 207.45 C 101.25 197.4, 109.5 207.6, 121.725 196.725"></path><path stroke="Black" stroke-width="0.9682458365518543" fill="None" d="M121.725 196.725 C 123.75 195, 127.5 191.25, 131.25 187.5"></path><path stroke="Black" stroke-width="0.9682458365518543" fill="None" d="M131.25 187.5 C 133.725 180.825, 134.4 175.5, 134.85 167.55"></path><path stroke="Black" stroke-width="0.9682458365518543" fill="None" d="M134.85 167.55 C 141.975 162.225, 145.35 157.8, 150 150"></path><path stroke="Black" stroke-width="0.9682458365518543" fill="None" d="M90.15 207.45 C 90.6 199.5, 91.275 194.175, 93.75 187.5"></path><path stroke="Black" stroke-width="0.9682458365518543" fill="None" d="M93.75 187.5 C 103.125 187.5, 106.875 187.5, 112.5 187.5"></path><path stroke="Black" stroke-width="0.9682458365518543" fill="None" d="M112.5 187.5 C 115.5 190.5, 119.25 194.25, 121.725 196.725"></path><path stroke="Black" stroke-width="0.9682458365518543" fill="None" d="M96.75 201.375 C 95.1 196.65, 95.55000000000001 193.05, 98.1 188.475"></path><path stroke="Black" stroke-width="0.9682458365518543" fill="None" d="M104.625 199.5 C 101.85 195, 101.475 192.375, 103.05 188.325"></path><path stroke="Black" stroke-width="0.9682458365518543" fill="None" d="M112.35 198.9 C 107.7 195, 107.4 193.35, 107.775 188.325"></path><path stroke="Black" stroke-width="0.9682458365518543" fill="None" d="M118.65 191.175 C 120 190.125, 121.125 189, 121.425 188.25"></path><path stroke="Black" stroke-width="0.9682458365518543" fill="None" d="M120.9 193.425 C 123.75 192, 124.875 190.875, 125.625 188.1"></path><path stroke="Black" stroke-width="0.9682458365518543" fill="None" d="M132.225 237.75 C 123.375 234.375, 119.625 229.875, 117.3 224.85"></path><path stroke="Black" stroke-width="0.9682458365518543" fill="None" d="M135.9 234.075 C 127.5 229.5, 125.25 227.25, 121.875 222"></path><path stroke="Black" stroke-width="0.9682458365518543" fill="None" d="M140.625 229.35 C 132 225.75, 129 222.75, 125.925 217.5"></path><path stroke="Black" stroke-width="0.9682458365518543" fill="None" d="M145.275 226.65 C 135 220.5, 132 217.5, 128.85 213"></path><path stroke="Black" stroke-width="0.9682458365518543" fill="None" d="M100.65 221.025 C 99.225 219.375, 98.475 218.625, 97.5 217.65"></path><path stroke="Black" stroke-width="0.9682458365518543" fill="None" d="M100.65 221.025 C 96.75 221.85, 93 221.85, 88.575 221.025"></path><path stroke="Black" stroke-width="0.9682458365518543" fill="None" d="M88.575 221.025 C 89.1 218.625, 93.6 218.1, 97.5 217.65"></path><path stroke="Black" stroke-width="0.9682458365518543" fill="None" d="M96.15 215.25 C 95.25 213.75, 94.125 211.875, 93.6 210.975"></path><path stroke="Black" stroke-width="0.9682458365518543" fill="None" d="M96.15 215.25 C 90.375 216.75, 89.25 216.75, 86.625 216.6"></path><path stroke="Black" stroke-width="0.9682458365518543" fill="None" d="M86.625 216.6 C 89.625 213.75, 91.5 212.1, 93.6 210.975"></path><path stroke="Black" stroke-width="0.8141944530407882" fill="None" d="M81.825 165.525 C 91.6875 186.1875, 90.45 190.2, 79.0125 215.1375"></path><path stroke="Black" stroke-width="0.8141944530407882" fill="None" d="M90.15 207.45 C 83.025 212.775, 79.65 217.2, 75 225"></path><path stroke="Black" stroke-width="0.8141944530407882" fill="None" d="M93.75 187.5 C 91.275 194.175, 90.6 199.5, 90.15 207.45"></path><path stroke="Black" stroke-width="0.8141944530407882" fill="None" d="M112.5 187.5 C 104.25 187.5, 99.375 187.5, 93.75 187.5"></path><path stroke="Black" stroke-width="0.8141944530407882" fill="None" d="M112.5 168.75 C 112.5 176.25, 112.5 180.75, 112.5 187.5"></path><path stroke="Black" stroke-width="0.8141944530407882" fill="None" d="M112.5 168.75 C 105.825 166.275, 100.5 165.6, 92.55 165.15"></path><path stroke="Black" stroke-width="0.8141944530407882" fill="None" d="M92.55 165.15 C 97.125 176.25, 97.125 178.125, 93.75 187.5"></path><path stroke="Black" stroke-width="0.8141944530407882" fill="None" d="M92.55 165.15 C 87.225 158.025, 82.8 154.65, 75 150"></path><path stroke="Black" stroke-width="0.8141944530407882" fill="None" d="M75 150 C 73.42500000000001 156.225, 72.9 160.125, 73.8 166.35"></path><path stroke="Black" stroke-width="0.8141944530407882" fill="None" d="M73.8 166.35 C 74.325 176.925, 83.55 175.95, 84.225 187.5"></path><path stroke="Black" stroke-width="0.8141944530407882" fill="None" d="M84.225 187.5 C 84.375 189.375, 84.375 193.125, 84.375 196.875"></path><path stroke="Black" stroke-width="0.8141944530407882" fill="None" d="M84.375 196.875 C 82.275 201.45, 79.95 204.45, 76.19999999999999 208.65"></path><path stroke="Black" stroke-width="0.8141944530407882" fill="None" d="M76.19999999999999 208.65 C 77.1 214.875, 76.57499999999999 218.775, 75 225"></path><path stroke="Black" stroke-width="0.8141944530407882" fill="None" d="M73.8 166.35 C 70.05 170.55, 67.725 173.55, 65.625 178.125"></path><path stroke="Black" stroke-width="0.8141944530407882" fill="None" d="M65.625 178.125 C 70.3125 182.8125, 72.1875 184.6875, 75 187.5"></path><path stroke="Black" stroke-width="0.8141944530407882" fill="None" d="M75 187.5 C 78 187.5, 81.75 187.5, 84.225 187.5"></path><path stroke="Black" stroke-width="0.8141944530407882" fill="None" d="M74.0625 172.6875 C 70.875 174.225, 69.30000000000001 176.25, 68.2875 179.8125"></path><path stroke="Black" stroke-width="0.8141944530407882" fill="None" d="M77.0625 177.5625 C 73.425 178.425, 71.925 179.55, 70.6875 182.3625"></path><path stroke="Black" stroke-width="0.8141944530407882" fill="None" d="M80.625 181.725 C 76.35 181.35, 75.375 182.025, 73.05000000000001 184.725"></path><path stroke="Black" stroke-width="0.8141944530407882" fill="None" d="M79.9125 188.7375 C 80.0625 189.9375, 80.0625 191.0625, 79.8375 191.5875"></path><path stroke="Black" stroke-width="0.8141944530407882" fill="None" d="M82.1625 188.7375 C 82.875 190.875, 82.875 192, 81.8625 193.7625"></path><path stroke="Black" stroke-width="0.8141944530407882" fill="None" d="M109.9875 172.2375 C 103.875 169.5, 99.75 169.875, 96.075 171.225"></path><path stroke="Black" stroke-width="0.8141944530407882" fill="None" d="M109.9875 175.9125 C 103.5 174, 101.25 174, 96.9375 174.9375"></path><path stroke="Black" stroke-width="0.8141944530407882" fill="None" d="M109.9875 180.6375 C 103.875 178.125, 100.875 178.125, 96.7125 179.2125"></path><path stroke="Black" stroke-width="0.8141944530407882" fill="None" d="M110.9625 184.3125 C 102.75 182.25, 99.75 182.25, 95.925 182.925"></path><path stroke="Black" stroke-width="0.8141944530407882" fill="None" d="M85.8375 164.8125 C 84.3 164.925, 83.55 164.925, 82.575 164.925"></path><path stroke="Black" stroke-width="0.8141944530407882" fill="None" d="M85.8375 164.8125 C 84.3 162.45, 82.425 160.575, 79.80000000000001 158.775"></path><path stroke="Black" stroke-width="0.8141944530407882" fill="None" d="M79.80000000000001 158.775 C 78.8625 160.2375, 80.85 162.75, 82.575 164.925"></path><path stroke="Black" stroke-width="0.8141944530407882" fill="None" d="M80.7 165.45 C 79.5 165.75, 78 166.125, 77.2875 166.3125"></path><path stroke="Black" stroke-width="0.8141944530407882" fill="None" d="M80.7 165.45 C 78.5625 161.8125, 78 161.25, 76.6125 160.0125"></path><path stroke="Black" stroke-width="0.8141944530407882" fill="None" d="M76.6125 160.0125 C 76.6875 162.9375, 76.8 164.7, 77.2875 166.3125"></path><path stroke="Black" stroke-width="0.8141944530407882" fill="None" d="M134.475 156.825 C 113.8125 166.6875, 109.8 165.45, 84.86250000000001 154.0125"></path><path stroke="Black" stroke-width="0.8141944530407882" fill="None" d="M92.55 165.15 C 87.225 158.025, 82.8 154.65, 75 150"></path><path stroke="Black" stroke-width="0.8141944530407882" fill="None" d="M112.5 168.75 C 105.825 166.275, 100.5 165.6, 92.55 165.15"></path><path stroke="Black" stroke-width="0.8141944530407882" fill="None" d="M112.5 187.5 C 112.5 179.25, 112.5 174.375, 112.5 168.75"></path><path stroke="Black" stroke-width="0.8141944530407882" fill="None" d="M131.25 187.5 C 123.75 187.5, 119.25 187.5, 112.5 187.5"></path><path stroke="Black" stroke-width="0.8141944530407882" fill="None" d="M131.25 187.5 C 133.725 180.825, 134.4 175.5, 134.85 167.55"></path><path stroke="Black" stroke-width="0.8141944530407882" fill="None" d="M134.85 167.55 C 123.75 172.125, 121.875 172.125, 112.5 168.75"></path><path stroke="Black" stroke-width="0.8141944530407882" fill="None" d="M134.85 167.55 C 141.975 162.225, 145.35 157.8, 150 150"></path><path stroke="Black" stroke-width="0.8141944530407882" fill="None" d="M150 150 C 143.775 148.425, 139.875 147.9, 133.65 148.8"></path><path stroke="Black" stroke-width="0.8141944530407882" fill="None" d="M133.65 148.8 C 123.075 149.325, 124.05 158.55, 112.5 159.225"></path><path stroke="Black" stroke-width="0.8141944530407882" fill="None" d="M112.5 159.225 C 110.625 159.375, 106.875 159.375, 103.125 159.375"></path><path stroke="Black" stroke-width="0.8141944530407882" fill="None" d="M103.125 159.375 C 98.55 157.275, 95.55 154.95, 91.35 151.2"></path><path stroke="Black" stroke-width="0.8141944530407882" fill="None" d="M91.35 151.2 C 85.125 152.1, 81.225 151.575, 75 150"></path><path stroke="Black" stroke-width="0.8141944530407882" fill="None" d="M133.65 148.8 C 129.45 145.05, 126.45 142.725, 121.875 140.625"></path><path stroke="Black" stroke-width="0.8141944530407882" fill="None" d="M121.875 140.625 C 117.1875 145.3125, 115.3125 147.1875, 112.5 150"></path><path stroke="Black" stroke-width="0.8141944530407882" fill="None" d="M112.5 150 C 112.5 153, 112.5 156.75, 112.5 159.225"></path><path stroke="Black" stroke-width="0.8141944530407882" fill="None" d="M127.3125 149.0625 C 125.775 145.875, 123.75 144.3, 120.1875 143.2875"></path><path stroke="Black" stroke-width="0.8141944530407882" fill="None" d="M122.4375 152.0625 C 121.575 148.425, 120.45 146.925, 117.6375 145.6875"></path><path stroke="Black" stroke-width="0.8141944530407882" fill="None" d="M118.275 155.625 C 118.65 151.35, 117.975 150.375, 115.275 148.05"></path><path stroke="Black" stroke-width="0.8141944530407882" fill="None" d="M111.2625 154.9125 C 110.0625 155.0625, 108.9375 155.0625, 108.4125 154.8375"></path><path stroke="Black" stroke-width="0.8141944530407882" fill="None" d="M111.2625 157.1625 C 109.125 157.875, 108 157.875, 106.2375 156.8625"></path><path stroke="Black" stroke-width="0.8141944530407882" fill="None" d="M127.7625 184.9875 C 130.5 178.875, 130.125 174.75, 128.775 171.075"></path><path stroke="Black" stroke-width="0.8141944530407882" fill="None" d="M124.0875 184.9875 C 126 178.5, 126 176.25, 125.0625 171.9375"></path><path stroke="Black" stroke-width="0.8141944530407882" fill="None" d="M119.3625 184.9875 C 121.875 178.875, 121.875 175.875, 120.7875 171.7125"></path><path stroke="Black" stroke-width="0.8141944530407882" fill="None" d="M115.6875 185.9625 C 117.75 177.75, 117.75 174.75, 117.075 170.925"></path><path stroke="Black" stroke-width="0.8141944530407882" fill="None" d="M135.1875 160.8375 C 135.075 159.3, 135.075 158.55, 135.075 157.575"></path><path stroke="Black" stroke-width="0.8141944530407882" fill="None" d="M135.1875 160.8375 C 137.55 159.3, 139.425 157.425, 141.225 154.8"></path><path stroke="Black" stroke-width="0.8141944530407882" fill="None" d="M141.225 154.8 C 139.7625 153.8625, 137.25 155.85, 135.075 157.575"></path><path stroke="Black" stroke-width="0.8141944530407882" fill="None" d="M134.55 155.7 C 134.25 154.5, 133.875 153, 133.6875 152.2875"></path><path stroke="Black" stroke-width="0.8141944530407882" fill="None" d="M134.55 155.7 C 138.1875 153.5625, 138.75 153, 139.9875 151.6125"></path><path stroke="Black" stroke-width="0.8141944530407882" fill="None" d="M139.9875 151.6125 C 137.0625 151.6875, 135.3 151.8, 133.6875 152.2875"></path><path stroke="Black" stroke-width="0.9682458365518543" fill="None" d="M158.7 172.35 C 169.5 202.875, 174.75 205.65, 211.125 219.15"></path><path stroke="Black" stroke-width="0.9682458365518543" fill="None" d="M192.3 222.6 C 204.75 220.8, 212.55 221.85, 225 225"></path><path stroke="Black" stroke-width="0.9682458365518543" fill="None" d="M168.75 206.25 C 177.9 210.45, 183.9 215.1, 192.3 222.6"></path><path stroke="Black" stroke-width="0.9682458365518543" fill="None" d="M150 225 C 158.25 216.75, 163.125 211.875, 168.75 206.25"></path><path stroke="Black" stroke-width="0.9682458365518543" fill="None" d="M131.25 206.25 C 138.75 213.75, 143.25 218.25, 150 225"></path><path stroke="Black" stroke-width="0.9682458365518543" fill="None" d="M131.25 206.25 C 135.45 197.1, 140.1 191.1, 147.6 182.7"></path><path stroke="Black" stroke-width="0.9682458365518543" fill="None" d="M147.6 182.7 C 154.125 198.375, 156 200.25, 168.75 206.25"></path><path stroke="Black" stroke-width="0.9682458365518543" fill="None" d="M147.6 182.7 C 145.8 170.25, 146.85 162.45, 150 150"></path><path stroke="Black" stroke-width="0.9682458365518543" fill="None" d="M150 150 C 157.8 154.65, 162.225 158.025, 167.55 165.15"></path><path stroke="Black" stroke-width="0.9682458365518543" fill="None" d="M167.55 165.15 C 177.6 176.25, 167.4 184.5, 178.275 196.725"></path><path stroke="Black" stroke-width="0.9682458365518543" fill="None" d="M178.275 196.725 C 180 198.75, 183.75 202.5, 187.5 206.25"></path><path stroke="Black" stroke-width="0.9682458365518543" fill="None" d="M187.5 206.25 C 194.175 208.725, 199.5 209.4, 207.45 209.85"></path><path stroke="Black" stroke-width="0.9682458365518543" fill="None" d="M207.45 209.85 C 212.775 216.975, 217.2 220.35, 225 225"></path><path stroke="Black" stroke-width="0.9682458365518543" fill="None" d="M167.55 165.15 C 175.5 165.6, 180.825 166.275, 187.5 168.75"></path><path stroke="Black" stroke-width="0.9682458365518543" fill="None" d="M187.5 168.75 C 187.5 178.125, 187.5 181.875, 187.5 187.5"></path><path stroke="Black" stroke-width="0.9682458365518543" fill="None" d="M187.5 187.5 C 184.5 190.5, 180.75 194.25, 178.275 196.725"></path><path stroke="Black" stroke-width="0.9682458365518543" fill="None" d="M173.625 171.75 C 178.35 170.1, 181.95 170.55, 186.525 173.1"></path><path stroke="Black" stroke-width="0.9682458365518543" fill="None" d="M175.5 179.625 C 180 176.85, 182.625 176.475, 186.675 178.05"></path><path stroke="Black" stroke-width="0.9682458365518543" fill="None" d="M176.1 187.35 C 180 182.7, 181.65 182.4, 186.675 182.775"></path><path stroke="Black" stroke-width="0.9682458365518543" fill="None" d="M183.825 193.65 C 184.875 195, 186 196.125, 186.75 196.425"></path><path stroke="Black" stroke-width="0.9682458365518543" fill="None" d="M181.575 195.9 C 183 198.75, 184.125 199.875, 186.9 200.625"></path><path stroke="Black" stroke-width="0.9682458365518543" fill="None" d="M137.25 207.225 C 140.625 198.375, 145.125 194.625, 150.15 192.3"></path><path stroke="Black" stroke-width="0.9682458365518543" fill="None" d="M140.925 210.9 C 145.5 202.5, 147.75 200.25, 153 196.875"></path><path stroke="Black" stroke-width="0.9682458365518543" fill="None" d="M145.65 215.625 C 149.25 207, 152.25 204, 157.5 200.925"></path><path stroke="Black" stroke-width="0.9682458365518543" fill="None" d="M148.35 220.275 C 154.5 210, 157.5 207, 162 203.85"></path><path stroke="Black" stroke-width="0.9682458365518543" fill="None" d="M153.975 175.65 C 155.625 174.225, 156.375 173.475, 157.35 172.5"></path><path stroke="Black" stroke-width="0.9682458365518543" fill="None" d="M153.975 175.65 C 153.15 171.75, 153.15 168, 153.975 163.575"></path><path stroke="Black" stroke-width="0.9682458365518543" fill="None" d="M153.975 163.575 C 156.375 164.1, 156.9 168.6, 157.35 172.5"></path><path stroke="Black" stroke-width="0.9682458365518543" fill="None" d="M159.75 171.15 C 161.25 170.25, 163.125 169.125, 164.025 168.6"></path><path stroke="Black" stroke-width="0.9682458365518543" fill="None" d="M159.75 171.15 C 158.25 165.375, 158.25 164.25, 158.4 161.625"></path><path stroke="Black" stroke-width="0.9682458365518543" fill="None" d="M158.4 161.625 C 161.25 164.625, 162.9 166.5, 164.025 168.6"></path><path stroke="Black" stroke-width="0.8141944530407882" fill="None" d="M209.475 156.825 C 188.8125 166.6875, 184.8 165.45, 159.8625 154.0125"></path><path stroke="Black" stroke-width="0.8141944530407882" fill="None" d="M167.55 165.15 C 162.225 158.025, 157.8 154.65, 150 150"></path><path stroke="Black" stroke-width="0.8141944530407882" fill="None" d="M187.5 168.75 C 180.825 166.275, 175.5 165.6, 167.55 165.15"></path><path stroke="Black" stroke-width="0.8141944530407882" fill="None" d="M187.5 187.5 C 187.5 179.25, 187.5 174.375, 187.5 168.75"></path><path stroke="Black" stroke-width="0.8141944530407882" fill="None" d="M206.25 187.5 C 198.75 187.5, 194.25 187.5, 187.5 187.5"></path><path stroke="Black" stroke-width="0.8141944530407882" fill="None" d="M206.25 187.5 C 208.725 180.825, 209.4 175.5, 209.85 167.55"></path><path stroke="Black" stroke-width="0.8141944530407882" fill="None" d="M209.85 167.55 C 198.75 172.125, 196.875 172.125, 187.5 168.75"></path><path stroke="Black" stroke-width="0.8141944530407882" fill="None" d="M209.85 167.55 C 216.975 162.225, 220.35 157.8, 225 150"></path><path stroke="Black" stroke-width="0.8141944530407882" fill="None" d="M225 150 C 218.775 148.425, 214.875 147.9, 208.65 148.8"></path><path stroke="Black" stroke-width="0.8141944530407882" fill="None" d="M208.65 148.8 C 198.075 149.325, 199.05 158.55, 187.5 159.225"></path><path stroke="Black" stroke-width="0.8141944530407882" fill="None" d="M187.5 159.225 C 185.625 159.375, 181.875 159.375, 178.125 159.375"></path><path stroke="Black" stroke-width="0.8141944530407882" fill="None" d="M178.125 159.375 C 173.55 157.275, 170.55 154.95, 166.35 151.2"></path><path stroke="Black" stroke-width="0.8141944530407882" fill="None" d="M166.35 151.2 C 160.125 152.1, 156.225 151.575, 150 150"></path><path stroke="Black" stroke-width="0.8141944530407882" fill="None" d="M208.65 148.8 C 204.45 145.05, 201.45 142.725, 196.875 140.625"></path><path stroke="Black" stroke-width="0.8141944530407882" fill="None" d="M196.875 140.625 C 192.1875 145.3125, 190.3125 147.1875, 187.5 150"></path><path stroke="Black" stroke-width="0.8141944530407882" fill="None" d="M187.5 150 C 187.5 153, 187.5 156.75, 187.5 159.225"></path><path stroke="Black" stroke-width="0.8141944530407882" fill="None" d="M202.3125 149.0625 C 200.775 145.875, 198.75 144.3, 195.1875 143.2875"></path><path stroke="Black" stroke-width="0.8141944530407882" fill="None" d="M197.4375 152.0625 C 196.575 148.425, 195.45 146.925, 192.6375 145.6875"></path><path stroke="Black" stroke-width="0.8141944530407882" fill="None" d="M193.275 155.625 C 193.65 151.35, 192.975 150.375, 190.275 148.05"></path><path stroke="Black" stroke-width="0.8141944530407882" fill="None" d="M186.2625 154.9125 C 185.0625 155.0625, 183.9375 155.0625, 183.4125 154.8375"></path><path stroke="Black" stroke-width="0.8141944530407882" fill="None" d="M186.2625 157.1625 C 184.125 157.875, 183 157.875, 181.2375 156.8625"></path><path stroke="Black" stroke-width="0.8141944530407882" fill="None" d="M202.7625 184.9875 C 205.5 178.875, 205.125 174.75, 203.775 171.075"></path><path stroke="Black" stroke-width="0.8141944530407882" fill="None" d="M199.0875 184.9875 C 201 178.5, 201 176.25, 200.0625 171.9375"></path><path stroke="Black" stroke-width="0.8141944530407882" fill="None" d="M194.3625 184.9875 C 196.875 178.875, 196.875 175.875, 195.7875 171.7125"></path><path stroke="Black" stroke-width="0.8141944530407882" fill="None" d="M190.6875 185.9625 C 192.75 177.75, 192.75 174.75, 192.075 170.925"></path><path stroke="Black" stroke-width="0.8141944530407882" fill="None" d="M210.1875 160.8375 C 210.075 159.3, 210.075 158.55, 210.075 157.575"></path><path stroke="Black" stroke-width="0.8141944530407882" fill="None" d="M210.1875 160.8375 C 212.55 159.3, 214.425 157.425, 216.225 154.8"></path><path stroke="Black" stroke-width="0.8141944530407882" fill="None" d="M216.225 154.8 C 214.7625 153.8625, 212.25 155.85, 210.075 157.575"></path><path stroke="Black" stroke-width="0.8141944530407882" fill="None" d="M209.55 155.7 C 209.25 154.5, 208.875 153, 208.6875 152.2875"></path><path stroke="Black" stroke-width="0.8141944530407882" fill="None" d="M209.55 155.7 C 213.1875 153.5625, 213.75 153, 214.9875 151.6125"></path><path stroke="Black" stroke-width="0.8141944530407882" fill="None" d="M214.9875 151.6125 C 212.0625 151.6875, 210.3 151.8, 208.6875 152.2875"></path><path stroke="Black" stroke-width="0.8141944530407882" fill="None" d="M218.175 209.475 C 208.3125 188.8125, 209.55 184.8, 220.9875 159.8625"></path><path stroke="Black" stroke-width="0.8141944530407882" fill="None" d="M209.85 167.55 C 216.975 162.225, 220.35 157.8, 225 150"></path><path stroke="Black" stroke-width="0.8141944530407882" fill="None" d="M206.25 187.5 C 208.725 180.825, 209.4 175.5, 209.85 167.55"></path><path stroke="Black" stroke-width="0.8141944530407882" fill="None" d="M187.5 187.5 C 195.75 187.5, 200.625 187.5, 206.25 187.5"></path><path stroke="Black" stroke-width="0.8141944530407882" fill="None" d="M187.5 206.25 C 187.5 198.75, 187.5 194.25, 187.5 187.5"></path><path stroke="Black" stroke-width="0.8141944530407882" fill="None" d="M187.5 206.25 C 194.175 208.725, 199.5 209.4, 207.45 209.85"></path><path stroke="Black" stroke-width="0.8141944530407882" fill="None" d="M207.45 209.85 C 202.875 198.75, 202.875 196.875, 206.25 187.5"></path><path stroke="Black" stroke-width="0.8141944530407882" fill="None" d="M207.45 209.85 C 212.775 216.975, 217.2 220.35, 225 225"></path><path stroke="Black" stroke-width="0.8141944530407882" fill="None" d="M225 225 C 226.575 218.775, 227.1 214.875, 226.2 208.65"></path><path stroke="Black" stroke-width="0.8141944530407882" fill="None" d="M226.2 208.65 C 225.675 198.075, 216.45 199.05, 215.775 187.5"></path><path stroke="Black" stroke-width="0.8141944530407882" fill="None" d="M215.775 187.5 C 215.625 185.625, 215.625 181.875, 215.625 178.125"></path><path stroke="Black" stroke-width="0.8141944530407882" fill="None" d="M215.625 178.125 C 217.725 173.55, 220.05 170.55, 223.8 166.35"></path><path stroke="Black" stroke-width="0.8141944530407882" fill="None" d="M223.8 166.35 C 222.9 160.125, 223.425 156.225, 225 150"></path><path stroke="Black" stroke-width="0.8141944530407882" fill="None" d="M226.2 208.65 C 229.95 204.45, 232.275 201.45, 234.375 196.875"></path><path stroke="Black" stroke-width="0.8141944530407882" fill="None" d="M234.375 196.875 C 229.6875 192.1875, 227.8125 190.3125, 225 187.5"></path><path stroke="Black" stroke-width="0.8141944530407882" fill="None" d="M225 187.5 C 222 187.5, 218.25 187.5, 215.775 187.5"></path><path stroke="Black" stroke-width="0.8141944530407882" fill="None" d="M225.9375 202.3125 C 229.125 200.775, 230.7 198.75, 231.7125 195.1875"></path><path stroke="Black" stroke-width="0.8141944530407882" fill="None" d="M222.9375 197.4375 C 226.575 196.575, 228.075 195.45, 229.3125 192.6375"></path><path stroke="Black" stroke-width="0.8141944530407882" fill="None" d="M219.375 193.275 C 223.65 193.65, 224.625 192.975, 226.95 190.275"></path><path stroke="Black" stroke-width="0.8141944530407882" fill="None" d="M220.0875 186.2625 C 219.9375 185.0625, 219.9375 183.9375, 220.1625 183.4125"></path><path stroke="Black" stroke-width="0.8141944530407882" fill="None" d="M217.8375 186.2625 C 217.125 184.125, 217.125 183, 218.1375 181.2375"></path><path stroke="Black" stroke-width="0.8141944530407882" fill="None" d="M190.0125 202.7625 C 196.125 205.5, 200.25 205.125, 203.925 203.775"></path><path stroke="Black" stroke-width="0.8141944530407882" fill="None" d="M190.0125 199.0875 C 196.5 201, 198.75 201, 203.0625 200.0625"></path><path stroke="Black" stroke-width="0.8141944530407882" fill="None" d="M190.0125 194.3625 C 196.125 196.875, 199.125 196.875, 203.2875 195.7875"></path><path stroke="Black" stroke-width="0.8141944530407882" fill="None" d="M189.0375 190.6875 C 197.25 192.75, 200.25 192.75, 204.075 192.075"></path><path stroke="Black" stroke-width="0.8141944530407882" fill="None" d="M214.1625 210.1875 C 215.7 210.075, 216.45 210.075, 217.425 210.075"></path><path stroke="Black" stroke-width="0.8141944530407882" fill="None" d="M214.1625 210.1875 C 215.7 212.55, 217.575 214.425, 220.2 216.225"></path><path stroke="Black" stroke-width="0.8141944530407882" fill="None" d="M220.2 216.225 C 221.1375 214.7625, 219.15 212.25, 217.425 210.075"></path><path stroke="Black" stroke-width="0.8141944530407882" fill="None" d="M219.3 209.55 C 220.5 209.25, 222 208.875, 222.7125 208.6875"></path><path stroke="Black" stroke-width="0.8141944530407882" fill="None" d="M219.3 209.55 C 221.4375 213.1875, 222 213.75, 223.3875 214.9875"></path><path stroke="Black" stroke-width="0.8141944530407882" fill="None" d="M223.3875 214.9875 C 223.3125 212.0625, 223.2 210.3, 222.7125 208.6875"></path></svg>