<?xml version="1.0" encoding="UTF-8" standalone="no"?>
<svg version="1.1" xmlns="http://www.w3.org/2000/svg" x="0" y="0" width="300" height="300"><path stroke="Black" stroke-width="0.6647869871181237" fill="None" d="M164.65 129.55 C 150.875 136.125, 148.2 135.3, 131.575 127.67500000000001"></path><path stroke="Black" stroke-width="0.6647869871181237" fill="None" d="M136.7 135.1 C 133.15 130.35, 130.2 128.1, 125 125"></path><path stroke="Black" stroke-width="0.6647869871181237" fill="None" d="M150 137.5 C 145.55 135.85, 142 135.4, 136.7 135.1"></path><path stroke="Black" stroke-width="0.6647869871181237" fill="None" d="M150 150 C 150 144.5, 150 141.25, 150 137.5"></path><path stroke="Black" stroke-width="0.6647869871181237" fill="None" d="M162.5 150 C 157.5 150, 154.5 150, 150 150"></path><path stroke="Black" stroke-width="0.6647869871181237" fill="None" d="M162.5 150 C 164.15 145.55, 164.6 142, 164.9 136.7"></path><path stroke="Black" stroke-width="0.6647869871181237" fill="None" d="M164.9 136.7 C 157.5 139.75, 156.25 139.75, 150 137.5"></path><path stroke="Black" stroke-width="0.6647869871181237" fill="None" d="M164.9 136.7 C 169.65 133.15, 171.9 130.2, 175 125"></path><path stroke="Black" stroke-width="0.6647869871181237" fill="None" d="M175 125 C 170.85 123.94999999999999, 168.25 123.6, 164.1 124.19999999999999"></path><path stroke="Black" stroke-width="0.6647869871181237" fill="None" d="M164.1 124.19999999999999 C 157.05 124.55000000000001, 157.7 130.7, 150 131.15"></path><path stroke="Black" stroke-width="0.6647869871181237" fill="None" d="M150 131.15 C 148.75 131.25, 146.25 131.25, 143.75 131.25"></path><path stroke="Black" stroke-width="0.6647869871181237" fill="None" d="M143.75 131.25 C 140.7 129.85, 138.7 128.3, 135.9 125.80000000000001"></path><path stroke="Black" stroke-width="0.6647869871181237" fill="None" d="M135.9 125.80000000000001 C 131.75 126.4, 129.15 126.05000000000001, 125 125"></path><path stroke="Black" stroke-width="0.6647869871181237" fill="None" d="M164.1 124.19999999999999 C 161.3 121.69999999999999, 159.3 120.15, 156.25 118.75"></path><path stroke="Black" stroke-width="0.6647869871181237" fill="None" d="M156.25 118.75 C 153.125 121.875, 151.875 123.125, 150 125"></path><path stroke="Black" stroke-width="0.6647869871181237" fill="None" d="M150 125 C 150 127, 150 129.5, 150 131.15"></path><path stroke="Black" stroke-width="0.6647869871181237" fill="None" d="M159.875 124.375 C 158.85 122.25, 157.5 121.19999999999999, 155.125 120.525"></path><path stroke="Black" stroke-width="0.6647869871181237" fill="None" d="M156.625 126.375 C 156.05 123.94999999999999, 155.3 122.94999999999999, 153.425 122.125"></path><path stroke="Black" stroke-width="0.6647869871181237" fill="None" d="M153.85 128.75 C 154.1 125.9, 153.65 125.25, 151.85 123.69999999999999"></path><path stroke="Black" stroke-width="0.6647869871181237" fill="None" d="M149.175 128.275 C 148.375 128.375, 147.625 128.375, 147.275 128.225"></path><path stroke="Black" stroke-width="0.6647869871181237" fill="None" d="M149.175 129.775 C 147.75 130.25, 147 130.25, 145.825 129.575"></path><path stroke="Black" stroke-width="0.6647869871181237" fill="None" d="M160.175 148.325 C 162 144.25, 161.75 141.5, 160.85 139.05"></path><path stroke="Black" stroke-width="0.6647869871181237" fill="None" d="M157.725 148.325 C 159 144, 159 142.5, 158.375 139.625"></path><path stroke="Black" stroke-width="0.6647869871181237" fill="None" d="M154.575 148.325 C 156.25 144.25, 156.25 142.25, 155.525 139.475"></path><path stroke="Black" stroke-width="0.6647869871181237" fill="None" d="M152.125 148.975 C 153.5 143.5, 153.5 141.5, 153.05 138.95"></path><path stroke="Black" stroke-width="0.6647869871181237" fill="None" d="M165.125 132.225 C 165.05 131.2, 165.05 130.7, 165.05 130.05"></path><path stroke="Black" stroke-width="0.6647869871181237" fill="None" d="M165.125 132.225 C 166.7 131.2, 167.95 129.95, 169.15 128.2"></path><path stroke="Black" stroke-width="0.6647869871181237" fill="None" d="M169.15 128.2 C 168.175 127.57499999999999, 166.5 128.9, 165.05 130.05"></path><path stroke="Black" stroke-width="0.6647869871181237" fill="None" d="M164.7 128.8 C 164.5 128, 164.25 127, 164.125 126.525"></path><path stroke="Black" stroke-width="0.6647869871181237" fill="None" d="M164.7 128.8 C 167.125 127.375, 167.5 127, 168.325 126.07499999999999"></path><path stroke="Black" stroke-width="0.6647869871181237" fill="None" d="M168.325 126.07499999999999 C 166.375 126.125, 165.2 126.19999999999999, 164.125 126.525"></path><path stroke="Black" stroke-width="0.6647869871181237" fill="None" d="M129.55 135.35 C 136.125 149.125, 135.3 151.8, 127.675 168.425"></path><path stroke="Black" stroke-width="0.6647869871181237" fill="None" d="M135.1 163.3 C 130.35 166.85, 128.1 169.8, 125 175"></path><path stroke="Black" stroke-width="0.6647869871181237" fill="None" d="M137.5 150 C 135.85 154.45, 135.4 158, 135.1 163.3"></path><path stroke="Black" stroke-width="0.6647869871181237" fill="None" d="M150 150 C 144.5 150, 141.25 150, 137.5 150"></path><path stroke="Black" stroke-width="0.6647869871181237" fill="None" d="M150 137.5 C 150 142.5, 150 145.5, 150 150"></path><path stroke="Black" stroke-width="0.6647869871181237" fill="None" d="M150 137.5 C 145.55 135.85, 142 135.4, 136.7 135.1"></path><path stroke="Black" stroke-width="0.6647869871181237" fill="None" d="M136.7 135.1 C 139.75 142.5, 139.75 143.75, 137.5 150"></path><path stroke="Black" stroke-width="0.6647869871181237" fill="None" d="M136.7 135.1 C 133.15 130.35, 130.2 128.1, 125 125"></path><path stroke="Black" stroke-width="0.6647869871181237" fill="None" d="M125 125 C 123.94999999999999 129.15, 123.6 131.75, 124.19999999999999 135.9"></path><path stroke="Black" stroke-width="0.6647869871181237" fill="None" d="M124.19999999999999 135.9 C 124.55 142.95, 130.7 142.3, 131.15 150"></path><path stroke="Black" stroke-width="0.6647869871181237" fill="None" d="M131.15 150 C 131.25 151.25, 131.25 153.75, 131.25 156.25"></path><path stroke="Black" stroke-width="0.6647869871181237" fill="None" d="M131.25 156.25 C 129.85 159.3, 128.3 161.3, 125.8 164.1"></path><path stroke="Black" stroke-width="0.6647869871181237" fill="None" d="M125.8 164.1 C 126.4 168.25, 126.05 170.85, 125 175"></path><path stroke="Black" stroke-width="0.6647869871181237" fill="None" d="M124.19999999999999 135.9 C 121.69999999999999 138.7, 120.15 140.7, 118.75 143.75"></path><path stroke="Black" stroke-width="0.6647869871181237" fill="None" d="M118.75 143.75 C 121.875 146.875, 123.125 148.125, 125 150"></path><path stroke="Black" stroke-width="0.6647869871181237" fill="None" d="M125 150 C 127 150, 129.5 150, 131.15 150"></path><path stroke="Black" stroke-width="0.6647869871181237" fill="None" d="M124.375 140.125 C 122.25 141.15, 121.19999999999999 142.5, 120.525 144.875"></path><path stroke="Black" stroke-width="0.6647869871181237" fill="None" d="M126.375 143.375 C 123.94999999999999 143.95, 122.94999999999999 144.7, 122.125 146.575"></path><path stroke="Black" stroke-width="0.6647869871181237" fill="None" d="M128.75 146.15 C 125.9 145.9, 125.25 146.35, 123.69999999999999 148.15"></path><path stroke="Black" stroke-width="0.6647869871181237" fill="None" d="M128.275 150.825 C 128.375 151.625, 128.375 152.375, 128.225 152.725"></path><path stroke="Black" stroke-width="0.6647869871181237" fill="None" d="M129.775 150.825 C 130.25 152.25, 130.25 153, 129.575 154.175"></path><path stroke="Black" stroke-width="0.6647869871181237" fill="None" d="M148.325 139.825 C 144.25 138, 141.5 138.25, 139.05 139.15"></path><path stroke="Black" stroke-width="0.6647869871181237" fill="None" d="M148.325 142.275 C 144 141, 142.5 141, 139.625 141.625"></path><path stroke="Black" stroke-width="0.6647869871181237" fill="None" d="M148.325 145.425 C 144.25 143.75, 142.25 143.75, 139.475 144.475"></path><path stroke="Black" stroke-width="0.6647869871181237" fill="None" d="M148.975 147.875 C 143.5 146.5, 141.5 146.5, 138.95 146.95"></path><path stroke="Black" stroke-width="0.6647869871181237" fill="None" d="M132.225 134.875 C 131.2 134.95, 130.7 134.95, 130.05 134.95"></path><path stroke="Black" stroke-width="0.6647869871181237" fill="None" d="M132.225 134.875 C 131.2 133.3, 129.95 132.05, 128.2 130.85"></path><path stroke="Black" stroke-width="0.6647869871181237" fill="None" d="M128.2 130.85 C 127.57499999999999 131.825, 128.9 133.5, 130.05 134.95"></path><path stroke="Black" stroke-width="0.6647869871181237" fill="None" d="M128.8 135.3 C 128 135.5, 127 135.75, 126.52499999999999 135.875"></path><path stroke="Black" stroke-width="0.6647869871181237" fill="None" d="M128.8 135.3 C 127.375 132.875, 127 132.5, 126.07499999999999 131.675"></path><path stroke="Black" stroke-width="0.6647869871181237" fill="None" d="M126.07499999999999 131.675 C 126.125 133.625, 126.19999999999999 134.8, 126.52499999999999 135.875"></path><path stroke="Black" stroke-width="0.6647869871181237" fill="None" d="M135.35 170.45 C 149.125 163.875, 151.8 164.7, 168.425 172.325"></path><path stroke="Black" stroke-width="0.6647869871181237" fill="None" d="M163.3 164.9 C 166.85 169.65, 169.8 171.9, 175 175"></path><path stroke="Black" stroke-width="0.6647869871181237" fill="None" d="M150 162.5 C 154.45 164.15, 158 164.6, 163.3 164.9"></path><path stroke="Black" stroke-width="0.6647869871181237" fill="None" d="M150 150 C 150 155.5, 150 158.75, 150 162.5"></path><path stroke="Black" stroke-width="0.6647869871181237" fill="None" d="M137.5 150 C 142.5 150, 145.5 150, 150 150"></path><path stroke="Black" stroke-width="0.6647869871181237" fill="None" d="M137.5 150 C 135.85 154.45, 135.4 158, 135.1 163.3"></path><path stroke="Black" stroke-width="0.6647869871181237" fill="None" d="M135.1 163.3 C 142.5 160.25, 143.75 160.25, 150 162.5"></path><path stroke="Black" stroke-width="0.6647869871181237" fill="None" d="M135.1 163.3 C 130.35 166.85, 128.1 169.8, 125 175"></path><path stroke="Black" stroke-width="0.6647869871181237" fill="None" d="M125 175 C 129.15 176.05, 131.75 176.4, 135.9 175.8"></path><path stroke="Black" stroke-width="0.6647869871181237" fill="None" d="M135.9 175.8 C 142.95 175.45, 142.3 169.3, 150 168.85"></path><path stroke="Black" stroke-width="0.6647869871181237" fill="None" d="M150 168.85 C 151.25 168.75, 153.75 168.75, 156.25 168.75"></path><path stroke="Black" stroke-width="0.6647869871181237" fill="None" d="M156.25 168.75 C 159.3 170.15, 161.3 171.7, 164.1 174.2"></path><path stroke="Black" stroke-width="0.6647869871181237" fill="None" d="M164.1 174.2 C 168.25 173.6, 170.85 173.95, 175 175"></path><path stroke="Black" stroke-width="0.6647869871181237" fill="None" d="M135.9 175.8 C 138.7 178.3, 140.7 179.85, 143.75 181.25"></path><path stroke="Black" stroke-width="0.6647869871181237" fill="None" d="M143.75 181.25 C 146.875 178.125, 148.125 176.875, 150 175"></path><path stroke="Black" stroke-width="0.6647869871181237" fill="None" d="M150 175 C 150 173, 150 170.5, 150 168.85"></path><path stroke="Black" stroke-width="0.6647869871181237" fill="None" d="M140.125 175.625 C 141.15 177.75, 142.5 178.8, 144.875 179.475"></path><path stroke="Black" stroke-width="0.6647869871181237" fill="None" d="M143.375 173.625 C 143.95 176.05, 144.7 177.05, 146.575 177.875"></path><path stroke="Black" stroke-width="0.6647869871181237" fill="None" d="M146.15 171.25 C 145.9 174.1, 146.35 174.75, 148.15 176.3"></path><path stroke="Black" stroke-width="0.6647869871181237" fill="None" d="M150.825 171.725 C 151.625 171.625, 152.375 171.625, 152.725 171.775"></path><path stroke="Black" stroke-width="0.6647869871181237" fill="None" d="M150.825 170.225 C 152.25 169.75, 153 169.75, 154.175 170.425"></path><path stroke="Black" stroke-width="0.6647869871181237" fill="None" d="M139.825 151.675 C 138 155.75, 138.25 158.5, 139.15 160.95"></path><path stroke="Black" stroke-width="0.6647869871181237" fill="None" d="M142.275 151.675 C 141 156, 141 157.5, 141.625 160.375"></path><path stroke="Black" stroke-width="0.6647869871181237" fill="None" d="M145.425 151.675 C 143.75 155.75, 143.75 157.75, 144.475 160.525"></path><path stroke="Black" stroke-width="0.6647869871181237" fill="None" d="M147.875 151.025 C 146.5 156.5, 146.5 158.5, 146.95 161.05"></path><path stroke="Black" stroke-width="0.6647869871181237" fill="None" d="M134.875 167.775 C 134.95 168.8, 134.95 169.3, 134.95 169.95"></path><path stroke="Black" stroke-width="0.6647869871181237" fill="None" d="M134.875 167.775 C 133.3 168.8, 132.05 170.05, 130.85 171.8"></path><path stroke="Black" stroke-width="0.6647869871181237" fill="None" d="M130.85 171.8 C 131.825 172.425, 133.5 171.1, 134.95 169.95"></path><path stroke="Black" stroke-width="0.6647869871181237" fill="None" d="M135.3 171.2 C 135.5 172, 135.75 173, 135.875 173.47500000000002"></path><path stroke="Black" stroke-width="0.6647869871181237" fill="None" d="M135.3 171.2 C 132.875 172.625, 132.5 173, 131.675 173.925"></path><path stroke="Black" stroke-width="0.6647869871181237" fill="None" d="M131.675 173.925 C 133.625 173.875, 134.8 173.8, 135.875 173.47500000000002"></path><path stroke="Black" stroke-width="0.6647869871181237" fill="None" d="M170.45 164.65 C 163.875 150.875, 164.7 148.2, 172.325 131.575"></path><path stroke="Black" stroke-width="0.6647869871181237" fill="None" d="M164.9 136.7 C 169.65 133.15, 171.9 130.2, 175 125"></path><path stroke="Black" stroke-width="0.6647869871181237" fill="None" d="M162.5 150 C 164.15 145.55, 164.6 142, 164.9 136.7"></path><path stroke="Black" stroke-width="0.6647869871181237" fill="None" d="M150 150 C 155.5 150, 158.75 150, 162.5 150"></path><path stroke="Black" stroke-width="0.6647869871181237" fill="None" d="M150 162.5 C 150 157.5, 150 154.5, 150 150"></path><path stroke="Black" stroke-width="0.6647869871181237" fill="None" d="M150 162.5 C 154.45 164.15, 158 164.6, 163.3 164.9"></path><path stroke="Black" stroke-width="0.6647869871181237" fill="None" d="M163.3 164.9 C 160.25 157.5, 160.25 156.25, 162.5 150"></path><path stroke="Black" stroke-width="0.6647869871181237" fill="None" d="M163.3 164.9 C 166.85 169.65, 169.8 171.9, 175 175"></path><path stroke="Black" stroke-width="0.6647869871181237" fill="None" d="M175 175 C 176.05 170.85, 176.4 168.25, 175.8 164.1"></path><path stroke="Black" stroke-width="0.6647869871181237" fill="None" d="M175.8 164.1 C 175.45 157.05, 169.3 157.7, 168.85 150"></path><path stroke="Black" stroke-width="0.6647869871181237" fill="None" d="M168.85 150 C 168.75 148.75, 168.75 146.25, 168.75 143.75"></path><path stroke="Black" stroke-width="0.6647869871181237" fill="None" d="M168.75 143.75 C 170.15 140.7, 171.7 138.7, 174.2 135.9"></path><path stroke="Black" stroke-width="0.6647869871181237" fill="None" d="M174.2 135.9 C 173.6 131.75, 173.95 129.15, 175 125"></path><path stroke="Black" stroke-width="0.6647869871181237" fill="None" d="M175.8 164.1 C 178.3 161.3, 179.85 159.3, 181.25 156.25"></path><path stroke="Black" stroke-width="0.6647869871181237" fill="None" d="M181.25 156.25 C 178.125 153.125, 176.875 151.875, 175 150"></path><path stroke="Black" stroke-width="0.6647869871181237" fill="None" d="M175 150 C 173 150, 170.5 150, 168.85 150"></path><path stroke="Black" stroke-width="0.6647869871181237" fill="None" d="M175.625 159.875 C 177.75 158.85, 178.8 157.5, 179.475 155.125"></path><path stroke="Black" stroke-width="0.6647869871181237" fill="None" d="M173.625 156.625 C 176.05 156.05, 177.05 155.3, 177.875 153.425"></path><path stroke="Black" stroke-width="0.6647869871181237" fill="None" d="M171.25 153.85 C 174.1 154.1, 174.75 153.65, 176.3 151.85"></path><path stroke="Black" stroke-width="0.6647869871181237" fill="None" d="M171.725 149.175 C 171.625 148.375, 171.625 147.625, 171.775 147.275"></path><path stroke="Black" stroke-width="0.6647869871181237" fill="None" d="M170.225 149.175 C 169.75 147.75, 169.75 147, 170.425 145.825"></path><path stroke="Black" stroke-width="0.6647869871181237" fill="None" d="M151.675 160.175 C 155.75 162, 158.5 161.75, 160.95 160.85"></path><path stroke="Black" stroke-width="0.6647869871181237" fill="None" d="M151.675 157.725 C 156 159, 157.5 159, 160.375 158.375"></path><path stroke="Black" stroke-width="0.6647869871181237" fill="None" d="M151.675 154.575 C 155.75 156.25, 157.75 156.25, 160.525 155.525"></path><path stroke="Black" stroke-width="0.6647869871181237" fill="None" d="M151.025 152.125 C 156.5 153.5, 158.5 153.5, 161.05 153.05"></path><path stroke="Black" stroke-width="0.6647869871181237" fill="None" d="M167.775 165.125 C 168.8 165.05, 169.3 165.05, 169.95 165.05"></path><path stroke="Black" stroke-width="0.6647869871181237" fill="None" d="M167.775 165.125 C 168.8 166.7, 170.05 167.95, 171.8 169.15"></path><path stroke="Black" stroke-width="0.6647869871181237" fill="None" d="M171.8 169.15 C 172.425 168.175, 171.1 166.5, 169.95 165.05"></path><path stroke="Black" stroke-width="0.6647869871181237" fill="None" d="M171.2 164.7 C 172 164.5, 173 164.25, 173.475 164.125"></path><path stroke="Black" stroke-width="0.6647869871181237" fill="None" d="M171.2 164.7 C 172.625 167.125, 173 167.5, 173.925 168.325"></path><path stroke="Black" stroke-width="0.6647869871181237" fill="None" d="M173.925 168.325 C 173.875 166.375, 173.8 165.2, 173.475 164.125"></path></svg>