<?xml version="1.0" encoding="UTF-8" standalone="no"?>
<svg version="1.1" xmlns="http://www.w3.org/2000/svg" x="0" y="0" width="300" height="300"><path stroke="Black" stroke-width="1.3693063937629153" fill="None" d="M92.4 119.69999999999999 C 114 180.75, 124.5 186.3, 197.25 213.3"></path><path stroke="Black" stroke-width="1.3693063937629153" fill="None" d="M159.6 220.2 C 184.5 216.6, 200.1 218.7, 225 225"></path><path stroke="Black" stroke-width="1.3693063937629153" fill="None" d="M112.5 187.5 C 130.8 195.9, 142.8 205.2, 159.6 220.2"></path><path stroke="Black" stroke-width="1.3693063937629153" fill="None" d="M75 225 C 91.5 208.5, 101.25 198.75, 112.5 187.5"></path><path stroke="Black" stroke-width="1.3693063937629153" fill="None" d="M37.5 187.5 C 52.5 202.5, 61.5 211.5, 75 225"></path><path stroke="Black" stroke-width="1.3693063937629153" fill="None" d="M37.5 187.5 C 45.9 169.2, 55.2 157.2, 70.2 140.4"></path><path stroke="Black" stroke-width="1.3693063937629153" fill="None" d="M70.2 140.4 C 83.25 171.75, 87 175.5, 112.5 187.5"></path><path stroke="Black" stroke-width="1.3693063937629153" fill="None" d="M70.2 140.4 C 66.6 115.5, 68.7 99.9, 75 75"></path><path stroke="Black" stroke-width="1.3693063937629153" fill="None" d="M75 75 C 90.6 84.30000000000001, 99.45 91.05000000000001, 110.1 105.30000000000001"></path><path stroke="Black" stroke-width="1.3693063937629153" fill="None" d="M110.1 105.30000000000001 C 130.2 127.5, 109.80000000000001 144, 131.55 168.45"></path><path stroke="Black" stroke-width="1.3693063937629153" fill="None" d="M131.55 168.45 C 135 172.5, 142.5 180, 150 187.5"></path><path stroke="Black" stroke-width="1.3693063937629153" fill="None" d="M150 187.5 C 163.35 192.45, 174 193.8, 189.9 194.7"></path><path stroke="Black" stroke-width="1.3693063937629153" fill="None" d="M189.9 194.7 C 200.55 208.95, 209.4 215.7, 225 225"></path><path stroke="Black" stroke-width="1.3693063937629153" fill="None" d="M110.1 105.30000000000001 C 126 106.19999999999999, 136.65 107.55000000000001, 150 112.5"></path><path stroke="Black" stroke-width="1.3693063937629153" fill="None" d="M150 112.5 C 150 131.25, 150 138.75, 150 150"></path><path stroke="Black" stroke-width="1.3693063937629153" fill="None" d="M150 150 C 144 156, 136.5 163.5, 131.55 168.45"></path><path stroke="Black" stroke-width="1.3693063937629153" fill="None" d="M122.25 118.5 C 131.7 115.19999999999999, 138.9 116.10000000000002, 148.05 121.19999999999999"></path><path stroke="Black" stroke-width="1.3693063937629153" fill="None" d="M126 134.25 C 135 128.7, 140.25 127.94999999999999, 148.35 131.1"></path><path stroke="Black" stroke-width="1.3693063937629153" fill="None" d="M127.19999999999999 149.7 C 135 140.4, 138.3 139.8, 148.35 140.55"></path><path stroke="Black" stroke-width="1.3693063937629153" fill="None" d="M142.65 162.3 C 144.75 165, 147 167.25, 148.5 167.85"></path><path stroke="Black" stroke-width="1.3693063937629153" fill="None" d="M138.15 166.8 C 141 172.5, 143.25 174.75, 148.8 176.25"></path><path stroke="Black" stroke-width="1.3693063937629153" fill="None" d="M49.5 189.45 C 56.25 171.75, 65.25 164.25, 75.3 159.6"></path><path stroke="Black" stroke-width="1.3693063937629153" fill="None" d="M56.85 196.8 C 66 180, 70.5 175.5, 81 168.75"></path><path stroke="Black" stroke-width="1.3693063937629153" fill="None" d="M66.3 206.25 C 73.5 189, 79.5 183, 90 176.85"></path><path stroke="Black" stroke-width="1.3693063937629153" fill="None" d="M71.7 215.55 C 84 195, 90 189, 99 182.7"></path><path stroke="Black" stroke-width="1.3693063937629153" fill="None" d="M82.95 126.30000000000001 C 86.25 123.44999999999999, 87.75 121.94999999999999, 89.7 120"></path><path stroke="Black" stroke-width="1.3693063937629153" fill="None" d="M82.95 126.30000000000001 C 81.3 118.5, 81.3 111, 82.95 102.15"></path><path stroke="Black" stroke-width="1.3693063937629153" fill="None" d="M82.95 102.15 C 87.75 103.19999999999999, 88.8 112.19999999999999, 89.7 120"></path><path stroke="Black" stroke-width="1.3693063937629153" fill="None" d="M94.5 117.30000000000001 C 97.5 115.5, 101.25 113.25, 103.05 112.19999999999999"></path><path stroke="Black" stroke-width="1.3693063937629153" fill="None" d="M94.5 117.30000000000001 C 91.5 105.75, 91.5 103.5, 91.8 98.25"></path><path stroke="Black" stroke-width="1.3693063937629153" fill="None" d="M91.8 98.25 C 97.5 104.25, 100.8 108, 103.05 112.19999999999999"></path><path stroke="Black" stroke-width="1.1514448378992268" fill="None" d="M193.95 88.65 C 152.625 108.375, 144.6 105.9, 94.72500000000001 83.025"></path><path stroke="Black" stroke-width="1.1514448378992268" fill="None" d="M110.1 105.30000000000001 C 99.45 91.05000000000001, 90.6 84.30000000000001, 75 75"></path><path stroke="Black" stroke-width="1.1514448378992268" fill="None" d="M150 112.5 C 136.65 107.55000000000001, 126 106.19999999999999, 110.1 105.30000000000001"></path><path stroke="Black" stroke-width="1.1514448378992268" fill="None" d="M150 150 C 150 133.5, 150 123.75, 150 112.5"></path><path stroke="Black" stroke-width="1.1514448378992268" fill="None" d="M187.5 150 C 172.5 150, 163.5 150, 150 150"></path><path stroke="Black" stroke-width="1.1514448378992268" fill="None" d="M187.5 150 C 192.45 136.65, 193.8 126, 194.7 110.1"></path><path stroke="Black" stroke-width="1.1514448378992268" fill="None" d="M194.7 110.1 C 172.5 119.25, 168.75 119.25, 150 112.5"></path><path stroke="Black" stroke-width="1.1514448378992268" fill="None" d="M194.7 110.1 C 208.95 99.44999999999999, 215.7 90.6, 225 75"></path><path stroke="Black" stroke-width="1.1514448378992268" fill="None" d="M225 75 C 212.55 71.85000000000002, 204.75 70.80000000000001, 192.3 72.6"></path><path stroke="Black" stroke-width="1.1514448378992268" fill="None" d="M192.3 72.6 C 171.15 73.65, 173.1 92.1, 150 93.44999999999999"></path><path stroke="Black" stroke-width="1.1514448378992268" fill="None" d="M150 93.44999999999999 C 146.25 93.75, 138.75 93.75, 131.25 93.75"></path><path stroke="Black" stroke-width="1.1514448378992268" fill="None" d="M131.25 93.75 C 122.1 89.55000000000001, 116.1 84.9, 107.69999999999999 77.39999999999998"></path><path stroke="Black" stroke-width="1.1514448378992268" fill="None" d="M107.69999999999999 77.39999999999998 C 95.25 79.19999999999999, 87.44999999999999 78.14999999999998, 75 75"></path><path stroke="Black" stroke-width="1.1514448378992268" fill="None" d="M192.3 72.6 C 183.9 65.1, 177.9 60.44999999999999, 168.75 56.25"></path><path stroke="Black" stroke-width="1.1514448378992268" fill="None" d="M168.75 56.25 C 159.375 65.625, 155.625 69.375, 150 75"></path><path stroke="Black" stroke-width="1.1514448378992268" fill="None" d="M150 75 C 150 81, 150 88.5, 150 93.44999999999999"></path><path stroke="Black" stroke-width="1.1514448378992268" fill="None" d="M179.625 73.125 C 176.55 66.75, 172.5 63.60000000000002, 165.375 61.57499999999999"></path><path stroke="Black" stroke-width="1.1514448378992268" fill="None" d="M169.875 79.125 C 168.15 71.85, 165.9 68.85, 160.275 66.375"></path><path stroke="Black" stroke-width="1.1514448378992268" fill="None" d="M161.55 86.25 C 162.3 77.69999999999999, 160.95 75.75, 155.55 71.10000000000002"></path><path stroke="Black" stroke-width="1.1514448378992268" fill="None" d="M147.525 84.82499999999999 C 145.125 85.125, 142.875 85.125, 141.825 84.67500000000001"></path><path stroke="Black" stroke-width="1.1514448378992268" fill="None" d="M147.525 89.32499999999999 C 143.25 90.75, 141 90.75, 137.475 88.725"></path><path stroke="Black" stroke-width="1.1514448378992268" fill="None" d="M180.525 144.975 C 186 132.75, 185.25 124.5, 182.55 117.15"></path><path stroke="Black" stroke-width="1.1514448378992268" fill="None" d="M173.175 144.975 C 177 132, 177 127.5, 175.125 118.875"></path><path stroke="Black" stroke-width="1.1514448378992268" fill="None" d="M163.725 144.975 C 168.75 132.75, 168.75 126.75, 166.575 118.42500000000001"></path><path stroke="Black" stroke-width="1.1514448378992268" fill="None" d="M156.375 146.925 C 160.5 130.5, 160.5 124.5, 159.15 116.85"></path><path stroke="Black" stroke-width="1.1514448378992268" fill="None" d="M195.375 96.67500000000001 C 195.15 93.6, 195.15 92.1, 195.15 90.15"></path><path stroke="Black" stroke-width="1.1514448378992268" fill="None" d="M195.375 96.67500000000001 C 200.1 93.6, 203.85 89.85, 207.45 84.60000000000002"></path><path stroke="Black" stroke-width="1.1514448378992268" fill="None" d="M207.45 84.60000000000002 C 204.525 82.725, 199.5 86.69999999999999, 195.15 90.15"></path><path stroke="Black" stroke-width="1.1514448378992268" fill="None" d="M194.1 86.4 C 193.5 84, 192.75 81, 192.375 79.57499999999999"></path><path stroke="Black" stroke-width="1.1514448378992268" fill="None" d="M194.1 86.4 C 201.375 82.125, 202.5 81, 204.975 78.225"></path><path stroke="Black" stroke-width="1.1514448378992268" fill="None" d="M204.975 78.225 C 199.125 78.375, 195.6 78.6, 192.375 79.57499999999999"></path><path stroke="Black" stroke-width="1.1514448378992268" fill="None" d="M211.35 193.95 C 191.625 152.625, 194.1 144.6, 216.975 94.72500000000002"></path><path stroke="Black" stroke-width="1.1514448378992268" fill="None" d="M194.7 110.1 C 208.95 99.44999999999999, 215.7 90.6, 225 75"></path><path stroke="Black" stroke-width="1.1514448378992268" fill="None" d="M187.5 150 C 192.45 136.65, 193.8 126, 194.7 110.1"></path><path stroke="Black" stroke-width="1.1514448378992268" fill="None" d="M150 150 C 166.5 150, 176.25 150, 187.5 150"></path><path stroke="Black" stroke-width="1.1514448378992268" fill="None" d="M150 187.5 C 150 172.5, 150 163.5, 150 150"></path><path stroke="Black" stroke-width="1.1514448378992268" fill="None" d="M150 187.5 C 163.35 192.45, 174 193.8, 189.9 194.7"></path><path stroke="Black" stroke-width="1.1514448378992268" fill="None" d="M189.9 194.7 C 180.75 172.5, 180.75 168.75, 187.5 150"></path><path stroke="Black" stroke-width="1.1514448378992268" fill="None" d="M189.9 194.7 C 200.55 208.95, 209.4 215.7, 225 225"></path><path stroke="Black" stroke-width="1.1514448378992268" fill="None" d="M225 225 C 228.14999999999998 212.55, 229.2 204.75, 227.4 192.3"></path><path stroke="Black" stroke-width="1.1514448378992268" fill="None" d="M227.4 192.3 C 226.35 171.15, 207.9 173.1, 206.55 150"></path><path stroke="Black" stroke-width="1.1514448378992268" fill="None" d="M206.55 150 C 206.25 146.25, 206.25 138.75, 206.25 131.25"></path><path stroke="Black" stroke-width="1.1514448378992268" fill="None" d="M206.25 131.25 C 210.45 122.1, 215.1 116.1, 222.60000000000002 107.69999999999999"></path><path stroke="Black" stroke-width="1.1514448378992268" fill="None" d="M222.60000000000002 107.69999999999999 C 220.8 95.25, 221.85000000000002 87.44999999999999, 225 75"></path><path stroke="Black" stroke-width="1.1514448378992268" fill="None" d="M227.4 192.3 C 234.9 183.9, 239.55 177.9, 243.75 168.75"></path><path stroke="Black" stroke-width="1.1514448378992268" fill="None" d="M243.75 168.75 C 234.375 159.375, 230.625 155.625, 225 150"></path><path stroke="Black" stroke-width="1.1514448378992268" fill="None" d="M225 150 C 219 150, 211.5 150, 206.55 150"></path><path stroke="Black" stroke-width="1.1514448378992268" fill="None" d="M226.875 179.625 C 233.25 176.55, 236.39999999999998 172.5, 238.425 165.375"></path><path stroke="Black" stroke-width="1.1514448378992268" fill="None" d="M220.875 169.875 C 228.15 168.15, 231.15 165.9, 233.625 160.275"></path><path stroke="Black" stroke-width="1.1514448378992268" fill="None" d="M213.75 161.55 C 222.3 162.3, 224.25 160.95, 228.89999999999998 155.55"></path><path stroke="Black" stroke-width="1.1514448378992268" fill="None" d="M215.175 147.525 C 214.875 145.125, 214.875 142.875, 215.325 141.825"></path><path stroke="Black" stroke-width="1.1514448378992268" fill="None" d="M210.675 147.525 C 209.25 143.25, 209.25 141, 211.275 137.475"></path><path stroke="Black" stroke-width="1.1514448378992268" fill="None" d="M155.025 180.525 C 167.25 186, 175.5 185.25, 182.85 182.55"></path><path stroke="Black" stroke-width="1.1514448378992268" fill="None" d="M155.025 173.175 C 168 177, 172.5 177, 181.125 175.125"></path><path stroke="Black" stroke-width="1.1514448378992268" fill="None" d="M155.025 163.725 C 167.25 168.75, 173.25 168.75, 181.575 166.575"></path><path stroke="Black" stroke-width="1.1514448378992268" fill="None" d="M153.075 156.375 C 169.5 160.5, 175.5 160.5, 183.15 159.15"></path><path stroke="Black" stroke-width="1.1514448378992268" fill="None" d="M203.325 195.375 C 206.4 195.15, 207.9 195.15, 209.85 195.15"></path><path stroke="Black" stroke-width="1.1514448378992268" fill="None" d="M203.325 195.375 C 206.4 200.1, 210.15 203.85, 215.39999999999998 207.45"></path><path stroke="Black" stroke-width="1.1514448378992268" fill="None" d="M215.39999999999998 207.45 C 217.275 204.525, 213.3 199.5, 209.85 195.15"></path><path stroke="Black" stroke-width="1.1514448378992268" fill="None" d="M213.6 194.1 C 216 193.5, 219 192.75, 220.425 192.375"></path><path stroke="Black" stroke-width="1.1514448378992268" fill="None" d="M213.6 194.1 C 217.875 201.375, 219 202.5, 221.775 204.975"></path><path stroke="Black" stroke-width="1.1514448378992268" fill="None" d="M221.775 204.975 C 221.625 199.125, 221.4 195.6, 220.425 192.375"></path></svg>