<?xml version="1.0" encoding="UTF-8" standalone="no"?>
<svg version="1.1" xmlns="http://www.w3.org/2000/svg" x="0" y="0" width="300" height="300"><path stroke="Black" stroke-width="1.1514448378992268" fill="None" d="M193.95 88.65 C 152.625 108.375, 144.6 105.9, 94.72500000000001 83.025"></path><path stroke="Black" stroke-width="1.1514448378992268" fill="None" d="M110.1 105.30000000000001 C 99.45 91.05000000000001, 90.6 84.30000000000001, 75 75"></path><path stroke="Black" stroke-width="1.1514448378992268" fill="None" d="M150 112.5 C 136.65 107.55000000000001, 126 106.19999999999999, 110.1 105.30000000000001"></path><path stroke="Black" stroke-width="1.1514448378992268" fill="None" d="M150 150 C 150 133.5, 150 123.75, 150 112.5"></path><path stroke="Black" stroke-width="1.1514448378992268" fill="None" d="M187.5 150 C 172.5 150, 163.5 150, 150 150"></path><path stroke="Black" stroke-width="1.1514448378992268" fill="None" d="M187.5 150 C 192.45 136.65, 193.8 126, 194.7 110.1"></path><path stroke="Black" stroke-width="1.1514448378992268" fill="None" d="M194.7 110.1 C 172.5 119.25, 168.75 119.25, 150 112.5"></path><path stroke="Black" stroke-width="1.1514448378992268" fill="None" d="M194.7 110.1 C 208.95 99.44999999999999, 215.7 90.6, 225 75"></path><path stroke="Black" stroke-width="1.1514448378992268" fill="None" d="M225 75 C 212.55 71.85000000000002, 204.75 70.80000000000001, 192.3 72.6"></path><path stroke="Black" stroke-width="1.1514448378992268" fill="None" d="M192.3 72.6 C 171.15 73.65, 173.1 92.1, 150 93.44999999999999"></path><path stroke="Black" stroke-width="1.1514448378992268" fill="None" d="M150 93.44999999999999 C 146.25 93.75, 138.75 93.75, 131.25 93.75"></path><path stroke="Black" stroke-width="1.1514448378992268" fill="None" d="M131.25 93.75 C 122.1 89.55000000000001, 116.1 84.9, 107.69999999999999 77.39999999999998"></path><path stroke="Black" stroke-width="1.1514448378992268" fill="None" d="M107.69999999999999 77.39999999999998 C 95.25 79.19999999999999, 87.44999999999999 78.14999999999998, 75 75"></path><path stroke="Black" stroke-width="1.1514448378992268" fill="None" d="M192.3 72.6 C 183.9 65.1, 177.9 60.44999999999999, 168.75 56.25"></path><path stroke="Black" stroke-width="1.1514448378992268" fill="None" d="M168.75 56.25 C 159.375 65.625, 155.625 69.375, 150 75"></path><path stroke="Black" stroke-width="1.1514448378992268" fill="None" d="M150 75 C 150 81, 150 88.5, 150 93.44999999999999"></path><path stroke="Black" stroke-width="1.1514448378992268" fill="None" d="M179.625 73.125 C 176.55 66.75, 172.5 63.60000000000002, 165.375 61.57499999999999"></path><path stroke="Black" stroke-width="1.1514448378992268" fill="None" d="M169.875 79.125 C 168.15 71.85, 165.9 68.85, 160.275 66.375"></path><path stroke="Black" stroke-width="1.1514448378992268" fill="None" d="M161.55 86.25 C 162.3 77.69999999999999, 160.95 75.75, 155.55 71.10000000000002"></path><path stroke="Black" stroke-width="1.1514448378992268" fill="None" d="M147.525 84.82499999999999 C 145.125 85.125, 142.875 85.125, 141.825 84.67500000000001"></path><path stroke="Black" stroke-width="1.1514448378992268" fill="None" d="M147.525 89.32499999999999 C 143.25 90.75, 141 90.75, 137.475 88.725"></path><path stroke="Black" stroke-width="1.1514448378992268" fill="None" d="M180.525 144.975 C 186 132.75, 185.25 124.5, 182.55 117.15"></path><path stroke="Black" stroke-width="1.1514448378992268" fill="None" d="M173.175 144.975 C 177 132, 177 127.5, 175.125 118.875"></path><path stroke="Black" stroke-width="1.1514448378992268" fill="None" d="M163.725 144.975 C 168.75 132.75, 168.75 126.75, 166.575 118.42500000000001"></path><path stroke="Black" stroke-width="1.1514448378992268" fill="None" d="M156.375 146.925 C 160.5 130.5, 160.5 124.5, 159.15 116.85"></path><path stroke="Black" stroke-width="1.1514448378992268" fill="None" d="M195.375 96.67500000000001 C 195.15 93.6, 195.15 92.1, 195.15 90.15"></path><path stroke="Black" stroke-width="1.1514448378992268" fill="None" d="M195.375 96.67500000000001 C 200.1 93.6, 203.85 89.85, 207.45 84.60000000000002"></path><path stroke="Black" stroke-width="1.1514448378992268" fill="None" d="M207.45 84.60000000000002 C 204.525 82.725, 199.5 86.69999999999999, 195.15 90.15"></path><path stroke="Black" stroke-width="1.1514448378992268" fill="None" d="M194.1 86.4 C 193.5 84, 192.75 81, 192.375 79.57499999999999"></path><path stroke="Black" stroke-width="1.1514448378992268" fill="None" d="M194.1 86.4 C 201.375 82.125, 202.5 81, 204.975 78.225"></path><path stroke="Black" stroke-width="1.1514448378992268" fill="None" d="M204.975 78.225 C 199.125 78.375, 195.6 78.6, 192.375 79.57499999999999"></path><path stroke="Black" stroke-width="1.1514448378992268" fill="None" d="M88.65 106.05000000000001 C 108.375 147.375, 105.9 155.4, 83.025 205.27499999999998"></path><path stroke="Black" stroke-width="1.1514448378992268" fill="None" d="M105.30000000000001 189.9 C 91.05 200.55, 84.3 209.4, 75 225"></path><path stroke="Black" stroke-width="1.1514448378992268" fill="None" d="M112.5 150 C 107.55 163.35, 106.2 174, 105.30000000000001 189.9"></path><path stroke="Black" stroke-width="1.1514448378992268" fill="None" d="M150 150 C 133.5 150, 123.75 150, 112.5 150"></path><path stroke="Black" stroke-width="1.1514448378992268" fill="None" d="M150 112.5 C 150 127.5, 150 136.5, 150 150"></path><path stroke="Black" stroke-width="1.1514448378992268" fill="None" d="M150 112.5 C 136.65 107.55000000000001, 126 106.19999999999999, 110.1 105.30000000000001"></path><path stroke="Black" stroke-width="1.1514448378992268" fill="None" d="M110.1 105.30000000000001 C 119.25 127.5, 119.25 131.25, 112.5 150"></path><path stroke="Black" stroke-width="1.1514448378992268" fill="None" d="M110.1 105.30000000000001 C 99.45 91.05000000000001, 90.6 84.30000000000001, 75 75"></path><path stroke="Black" stroke-width="1.1514448378992268" fill="None" d="M75 75 C 71.85000000000001 87.44999999999999, 70.80000000000001 95.25, 72.6 107.69999999999999"></path><path stroke="Black" stroke-width="1.1514448378992268" fill="None" d="M72.6 107.69999999999999 C 73.65 128.85, 92.1 126.9, 93.45 150"></path><path stroke="Black" stroke-width="1.1514448378992268" fill="None" d="M93.45 150 C 93.75 153.75, 93.75 161.25, 93.75 168.75"></path><path stroke="Black" stroke-width="1.1514448378992268" fill="None" d="M93.75 168.75 C 89.55000000000001 177.9, 84.9 183.9, 77.39999999999999 192.3"></path><path stroke="Black" stroke-width="1.1514448378992268" fill="None" d="M77.39999999999999 192.3 C 79.2 204.75, 78.14999999999999 212.55, 75 225"></path><path stroke="Black" stroke-width="1.1514448378992268" fill="None" d="M72.6 107.69999999999999 C 65.1 116.1, 60.45 122.1, 56.25 131.25"></path><path stroke="Black" stroke-width="1.1514448378992268" fill="None" d="M56.25 131.25 C 65.625 140.625, 69.375 144.375, 75 150"></path><path stroke="Black" stroke-width="1.1514448378992268" fill="None" d="M75 150 C 81 150, 88.5 150, 93.45 150"></path><path stroke="Black" stroke-width="1.1514448378992268" fill="None" d="M73.125 120.375 C 66.75 123.44999999999999, 63.60000000000001 127.5, 61.575 134.625"></path><path stroke="Black" stroke-width="1.1514448378992268" fill="None" d="M79.125 130.125 C 71.85 131.85, 68.85 134.1, 66.375 139.725"></path><path stroke="Black" stroke-width="1.1514448378992268" fill="None" d="M86.25 138.45 C 77.7 137.7, 75.75 139.05, 71.10000000000001 144.45"></path><path stroke="Black" stroke-width="1.1514448378992268" fill="None" d="M84.825 152.475 C 85.125 154.875, 85.125 157.125, 84.675 158.175"></path><path stroke="Black" stroke-width="1.1514448378992268" fill="None" d="M89.325 152.475 C 90.75 156.75, 90.75 159, 88.725 162.525"></path><path stroke="Black" stroke-width="1.1514448378992268" fill="None" d="M144.975 119.475 C 132.75 114, 124.5 114.75, 117.15 117.44999999999999"></path><path stroke="Black" stroke-width="1.1514448378992268" fill="None" d="M144.975 126.82499999999999 C 132 123, 127.5 123, 118.875 124.875"></path><path stroke="Black" stroke-width="1.1514448378992268" fill="None" d="M144.975 136.275 C 132.75 131.25, 126.75 131.25, 118.425 133.425"></path><path stroke="Black" stroke-width="1.1514448378992268" fill="None" d="M146.925 143.625 C 130.5 139.5, 124.5 139.5, 116.85 140.85"></path><path stroke="Black" stroke-width="1.1514448378992268" fill="None" d="M96.675 104.625 C 93.6 104.85, 92.1 104.85, 90.15 104.85"></path><path stroke="Black" stroke-width="1.1514448378992268" fill="None" d="M96.675 104.625 C 93.6 99.9, 89.85 96.15, 84.60000000000001 92.55000000000001"></path><path stroke="Black" stroke-width="1.1514448378992268" fill="None" d="M84.60000000000001 92.55000000000001 C 82.725 95.475, 86.7 100.5, 90.15 104.85"></path><path stroke="Black" stroke-width="1.1514448378992268" fill="None" d="M86.4 105.9 C 84 106.5, 81 107.25, 79.575 107.625"></path><path stroke="Black" stroke-width="1.1514448378992268" fill="None" d="M86.4 105.9 C 82.125 98.625, 81 97.5, 78.225 95.025"></path><path stroke="Black" stroke-width="1.1514448378992268" fill="None" d="M78.225 95.025 C 78.375 100.875, 78.6 104.4, 79.575 107.625"></path><path stroke="Black" stroke-width="1.1514448378992268" fill="None" d="M106.05000000000001 211.35 C 147.375 191.625, 155.4 194.1, 205.27499999999998 216.975"></path><path stroke="Black" stroke-width="1.1514448378992268" fill="None" d="M189.9 194.7 C 200.55 208.95, 209.4 215.7, 225 225"></path><path stroke="Black" stroke-width="1.1514448378992268" fill="None" d="M150 187.5 C 163.35 192.45, 174 193.8, 189.9 194.7"></path><path stroke="Black" stroke-width="1.1514448378992268" fill="None" d="M150 150 C 150 166.5, 150 176.25, 150 187.5"></path><path stroke="Black" stroke-width="1.1514448378992268" fill="None" d="M112.5 150 C 127.5 150, 136.5 150, 150 150"></path><path stroke="Black" stroke-width="1.1514448378992268" fill="None" d="M112.5 150 C 107.55 163.35, 106.2 174, 105.30000000000001 189.9"></path><path stroke="Black" stroke-width="1.1514448378992268" fill="None" d="M105.30000000000001 189.9 C 127.5 180.75, 131.25 180.75, 150 187.5"></path><path stroke="Black" stroke-width="1.1514448378992268" fill="None" d="M105.30000000000001 189.9 C 91.05 200.55, 84.3 209.4, 75 225"></path><path stroke="Black" stroke-width="1.1514448378992268" fill="None" d="M75 225 C 87.45 228.14999999999998, 95.25 229.2, 107.7 227.4"></path><path stroke="Black" stroke-width="1.1514448378992268" fill="None" d="M107.7 227.4 C 128.85 226.35, 126.9 207.9, 150 206.55"></path><path stroke="Black" stroke-width="1.1514448378992268" fill="None" d="M150 206.55 C 153.75 206.25, 161.25 206.25, 168.75 206.25"></path><path stroke="Black" stroke-width="1.1514448378992268" fill="None" d="M168.75 206.25 C 177.9 210.45, 183.9 215.1, 192.3 222.60000000000002"></path><path stroke="Black" stroke-width="1.1514448378992268" fill="None" d="M192.3 222.60000000000002 C 204.75 220.8, 212.55 221.85000000000002, 225 225"></path><path stroke="Black" stroke-width="1.1514448378992268" fill="None" d="M107.7 227.4 C 116.1 234.9, 122.1 239.55, 131.25 243.75"></path><path stroke="Black" stroke-width="1.1514448378992268" fill="None" d="M131.25 243.75 C 140.625 234.375, 144.375 230.625, 150 225"></path><path stroke="Black" stroke-width="1.1514448378992268" fill="None" d="M150 225 C 150 219, 150 211.5, 150 206.55"></path><path stroke="Black" stroke-width="1.1514448378992268" fill="None" d="M120.375 226.875 C 123.45 233.25, 127.5 236.39999999999998, 134.625 238.425"></path><path stroke="Black" stroke-width="1.1514448378992268" fill="None" d="M130.125 220.875 C 131.85 228.15, 134.1 231.15, 139.725 233.625"></path><path stroke="Black" stroke-width="1.1514448378992268" fill="None" d="M138.45 213.75 C 137.7 222.3, 139.05 224.25, 144.45 228.89999999999998"></path><path stroke="Black" stroke-width="1.1514448378992268" fill="None" d="M152.475 215.175 C 154.875 214.875, 157.125 214.875, 158.175 215.325"></path><path stroke="Black" stroke-width="1.1514448378992268" fill="None" d="M152.475 210.675 C 156.75 209.25, 159 209.25, 162.525 211.275"></path><path stroke="Black" stroke-width="1.1514448378992268" fill="None" d="M119.475 155.025 C 114 167.25, 114.75 175.5, 117.44999999999999 182.85"></path><path stroke="Black" stroke-width="1.1514448378992268" fill="None" d="M126.825 155.025 C 123 168, 123 172.5, 124.875 181.125"></path><path stroke="Black" stroke-width="1.1514448378992268" fill="None" d="M136.275 155.025 C 131.25 167.25, 131.25 173.25, 133.425 181.575"></path><path stroke="Black" stroke-width="1.1514448378992268" fill="None" d="M143.625 153.075 C 139.5 169.5, 139.5 175.5, 140.85 183.15"></path><path stroke="Black" stroke-width="1.1514448378992268" fill="None" d="M104.625 203.325 C 104.85 206.4, 104.85 207.9, 104.85 209.85"></path><path stroke="Black" stroke-width="1.1514448378992268" fill="None" d="M104.625 203.325 C 99.9 206.4, 96.15 210.15, 92.55000000000001 215.39999999999998"></path><path stroke="Black" stroke-width="1.1514448378992268" fill="None" d="M92.55000000000001 215.39999999999998 C 95.475 217.275, 100.5 213.3, 104.85 209.85"></path><path stroke="Black" stroke-width="1.1514448378992268" fill="None" d="M105.9 213.6 C 106.5 216, 107.25 219, 107.625 220.425"></path><path stroke="Black" stroke-width="1.1514448378992268" fill="None" d="M105.9 213.6 C 98.625 217.875, 97.5 219, 95.025 221.775"></path><path stroke="Black" stroke-width="1.1514448378992268" fill="None" d="M95.025 221.775 C 100.875 221.625, 104.4 221.4, 107.625 220.425"></path><path stroke="Black" stroke-width="1.1514448378992268" fill="None" d="M211.35 193.95 C 191.625 152.625, 194.1 144.6, 216.975 94.72500000000002"></path><path stroke="Black" stroke-width="1.1514448378992268" fill="None" d="M194.7 110.1 C 208.95 99.44999999999999, 215.7 90.6, 225 75"></path><path stroke="Black" stroke-width="1.1514448378992268" fill="None" d="M187.5 150 C 192.45 136.65, 193.8 126, 194.7 110.1"></path><path stroke="Black" stroke-width="1.1514448378992268" fill="None" d="M150 150 C 166.5 150, 176.25 150, 187.5 150"></path><path stroke="Black" stroke-width="1.1514448378992268" fill="None" d="M150 187.5 C 150 172.5, 150 163.5, 150 150"></path><path stroke="Black" stroke-width="1.1514448378992268" fill="None" d="M150 187.5 C 163.35 192.45, 174 193.8, 189.9 194.7"></path><path stroke="Black" stroke-width="1.1514448378992268" fill="None" d="M189.9 194.7 C 180.75 172.5, 180.75 168.75, 187.5 150"></path><path stroke="Black" stroke-width="1.1514448378992268" fill="None" d="M189.9 194.7 C 200.55 208.95, 209.4 215.7, 225 225"></path><path stroke="Black" stroke-width="1.1514448378992268" fill="None" d="M225 225 C 228.14999999999998 212.55, 229.2 204.75, 227.4 192.3"></path><path stroke="Black" stroke-width="1.1514448378992268" fill="None" d="M227.4 192.3 C 226.35 171.15, 207.9 173.1, 206.55 150"></path><path stroke="Black" stroke-width="1.1514448378992268" fill="None" d="M206.55 150 C 206.25 146.25, 206.25 138.75, 206.25 131.25"></path><path stroke="Black" stroke-width="1.1514448378992268" fill="None" d="M206.25 131.25 C 210.45 122.1, 215.1 116.1, 222.60000000000002 107.69999999999999"></path><path stroke="Black" stroke-width="1.1514448378992268" fill="None" d="M222.60000000000002 107.69999999999999 C 220.8 95.25, 221.85000000000002 87.44999999999999, 225 75"></path><path stroke="Black" stroke-width="1.1514448378992268" fill="None" d="M227.4 192.3 C 234.9 183.9, 239.55 177.9, 243.75 168.75"></path><path stroke="Black" stroke-width="1.1514448378992268" fill="None" d="M243.75 168.75 C 234.375 159.375, 230.625 155.625, 225 150"></path><path stroke="Black" stroke-width="1.1514448378992268" fill="None" d="M225 150 C 219 150, 211.5 150, 206.55 150"></path><path stroke="Black" stroke-width="1.1514448378992268" fill="None" d="M226.875 179.625 C 233.25 176.55, 236.39999999999998 172.5, 238.425 165.375"></path><path stroke="Black" stroke-width="1.1514448378992268" fill="None" d="M220.875 169.875 C 228.15 168.15, 231.15 165.9, 233.625 160.275"></path><path stroke="Black" stroke-width="1.1514448378992268" fill="None" d="M213.75 161.55 C 222.3 162.3, 224.25 160.95, 228.89999999999998 155.55"></path><path stroke="Black" stroke-width="1.1514448378992268" fill="None" d="M215.175 147.525 C 214.875 145.125, 214.875 142.875, 215.325 141.825"></path><path stroke="Black" stroke-width="1.1514448378992268" fill="None" d="M210.675 147.525 C 209.25 143.25, 209.25 141, 211.275 137.475"></path><path stroke="Black" stroke-width="1.1514448378992268" fill="None" d="M155.025 180.525 C 167.25 186, 175.5 185.25, 182.85 182.55"></path><path stroke="Black" stroke-width="1.1514448378992268" fill="None" d="M155.025 173.175 C 168 177, 172.5 177, 181.125 175.125"></path><path stroke="Black" stroke-width="1.1514448378992268" fill="None" d="M155.025 163.725 C 167.25 168.75, 173.25 168.75, 181.575 166.575"></path><path stroke="Black" stroke-width="1.1514448378992268" fill="None" d="M153.075 156.375 C 169.5 160.5, 175.5 160.5, 183.15 159.15"></path><path stroke="Black" stroke-width="1.1514448378992268" fill="None" d="M203.325 195.375 C 206.4 195.15, 207.9 195.15, 209.85 195.15"></path><path stroke="Black" stroke-width="1.1514448378992268" fill="None" d="M203.325 195.375 C 206.4 200.1, 210.15 203.85, 215.39999999999998 207.45"></path><path stroke="Black" stroke-width="1.1514448378992268" fill="None" d="M215.39999999999998 207.45 C 217.275 204.525, 213.3 199.5, 209.85 195.15"></path><path stroke="Black" stroke-width="1.1514448378992268" fill="None" d="M213.6 194.1 C 216 193.5, 219 192.75, 220.425 192.375"></path><path stroke="Black" stroke-width="1.1514448378992268" fill="None" d="M213.6 194.1 C 217.875 201.375, 219 202.5, 221.775 204.975"></path><path stroke="Black" stroke-width="1.1514448378992268" fill="None" d="M221.775 204.975 C 221.625 199.125, 221.4 195.6, 220.425 192.375"></path></svg>